<?xml version="1.0" encoding="UTF-8"?>
<svg id="Layer_1" xmlns="http://www.w3.org/2000/svg" version="1.1" xmlns:xlink="http://www.w3.org/1999/xlink" viewBox="0 0 500 500">
  <!-- Generator: Adobe Illustrator 29.5.0, SVG Export Plug-In . SVG Version: 2.1.0 Build 137)  -->
  <defs>
    <style>
      .st0 {
        clip-path: url(#clippath-6);
      }

      .st1 {
        clip-path: url(#clippath-7);
      }

      .st2, .st3, .st4, .st5, .st6, .st7, .st8 {
        stroke: #263238;
      }

      .st2, .st9 {
        fill: #fff;
      }

      .st2, .st5, .st6, .st10, .st7, .st8 {
        stroke-linecap: round;
        stroke-linejoin: round;
      }

      .st3, .st11, .st8 {
        fill: #263238;
      }

      .st3, .st4 {
        stroke-miterlimit: 10;
      }

      .st12, .st13 {
        fill: #814331;
      }

      .st14 {
        clip-path: url(#clippath-4);
      }

      .st15, .st6 {
        fill: #ce7a63;
      }

      .st16, .st10, .st7 {
        fill: none;
      }

      .st4, .st5, .st17 {
        fill: #026347;
      }

      .st13, .st18 {
        isolation: isolate;
        opacity: .5;
      }

      .st19 {
        clip-path: url(#clippath-1);
      }

      .st20 {
        clip-path: url(#clippath-5);
      }

      .st21 {
        clip-path: url(#clippath-3);
      }

      .st10 {
        stroke: #fff;
      }

      .st22 {
        clip-path: url(#clippath-2);
      }

      .st23 {
        clip-path: url(#clippath);
      }
    </style>
    <clipPath id="clippath">
      <path class="st16" d="M208.75,298.58s-14.9,5.58-19,6.7-9.32,6-10.81,12.67c-1.49,6.67-2.23,35.4-2.23,35.4,0,0-13.79,4.1-16.77,4.85s-3.36,7.45-3.36,7.45c-.19,1.17-.56,2.3-1.11,3.35l-.75,1.12s-2.61-1.12,14.91,2.61,45.83,1.49,45.83,1.49c0,0,4.1.37,5.22-4.84s2.23-12.67,3.72-14.91,3-4.47,3-11.18,4.1-25.71,3.73-32.42c-.37-6.71-6.33-11.18-13-12.29-6.67-1.11-9.38,0-9.38,0Z"/>
    </clipPath>
    <clipPath id="clippath-1">
      <path class="st16" d="M208.75,298.58s-14.9,5.58-19,6.7-9.32,6-10.81,12.67c-1.49,6.67-2.23,35.4-2.23,35.4,0,0-13.79,4.1-16.77,4.85s-3.36,7.45-3.36,7.45c-.19,1.17-.56,2.3-1.11,3.35l-.75,1.12s-2.61-1.12,14.91,2.61,45.83,1.49,45.83,1.49c0,0,4.1.37,5.22-4.84s2.23-12.67,3.72-14.91,3-4.47,3-11.18,4.1-25.71,3.73-32.42c-.37-6.71-6.33-11.18-13-12.29-6.67-1.11-9.38,0-9.38,0Z"/>
    </clipPath>
    <clipPath id="clippath-2">
      <path class="st16" d="M219.19,284.04s-1.87,4.47-3.73,9.69c-1.86,5.22-4.47,8.94-4.47,14.16s0,15.65,2.61,15.28,11.55-18.26,12.67-19-3.73-9.68-3.73-14.16c.13-2.47-1.17-4.8-3.35-5.97Z"/>
    </clipPath>
    <clipPath id="clippath-3">
      <path class="st16" d="M224.03,281.06s0-7.45-3.73-6c-3.73,1.45-2.6,11.18-1.86,12.67.37.83,1.03,1.49,1.86,1.86,0,0,1.87,12.3,6.34,17.14,4.47,4.84,10.81,2.24,15.65-1.11s10.81-20.85,10.81-20.85l-8.57-10-3.36-11.18s-2.61-.38-1.49,1.49,2.21,9.69,2.21,9.69c0,0-5.56,7.78-17.86,6.29h0Z"/>
    </clipPath>
    <clipPath id="clippath-4">
      <path class="st16" d="M189.75,306.77s-7.83,1.87-10.81,5.59c-2.98,3.72-2.23,16-.37,21.24,1.86,5.24,10.06,28.32,10.06,28.32l11.55-8.94-5.21-29.07-5.22-17.14Z"/>
    </clipPath>
    <clipPath id="clippath-5">
      <path class="st16" d="M189.75,306.77s-7.83,1.87-10.81,5.59c-2.98,3.72-2.23,16-.37,21.24,1.86,5.24,10.06,28.32,10.06,28.32l11.55-8.94-5.21-29.07-5.22-17.14Z"/>
    </clipPath>
    <clipPath id="clippath-6">
      <path class="st16" d="M260.18,335.84c-1.07,2.06-2.6,3.85-4.48,5.22-3.35,2.6-7.33,2.76-10.31,6.11s-10.18,16.24-16.89,19.22-12.67.38-11.18-6,20.5-16.39,25.34-19.75,11.93-7.82,14.54-7.45c1.46.14,2.67,1.21,2.98,2.65h0Z"/>
    </clipPath>
    <clipPath id="clippath-7">
      <path class="st16" d="M254.95,329.89c-2.42,1.2-7.36.12-7.36.12,0,0-2.3.11-4.65.43.42-.37.88-.69,1.38-.94,0,0,2.41-.86,3.44-1.38s.86-1.55.86-2.41-2.93.52-4,.52-4.82,1-5.85,3.27c-.44.86-.77,1.76-1,2.7-.4.47-.7,1.02-.86,1.62-.3,2.67-1,6.86-1,6.86,0,0-18.26,8.2-26.83,10.81,0,0-11.93,1.12-14.16,4.47-2.23,3.35-3,8.94.37,11.92s6.33,1.12,9.69.38,37.26-23.85,37.26-23.85c0,0,6,0,8.57-3s5.22-8.2,5.59-10.44c.28-1.35-.51-1.32-1.45-1.08h0Z"/>
    </clipPath>
  </defs>
  <g id="freepik--Couch--inject-71">
    <path class="st2" d="M384.08,374.37s-1.87-72.51-27.51-80.64c-26.15-8.29-54.08-7.59-81.16-6.36-25.54,1.16-51.28.45-76.76,2.14-28.05,1.85-38.44,14.73-44.62,40.66-3.39,14.5-5.27,29.31-5.61,44.2l-6.25,18.76h248.16l-6.25-18.76Z"/>
    <path class="st2" d="M169.67,383.12v-16.25s-.62-11.88-14.38-13.13-51.26,28.13-50.63,34.39,7.5,50.63,11.88,52.5,15.62,10.65,25.63,5.65,27.5-63.16,27.5-63.16h0Z"/>
    <path class="st2" d="M357.83,383.12v-16.25s.62-11.88,14.38-13.13,51.23,28.13,50.63,34.39-7.5,50.63-11.88,52.5-15.62,10.65-25.63,5.65-27.5-63.16-27.5-63.16h0Z"/>
    <path class="st2" d="M169.67,383.12c-1.02,1.06-2.12,2.04-3.29,2.93-8.41,6.94-29.84,23.33-29.84,23.33h255.67l-34.38-28.1-188.16,1.84h0Z"/>
    <polygon class="st8" points="136.54 409.38 136.54 435.22 392.04 435.22 392.21 409.38 136.54 409.38"/>
    <path class="st8" d="M128.44,460.64l-8,25.07c-.55,1.74.41,3.6,2.16,4.16.32.1.66.15.99.15h0c1.08,0,2.1-.53,2.71-1.42l19-27.34-16.86-.62Z"/>
    <path class="st8" d="M400.3,460.64l8,25.07c.55,1.74-.41,3.6-2.16,4.16-.32.1-.66.15-.99.15h0c-1.08,0-2.09-.53-2.71-1.42l-19-27.32,16.86-.64h0Z"/>
    <path class="st8" d="M416.49,380.78c-4.14-2-8.83-2.34-14.45.47-11.26,5.62-10,28.13-10,28.13v25h-255.5v-25s1.25-22.51-10-28.13c-5.63-2.81-10.32-2.5-14.46-.47-7.19,3.53-11,11.59-9.92,19.53,1.76,13,5.09,35.61,8.13,44.7,4.37,13.13,4.37,15.63,13.75,18.75,8.13,2.71,112.67.72,140.25.15,27.58.57,132.11,2.56,140.25-.15,9.37-3.12,9.37-5.62,13.75-18.75,3-9.09,6.36-31.67,8.12-44.7,1.03-7.94-2.73-16.03-9.92-19.53Z"/>
    <line class="st10" x1="381.28" y1="434.38" x2="388.61" y2="434.38"/>
    <line class="st10" x1="136.54" y1="434.38" x2="374.61" y2="434.38"/>
  </g>
  <g id="freepik--Chat--inject-71">
    <g>
      <path class="st4" d="M298.08,190.74h-9.5l9.5,5.09v25.91c0,2.76,2.24,5,5,5h79c2.76,0,5-2.24,5-5v-26c0-2.76-2.24-5-5-5,0,0-84,0-84,0Z"/>
      <path class="st11" d="M326.24,207.07c0-2.03-1.64-3.67-3.67-3.67s-3.67,1.64-3.67,3.67,1.64,3.67,3.67,3.67h0c2.02,0,3.66-1.64,3.66-3.66h.01Z"/>
      <path class="st11" d="M345.91,207.07c0-2.03-1.64-3.67-3.67-3.67s-3.67,1.64-3.67,3.67,1.64,3.67,3.67,3.67,3.66-1.63,3.67-3.65v-.02Z"/>
      <circle class="st11" cx="361.91" cy="207.07" r="3.67"/>
    </g>
    <g>
      <path class="st4" d="M341.78,286.02h-9.5l9.5,5.09v25.91c0,2.76,2.24,5,5,5h79c2.76,0,5-2.24,5-5v-26c0-2.76-2.24-5-5-5h-84Z"/>
      <path class="st11" d="M369.94,302.35c0-2.03-1.64-3.67-3.67-3.67s-3.67,1.64-3.67,3.67,1.64,3.67,3.67,3.67h0c2.02,0,3.66-1.65,3.66-3.67h.01Z"/>
      <path class="st11" d="M389.61,302.35c0-2.03-1.64-3.67-3.67-3.67s-3.67,1.64-3.67,3.67,1.64,3.67,3.67,3.67,3.67-1.64,3.67-3.67h0Z"/>
      <path class="st11" d="M409.28,302.35c0-2.03-1.64-3.67-3.67-3.67s-3.67,1.64-3.67,3.67,1.64,3.67,3.67,3.67,3.66-1.65,3.67-3.67Z"/>
    </g>
    <g>
      <path class="st3" d="M322.52,239.71h-9.5l9.5,5.09v25.91c0,2.76,2.24,5,5,5h79c2.76,0,5-2.24,5-5v-26c0-2.76-2.24-5-5-5h-84Z"/>
      <path class="st17" d="M350.68,256.04c0-2.03-1.64-3.67-3.67-3.67s-3.67,1.64-3.67,3.67,1.64,3.67,3.67,3.67h0c2.02,0,3.66-1.65,3.66-3.67h.01Z"/>
      <path class="st17" d="M370.35,256.04c0-2.03-1.64-3.67-3.67-3.67s-3.67,1.64-3.67,3.67,1.64,3.67,3.67,3.67,3.67-1.64,3.67-3.67h0Z"/>
      <path class="st17" d="M390.02,256.04c0-2.03-1.64-3.67-3.67-3.67s-3.67,1.64-3.67,3.67,1.64,3.67,3.67,3.67,3.66-1.65,3.67-3.67Z"/>
    </g>
  </g>
  <g id="freepik--Character--inject-71">
    <path class="st5" d="M210.73,366.51s13-1.67,21.66,1.33,9.34,16.33,9,27.67c-.34,11.34-4.66,58.33-4.66,65s0,13.33-2.67,18.66-10.33,7.67-13.67,8.34-4.33-.67-4.33-.67c0,0-4,.33-4-1.67s3.67-2,5.67-4,6.66-10.66,7.66-15.66c.89-5.07,1.45-10.2,1.67-15.34.33-5-3-26.66-5.33-38s-2.34-13-4.34-21-7-18.33-6.66-24.66h0Z"/>
    <path class="st6" d="M236.73,461.05c-3.57.62-7.24,0-10.41-1.76-.23,2.1-.52,4.19-.93,6.22-1,5-5.66,13.66-7.66,15.66s-5.67,2-5.67,4,4,1.67,4,1.67c0,0,1,1.33,4.33.67s11-3,13.67-8.34,2.66-11.64,2.67-18.12h0Z"/>
    <path class="st7" d="M216.06,486.84c0-.97.51-1.87,1.34-2.38.7-.3,1.29-.82,1.68-1.47"/>
    <path class="st7" d="M218.66,487.5c.29-.68.68-1.32,1.15-1.89.74-.84,2-2.1,2-2.1"/>
    <path class="st7" d="M222.75,486.87s-.84-1.57.1-2.1c.75-.45,1.45-.98,2.1-1.57"/>
    <path class="st7" d="M225.89,485.84c.19-.91.59-1.77,1.17-2.5.48-.47.92-.97,1.33-1.5"/>
    <path class="st5" d="M175.73,401.51s15.66-1.67,27-5.67,17.33-6,19.33-14-2-14.67-14.33-15.33-30,.66-35.34,12.33-4.33,18.67,3.34,22.67Z"/>
    <path class="st9" d="M208.75,298.58s-14.9,5.58-19,6.7-9.32,6-10.81,12.67-2.23,35.4-2.23,35.4c0,0-13.79,4.1-16.77,4.85s-3.36,7.45-3.36,7.45c-.19,1.17-.56,2.3-1.11,3.35l-.75,1.12s-2.61-1.12,14.91,2.61,45.83,1.49,45.83,1.49c0,0,4.1.37,5.22-4.84s2.23-12.67,3.72-14.91,3-4.47,3-11.18,4.1-25.71,3.73-32.42-6.33-11.18-13-12.29-9.38,0-9.38,0Z"/>
    <g class="st23">
      <g class="st19">
        <g>
          <rect class="st16" x="222.14" y="290.51" width="29.25" height="23.75"/>
          <rect class="st9" x="222.14" y="290.51" width="29.25" height="23.75"/>
          <path class="st17" d="M229.39,305.77s-1.25-3-3.51-3-3.52,3-2.52,4.52,5,.5,5,.5c0,0-2.26,2.52-1.51,4,.82,1.73,2.89,2.46,4.61,1.64.34-.16.65-.38.92-.64,2.51-2-.76-4.27-.76-4.27,0,0,3.27.25,4.27-1.51s-1-5-3-4.52-3.5,3.28-3.5,3.28h0Z"/>
          <path class="st17" d="M243.65,294.98s-1.25-3-3.51-3-3.52,3-2.51,4.52,5,.5,5,.5c0,0-2.26,2.51-1.51,4,.83,1.73,2.9,2.45,4.63,1.62.33-.16.63-.37.9-.62,2.51-2-.76-4.27-.76-4.27,0,0,3.27.25,4.27-1.51s-1-5-3-4.52-3.51,3.28-3.51,3.28h0Z"/>
          <rect class="st16" x="222.14" y="314.26" width="29.25" height="23.75"/>
          <rect class="st9" x="222.14" y="314.26" width="29.25" height="23.75"/>
          <path class="st17" d="M229.39,329.56s-1.25-3-3.51-3-3.52,3-2.52,4.52,5,.5,5,.5c0,0-2.26,2.52-1.51,4,.82,1.73,2.89,2.46,4.61,1.64.34-.16.65-.38.92-.64,2.51-2-.76-4.27-.76-4.27,0,0,3.27.26,4.27-1.54s-1-5-3-4.52-3.5,3.31-3.5,3.31h0Z"/>
          <path class="st17" d="M243.65,318.77s-1.25-3-3.51-3-3.52,3-2.51,4.52,5,.5,5,.5c0,0-2.26,2.51-1.51,4,.83,1.73,2.9,2.45,4.63,1.62.33-.16.63-.37.9-.62,2.51-2-.76-4.27-.76-4.27,0,0,3.27.25,4.27-1.51s-1-5-3-4.52-3.51,3.28-3.51,3.28h0Z"/>
          <rect class="st16" x="222.14" y="338.01" width="29.25" height="23.75"/>
          <rect class="st9" x="222.14" y="338.01" width="29.25" height="23.75"/>
          <path class="st17" d="M229.39,353.31s-1.25-3-3.51-3-3.52,3-2.52,4.52,5,.5,5,.5c0,0-2.26,2.52-1.51,4,.82,1.73,2.89,2.46,4.61,1.64.34-.16.65-.38.92-.64,2.51-2-.76-4.27-.76-4.27,0,0,3.27.25,4.27-1.51s-1-5-3-4.52-3.5,3.28-3.5,3.28h0Z"/>
          <path class="st17" d="M243.65,342.48s-1.25-3-3.51-3-3.52,3-2.51,4.52,5,.5,5,.5c0,0-2.26,2.51-1.51,4,.83,1.73,2.9,2.45,4.63,1.62.33-.16.63-.37.9-.62,2.51-2-.76-4.27-.76-4.27,0,0,3.27.25,4.27-1.51s-1-5-3-4.52-3.51,3.28-3.51,3.28h0Z"/>
          <rect class="st16" x="222.14" y="361.76" width="29.25" height="23.75"/>
          <rect class="st9" x="222.14" y="361.76" width="29.25" height="23.75"/>
          <path class="st17" d="M229.39,377.06s-1.25-3-3.51-3-3.52,3-2.52,4.52,5,.5,5,.5c0,0-2.26,2.52-1.51,4,.82,1.73,2.89,2.46,4.61,1.64.34-.16.65-.38.92-.64,2.51-2-.76-4.27-.76-4.27,0,0,3.27.25,4.27-1.51s-1-5-3-4.52-3.5,3.28-3.5,3.28h0Z"/>
          <path class="st17" d="M243.65,366.23s-1.25-3-3.51-3-3.52,3-2.51,4.52,5,.5,5,.5c0,0-2.26,2.51-1.51,4,.83,1.73,2.9,2.45,4.63,1.62.33-.16.63-.37.9-.62,2.51-2-.76-4.27-.76-4.27,0,0,3.27.25,4.27-1.51s-1-5-3-4.52-3.51,3.28-3.51,3.28h0Z"/>
          <rect class="st16" x="192.89" y="290.51" width="29.25" height="23.75"/>
          <rect class="st9" x="192.89" y="290.51" width="29.25" height="23.75"/>
          <path class="st17" d="M200.14,305.77s-1.25-3-3.51-3-3.52,3-2.52,4.52,5,.5,5,.5c0,0-2.26,2.52-1.51,4,.82,1.73,2.89,2.46,4.61,1.64.34-.16.65-.38.92-.64,2.51-2-.76-4.27-.76-4.27,0,0,3.27.25,4.27-1.51s-1-5-3-4.52-3.5,3.28-3.5,3.28h0Z"/>
          <path class="st17" d="M214.4,294.98s-1.25-3-3.51-3-3.52,3-2.51,4.52,5,.5,5,.5c0,0-2.26,2.51-1.51,4,.83,1.73,2.9,2.45,4.63,1.62.33-.16.63-.37.9-.62,2.51-2-.76-4.27-.76-4.27,0,0,3.27.25,4.27-1.51s-1-5-3-4.52-3.51,3.28-3.51,3.28h0Z"/>
          <rect class="st16" x="192.89" y="314.26" width="29.25" height="23.75"/>
          <rect class="st9" x="192.89" y="314.26" width="29.25" height="23.75"/>
          <path class="st17" d="M200.14,329.56s-1.25-3-3.51-3-3.52,3-2.52,4.52,5,.5,5,.5c0,0-2.26,2.52-1.51,4,.82,1.73,2.89,2.46,4.61,1.64.34-.16.65-.38.92-.64,2.51-2-.76-4.27-.76-4.27,0,0,3.27.25,4.27-1.51s-1-5-3-4.52-3.5,3.28-3.5,3.28h0Z"/>
          <path class="st17" d="M214.4,318.77s-1.25-3-3.51-3-3.52,3-2.51,4.52,5,.5,5,.5c0,0-2.26,2.51-1.51,4,.83,1.73,2.9,2.45,4.63,1.62.33-.16.63-.37.9-.62,2.51-2-.76-4.27-.76-4.27,0,0,3.27.25,4.27-1.51s-1-5-3-4.52-3.51,3.28-3.51,3.28h0Z"/>
          <rect class="st16" x="192.89" y="338.01" width="29.25" height="23.75"/>
          <rect class="st9" x="192.89" y="338.01" width="29.25" height="23.75"/>
          <path class="st17" d="M200.14,353.31s-1.25-3-3.51-3-3.52,3-2.52,4.52,5,.5,5,.5c0,0-2.26,2.52-1.51,4,.82,1.73,2.89,2.46,4.61,1.64.34-.16.65-.38.92-.64,2.51-2-.76-4.27-.76-4.27,0,0,3.27.25,4.27-1.51s-1-5-3-4.52-3.5,3.28-3.5,3.28h0Z"/>
          <path class="st17" d="M214.4,342.48s-1.25-3-3.51-3-3.52,3-2.51,4.52,5,.5,5,.5c0,0-2.26,2.51-1.51,4,.83,1.73,2.9,2.45,4.63,1.62.33-.16.63-.37.9-.62,2.51-2-.76-4.27-.76-4.27,0,0,3.27.25,4.27-1.51s-1-5-3-4.52-3.51,3.28-3.51,3.28h0Z"/>
          <rect class="st16" x="192.89" y="361.76" width="29.25" height="23.75"/>
          <rect class="st9" x="192.89" y="361.76" width="29.25" height="23.75"/>
          <path class="st17" d="M200.14,377.06s-1.25-3-3.51-3-3.52,3-2.52,4.52,5,.5,5,.5c0,0-2.26,2.52-1.51,4,.82,1.73,2.89,2.46,4.61,1.64.34-.16.65-.38.92-.64,2.51-2-.76-4.27-.76-4.27,0,0,3.27.25,4.27-1.51s-1-5-3-4.52-3.5,3.28-3.5,3.28h0Z"/>
          <path class="st17" d="M214.4,366.23s-1.25-3-3.51-3-3.52,3-2.51,4.52,5,.5,5,.5c0,0-2.26,2.51-1.51,4,.83,1.73,2.9,2.45,4.63,1.62.33-.16.63-.37.9-.62,2.51-2-.76-4.27-.76-4.27,0,0,3.27.25,4.27-1.51s-1-5-3-4.52-3.51,3.28-3.51,3.28h0Z"/>
          <rect class="st16" x="163.64" y="290.51" width="29.25" height="23.75"/>
          <rect class="st9" x="163.64" y="290.51" width="29.25" height="23.75"/>
          <path class="st17" d="M170.89,305.77s-1.25-3-3.51-3-3.52,3-2.52,4.52,5,.5,5,.5c0,0-2.26,2.52-1.51,4,.82,1.73,2.89,2.46,4.61,1.64.34-.16.65-.38.92-.64,2.51-2-.76-4.27-.76-4.27,0,0,3.27.25,4.27-1.51s-1-5-3-4.52-3.5,3.28-3.5,3.28h0Z"/>
          <path class="st17" d="M185.15,294.98s-1.25-3-3.51-3-3.52,3-2.51,4.52,5,.5,5,.5c0,0-2.26,2.51-1.51,4,.83,1.73,2.9,2.45,4.63,1.62.33-.16.63-.37.9-.62,2.51-2-.76-4.27-.76-4.27,0,0,3.27.25,4.27-1.51s-1-5-3-4.52-3.51,3.28-3.51,3.28h0Z"/>
          <rect class="st16" x="163.64" y="314.26" width="29.25" height="23.75"/>
          <rect class="st9" x="163.64" y="314.26" width="29.25" height="23.75"/>
          <path class="st17" d="M170.89,329.56s-1.25-3-3.51-3-3.52,3-2.52,4.52,5,.5,5,.5c0,0-2.26,2.52-1.51,4,.82,1.73,2.89,2.46,4.61,1.64.34-.16.65-.38.92-.64,2.51-2-.76-4.27-.76-4.27,0,0,3.27.25,4.27-1.51s-1-5-3-4.52-3.5,3.28-3.5,3.28h0Z"/>
          <path class="st17" d="M185.15,318.77s-1.25-3-3.51-3-3.52,3-2.51,4.52,5,.5,5,.5c0,0-2.26,2.51-1.51,4,.83,1.73,2.9,2.45,4.63,1.62.33-.16.63-.37.9-.62,2.51-2-.76-4.27-.76-4.27,0,0,3.27.25,4.27-1.51s-1-5-3-4.52-3.51,3.28-3.51,3.28h0Z"/>
          <rect class="st16" x="163.64" y="338.01" width="29.25" height="23.75"/>
          <rect class="st9" x="163.64" y="338.01" width="29.25" height="23.75"/>
          <path class="st17" d="M170.89,353.31s-1.25-3-3.51-3-3.52,3-2.52,4.52,5,.5,5,.5c0,0-2.26,2.52-1.51,4,.82,1.73,2.89,2.46,4.61,1.64.34-.16.65-.38.92-.64,2.51-2-.76-4.27-.76-4.27,0,0,3.27.25,4.27-1.51s-1-5-3-4.52-3.5,3.28-3.5,3.28h0Z"/>
          <path class="st17" d="M185.15,342.48s-1.25-3-3.51-3-3.52,3-2.51,4.52,5,.5,5,.5c0,0-2.26,2.51-1.51,4,.83,1.73,2.9,2.45,4.63,1.62.33-.16.63-.37.9-.62,2.51-2-.76-4.27-.76-4.27,0,0,3.27.25,4.27-1.51s-1-5-3-4.52-3.51,3.28-3.51,3.28h0Z"/>
          <rect class="st16" x="163.64" y="361.76" width="29.25" height="23.75"/>
          <rect class="st9" x="163.64" y="361.76" width="29.25" height="23.75"/>
          <path class="st17" d="M170.89,377.06s-1.25-3-3.51-3-3.52,3-2.52,4.52,5,.5,5,.5c0,0-2.26,2.52-1.51,4,.82,1.73,2.89,2.46,4.61,1.64.34-.16.65-.38.92-.64,2.51-2-.76-4.27-.76-4.27,0,0,3.27.25,4.27-1.51s-1-5-3-4.52-3.5,3.28-3.5,3.28h0Z"/>
          <path class="st17" d="M185.15,366.23s-1.25-3-3.51-3-3.52,3-2.51,4.52,5,.5,5,.5c0,0-2.26,2.51-1.51,4,.83,1.73,2.9,2.45,4.63,1.62.33-.16.63-.37.9-.62,2.51-2-.76-4.27-.76-4.27,0,0,3.27.25,4.27-1.51s-1-5-3-4.52-3.51,3.28-3.51,3.28h0Z"/>
          <rect class="st16" x="134.39" y="290.51" width="29.25" height="23.75"/>
          <rect class="st9" x="134.39" y="290.51" width="29.25" height="23.75"/>
          <path class="st17" d="M141.64,305.77s-1.25-3-3.51-3-3.52,3-2.52,4.52,5,.5,5,.5c0,0-2.26,2.52-1.51,4,.82,1.73,2.89,2.46,4.61,1.64.34-.16.65-.38.92-.64,2.51-2-.76-4.27-.76-4.27,0,0,3.27.25,4.27-1.51s-1-5-3-4.52-3.5,3.28-3.5,3.28h0Z"/>
          <path class="st17" d="M155.89,294.98s-1.25-3-3.51-3-3.52,3-2.51,4.52,5,.5,5,.5c0,0-2.26,2.51-1.51,4,.83,1.73,2.9,2.45,4.63,1.62.33-.16.63-.37.9-.62,2.51-2-.76-4.27-.76-4.27,0,0,3.27.25,4.27-1.51s-1-5-3-4.52-3.51,3.28-3.51,3.28h0Z"/>
          <rect class="st16" x="134.39" y="314.26" width="29.25" height="23.75"/>
          <rect class="st9" x="134.39" y="314.26" width="29.25" height="23.75"/>
          <path class="st17" d="M141.64,329.56s-1.25-3-3.51-3-3.52,3-2.52,4.52,5,.5,5,.5c0,0-2.26,2.52-1.51,4,.82,1.73,2.89,2.46,4.61,1.64.34-.16.65-.38.92-.64,2.51-2-.76-4.27-.76-4.27,0,0,3.27.25,4.27-1.51s-1-5-3-4.52-3.5,3.28-3.5,3.28h0Z"/>
          <path class="st17" d="M155.89,318.77s-1.25-3-3.51-3-3.52,3-2.51,4.52,5,.5,5,.5c0,0-2.26,2.51-1.51,4,.83,1.73,2.9,2.45,4.63,1.62.33-.16.63-.37.9-.62,2.51-2-.76-4.27-.76-4.27,0,0,3.27.25,4.27-1.51s-1-5-3-4.52-3.51,3.28-3.51,3.28h0Z"/>
          <rect class="st16" x="134.39" y="338.01" width="29.25" height="23.75"/>
          <rect class="st9" x="134.39" y="338.01" width="29.25" height="23.75"/>
          <path class="st17" d="M141.64,353.31s-1.25-3-3.51-3-3.52,3-2.52,4.52,5,.5,5,.5c0,0-2.26,2.52-1.51,4,.82,1.73,2.89,2.46,4.61,1.64.34-.16.65-.38.92-.64,2.51-2-.76-4.27-.76-4.27,0,0,3.27.25,4.27-1.51s-1-5-3-4.52-3.5,3.28-3.5,3.28h0Z"/>
          <path class="st17" d="M155.89,342.48s-1.25-3-3.51-3-3.52,3-2.51,4.52,5,.5,5,.5c0,0-2.26,2.51-1.51,4,.83,1.73,2.9,2.45,4.63,1.62.33-.16.63-.37.9-.62,2.51-2-.76-4.27-.76-4.27,0,0,3.27.25,4.27-1.51s-1-5-3-4.52-3.51,3.28-3.51,3.28h0Z"/>
          <rect class="st16" x="134.39" y="361.76" width="29.25" height="23.75"/>
          <rect class="st9" x="134.39" y="361.76" width="29.25" height="23.75"/>
          <path class="st17" d="M141.64,377.06s-1.25-3-3.51-3-3.52,3-2.52,4.52,5,.5,5,.5c0,0-2.26,2.52-1.51,4,.82,1.73,2.89,2.46,4.61,1.64.34-.16.65-.38.92-.64,2.51-2-.76-4.27-.76-4.27,0,0,3.27.25,4.27-1.51s-1-5-3-4.52-3.5,3.28-3.5,3.28h0Z"/>
          <path class="st17" d="M155.89,366.23s-1.25-3-3.51-3-3.52,3-2.51,4.52,5,.5,5,.5c0,0-2.26,2.51-1.51,4,.83,1.73,2.9,2.45,4.63,1.62.33-.16.63-.37.9-.62,2.51-2-.76-4.27-.76-4.27,0,0,3.27.25,4.27-1.51s-1-5-3-4.52-3.51,3.28-3.51,3.28h0Z"/>
        </g>
      </g>
    </g>
    <path class="st7" d="M208.75,298.58s-14.9,5.58-19,6.7-9.32,6-10.81,12.67-2.23,35.4-2.23,35.4c0,0-13.79,4.1-16.77,4.85s-3.36,7.45-3.36,7.45c-.19,1.17-.56,2.3-1.11,3.35l-.75,1.12s-2.61-1.12,14.91,2.61,45.83,1.49,45.83,1.49c0,0,4.1.37,5.22-4.84s2.23-12.67,3.72-14.91,3-4.47,3-11.18,4.1-25.71,3.73-32.42-6.33-11.18-13-12.29-9.38,0-9.38,0Z"/>
    <path class="st7" d="M180.13,363.9s-11.08-.88-16-4.38"/>
    <path class="st2" d="M215.46,293.77s-6.33-.74-8.2,2.61c-2.23,3.59-3.51,7.7-3.72,11.92-.38,5.59-.75,14.91-.75,14.91l11.55-5.59,12.67,6s-3.35-13-4.1-19.75-3.35-10.88-7.45-10.1Z"/>
    <path class="st8" d="M218.44,294.85c-3.8-4.87-6.24-10.65-7.08-16.77-1.12-9.69,2.61-16.77,9.32-20.49s22.36-7.46,28.32-5.59,14.16,16.77,16.39,24.59-.74,23.85-1.49,28.69.75,25,2.61,36.15c1.86,11.15-4.1,25.34-15.62,28.69s-23.48,0-26.46-8.2c-2.19-6-1.49-20.49,1.12-30.55s2.61-25.34,2.61-29.81-9.72-6.71-9.72-6.71h0Z"/>
    <path class="st10" d="M239.39,271.09s3,4-8,2.66-15.92-4-17.25.33"/>
    <path class="st10" d="M213.89,270.77s0-8,7.63-8,14.15,3.24,16.92,2"/>
    <path class="st10" d="M246.36,270.77c1.71,3.8,4.49,7.03,8,9.29,6,4,10.32,13.91,9.95,19.57"/>
    <path class="st10" d="M254.32,287.68c.54,7.68,1.54,15.33,3,22.89,2.65,14.92,5,38.81-1.66,49.09s-13.27,11.28-19.24,7.63"/>
    <path class="st10" d="M253.66,294.31s.33,49.1-7.3,56.39-20.57,3.65-18.91-18.57"/>
    <path class="st15" d="M219.19,284.04s-1.87,4.47-3.73,9.69-4.47,8.94-4.47,14.16,0,15.65,2.61,15.28,11.55-18.26,12.67-19-3.73-9.68-3.73-14.16c.13-2.47-1.17-4.8-3.35-5.97Z"/>
    <g class="st22">
      <g>
        <path class="st12" d="M222.54,290c.15-2.48-1.16-4.82-3.35-6,0,0-1.87,4.47-3.73,9.69-.26.72-.53,1.4-.8,2.07.72,1.52,1.58,2.98,2.58,4.34l4.26,5.9s-4.36,9.33-7.1,12.69c-.72.85-1.59,1.57-2.56,2.11.38,1.5.94,2.45,1.76,2.33,2.61-.37,11.55-18.26,12.67-19s-3.73-9.65-3.73-14.13h0Z"/>
        <path class="st13" d="M222.54,290c.15-2.48-1.16-4.82-3.35-6,0,0-1.87,4.47-3.73,9.69-.26.72-.53,1.4-.8,2.07.72,1.52,1.58,2.98,2.58,4.34l4.26,5.9s-4.36,9.33-7.1,12.69c-.72.85-1.59,1.57-2.56,2.11.38,1.5.94,2.45,1.76,2.33,2.61-.37,11.55-18.26,12.67-19s-3.73-9.65-3.73-14.13h0Z"/>
      </g>
    </g>
    <path class="st7" d="M219.19,284.04s-1.87,4.47-3.73,9.69-4.47,8.94-4.47,14.16,0,15.65,2.61,15.28,11.55-18.26,12.67-19-3.73-9.68-3.73-14.16c.13-2.47-1.17-4.8-3.35-5.97Z"/>
    <path class="st5" d="M182.39,363.51s-22.34.89-27.67,6.61-9.33,20-1.33,28.39,20,6,28.67,2.33,17.67-13,17.67-13c0,0-7.67,19.33-9,29.67s-4.34,62.33-4.34,65.33,5,4.33,8.34,3.33,13.33-6.33,15-6.33,7-3.33,7.66-4.33-.66-2.34-.66-2.34c0,0,2.33-.66,2.33-2.66s-3-1-4.67-.67-11.66.33-14,.33-4.66-1.33-4.66-2.66-.34-9,5.66-22,21.67-51.67,22.34-65-8.67-14.67-19-15.67-14-1.33-22.34-1.33Z"/>
    <path class="st7" d="M190.76,454.23l-.53,5.48"/>
    <path class="st7" d="M157.79,388.52c2.15-.41,4.23-1.11,6.19-2.08,8.37-4,41.25-13,44.43-12.12s-3.46,5.77-3.46,5.77c0,0,4.9-3.17,4-.58-.48,1.48-1.06,2.93-1.73,4.33,0,0-12.4,32.6-13.56,42.12-.62,5.15-1.58,14.61-2.33,22.21"/>
    <path class="st7" d="M150.42,388.17c.93.35,1.92.55,2.91.61"/>
    <path class="st6" d="M217.39,475.51c.67-1-.66-2.34-.66-2.34,0,0,2.33-.66,2.33-2.66s-3-1-4.67-.67-11.66.33-14,.33-4.66-1.33-4.66-2.66c-.03-1.92.11-3.83.43-5.72-2.83.83-5.83.8-8.64-.09-.65,11-1.13,19.95-1.13,21.14,0,3,5,4.33,8.34,3.33s13.33-6.33,15-6.33,7-3.33,7.66-4.33h0Z"/>
    <path class="st7" d="M216.73,473.17c-1.73-.76-3.69-.88-5.5-.33"/>
    <path class="st7" d="M210.39,474.51s4.82-1.56,6.53,1.28"/>
    <path class="st7" d="M209.39,476.51s3.55-1.43,5,.7"/>
    <path class="st7" d="M207.06,478.51s2.67-.34,2.67,1.33"/>
    <path class="st15" d="M224.03,281.06s0-7.45-3.73-6-2.6,11.18-1.86,12.67c.37.83,1.03,1.49,1.86,1.86,0,0,1.87,12.3,6.34,17.14s10.81,2.24,15.65-1.11,10.81-20.85,10.81-20.85l-8.57-10-3.36-11.18s-2.61-.38-1.49,1.49,2.21,9.69,2.21,9.69c0,0-5.56,7.78-17.86,6.29h0Z"/>
    <g class="st21">
      <g>
        <path class="st12" d="M244.53,274.77l-1.32-4.4-.08,1s1.64,10.16,3.61,12.46,3,4.59,2,7.21-4.26,10.49-9.5,13.44-7.87,3.93-11.15.65c-2.04-2.14-3.94-4.41-5.7-6.79,1,3.18,2.43,6.49,4.29,8.51,4.47,4.85,10.81,2.24,15.65-1.11s10.77-20.97,10.77-20.97l-8.57-10h0Z"/>
        <path class="st13" d="M244.53,274.77l-1.32-4.4-.08,1s1.64,10.16,3.61,12.46,3,4.59,2,7.21-4.26,10.49-9.5,13.44-7.87,3.93-11.15.65c-2.04-2.14-3.94-4.41-5.7-6.79,1,3.18,2.43,6.49,4.29,8.51,4.47,4.85,10.81,2.24,15.65-1.11s10.77-20.97,10.77-20.97l-8.57-10h0Z"/>
      </g>
    </g>
    <path class="st7" d="M224.03,281.06s0-7.45-3.73-6-2.6,11.18-1.86,12.67c.37.83,1.03,1.49,1.86,1.86,0,0,1.87,12.3,6.34,17.14s10.81,2.24,15.65-1.11,10.81-20.85,10.81-20.85l-8.57-10-3.36-11.18s-2.61-.38-1.49,1.49,2.21,9.69,2.21,9.69c0,0-5.56,7.78-17.86,6.29h0Z"/>
    <path class="st11" d="M237.52,291.17c-.28,1.06-.89,1.8-1.37,1.68s-.64-1.09-.36-2.14.9-1.8,1.38-1.67.63,1.08.35,2.13h0Z"/>
    <path class="st11" d="M245.94,292.77c-.28,1-.9,1.8-1.37,1.67s-.64-1.09-.36-2.14.9-1.8,1.37-1.67.64,1.14.36,2.14Z"/>
    <path class="st7" d="M234.51,286.29s2.69-2.15,4.66-.18"/>
    <path class="st7" d="M245.07,287.77s2.69-1.79,3.23,1.61"/>
    <path class="st7" d="M243.46,292.2c-.82.74-1.33,1.76-1.43,2.86.04,1.05.42,2.05,1.07,2.87,0,0-2.5,2-4.65.71"/>
    <path class="st7" d="M231.82,299.18c.24,1.35,1.21,2.45,2.51,2.87"/>
    <path class="st7" d="M219.11,280.2s.36-2.69,1.61-2.51,1.08,2.87,1.08,2.87c0,0-2.51-.36-1.62,1.07s2,.9,2,.9"/>
    <path class="st9" d="M189.75,306.77s-7.83,1.87-10.81,5.59-2.23,16-.37,21.24,10.06,28.32,10.06,28.32l11.55-8.94-5.21-29.07"/>
    <g class="st14">
      <g class="st20">
        <g>
          <rect class="st16" x="192.89" y="290.51" width="29.25" height="23.75"/>
          <rect class="st9" x="192.89" y="290.51" width="29.25" height="23.75"/>
          <path class="st17" d="M200.14,305.77s-1.25-3-3.51-3-3.52,3-2.52,4.52,5,.5,5,.5c0,0-2.26,2.52-1.51,4,.82,1.73,2.89,2.46,4.61,1.64.34-.16.65-.38.92-.64,2.51-2-.76-4.27-.76-4.27,0,0,3.27.25,4.27-1.51s-1-5-3-4.52-3.5,3.28-3.5,3.28h0Z"/>
          <path class="st17" d="M214.4,294.98s-1.25-3-3.51-3-3.52,3-2.51,4.52,5,.5,5,.5c0,0-2.26,2.51-1.51,4,.83,1.73,2.9,2.45,4.63,1.62.33-.16.63-.37.9-.62,2.51-2-.76-4.27-.76-4.27,0,0,3.27.25,4.27-1.51s-1-5-3-4.52-3.51,3.28-3.51,3.28h0Z"/>
          <rect class="st16" x="192.89" y="314.26" width="29.25" height="23.75"/>
          <rect class="st9" x="192.89" y="314.26" width="29.25" height="23.75"/>
          <path class="st17" d="M200.14,329.56s-1.25-3-3.51-3-3.52,3-2.52,4.52,5,.5,5,.5c0,0-2.26,2.52-1.51,4,.82,1.73,2.89,2.46,4.61,1.64.34-.16.65-.38.92-.64,2.51-2-.76-4.27-.76-4.27,0,0,3.27.25,4.27-1.51s-1-5-3-4.52-3.5,3.28-3.5,3.28h0Z"/>
          <path class="st17" d="M214.4,318.77s-1.25-3-3.51-3-3.52,3-2.51,4.52,5,.5,5,.5c0,0-2.26,2.51-1.51,4,.83,1.73,2.9,2.45,4.63,1.62.33-.16.63-.37.9-.62,2.51-2-.76-4.27-.76-4.27,0,0,3.27.25,4.27-1.51s-1-5-3-4.52-3.51,3.28-3.51,3.28h0Z"/>
          <rect class="st16" x="192.89" y="338.01" width="29.25" height="23.75"/>
          <rect class="st9" x="192.89" y="338.01" width="29.25" height="23.75"/>
          <path class="st17" d="M200.14,353.31s-1.25-3-3.51-3-3.52,3-2.52,4.52,5,.5,5,.5c0,0-2.26,2.52-1.51,4,.82,1.73,2.89,2.46,4.61,1.64.34-.16.65-.38.92-.64,2.51-2-.76-4.27-.76-4.27,0,0,3.27.25,4.27-1.51s-1-5-3-4.52-3.5,3.28-3.5,3.28h0Z"/>
          <path class="st17" d="M214.4,342.48s-1.25-3-3.51-3-3.52,3-2.51,4.52,5,.5,5,.5c0,0-2.26,2.51-1.51,4,.83,1.73,2.9,2.45,4.63,1.62.33-.16.63-.37.9-.62,2.51-2-.76-4.27-.76-4.27,0,0,3.27.25,4.27-1.51s-1-5-3-4.52-3.51,3.28-3.51,3.28h0Z"/>
          <rect class="st16" x="192.89" y="361.76" width="29.25" height="23.75"/>
          <rect class="st9" x="192.89" y="361.76" width="29.25" height="23.75"/>
          <path class="st17" d="M200.14,377.06s-1.25-3-3.51-3-3.52,3-2.52,4.52,5,.5,5,.5c0,0-2.26,2.52-1.51,4,.82,1.73,2.89,2.46,4.61,1.64.34-.16.65-.38.92-.64,2.51-2-.76-4.27-.76-4.27,0,0,3.27.25,4.27-1.51s-1-5-3-4.52-3.5,3.28-3.5,3.28h0Z"/>
          <path class="st17" d="M214.4,366.23s-1.25-3-3.51-3-3.52,3-2.51,4.52,5,.5,5,.5c0,0-2.26,2.51-1.51,4,.83,1.73,2.9,2.45,4.63,1.62.33-.16.63-.37.9-.62,2.51-2-.76-4.27-.76-4.27,0,0,3.27.25,4.27-1.51s-1-5-3-4.52-3.51,3.28-3.51,3.28h0Z"/>
          <rect class="st16" x="163.64" y="290.51" width="29.25" height="23.75"/>
          <rect class="st9" x="163.64" y="290.51" width="29.25" height="23.75"/>
          <path class="st17" d="M170.89,305.77s-1.25-3-3.51-3-3.52,3-2.52,4.52,5,.5,5,.5c0,0-2.26,2.52-1.51,4,.82,1.73,2.89,2.46,4.61,1.64.34-.16.65-.38.92-.64,2.51-2-.76-4.27-.76-4.27,0,0,3.27.25,4.27-1.51s-1-5-3-4.52-3.5,3.28-3.5,3.28h0Z"/>
          <path class="st17" d="M185.15,294.98s-1.25-3-3.51-3-3.52,3-2.51,4.52,5,.5,5,.5c0,0-2.26,2.51-1.51,4,.83,1.73,2.9,2.45,4.63,1.62.33-.16.63-.37.9-.62,2.51-2-.76-4.27-.76-4.27,0,0,3.27.25,4.27-1.51s-1-5-3-4.52-3.51,3.28-3.51,3.28h0Z"/>
          <rect class="st16" x="163.64" y="314.26" width="29.25" height="23.75"/>
          <rect class="st9" x="163.64" y="314.26" width="29.25" height="23.75"/>
          <path class="st17" d="M170.89,329.56s-1.25-3-3.51-3-3.52,3-2.52,4.52,5,.5,5,.5c0,0-2.26,2.52-1.51,4,.82,1.73,2.89,2.46,4.61,1.64.34-.16.65-.38.92-.64,2.51-2-.76-4.27-.76-4.27,0,0,3.27.25,4.27-1.51s-1-5-3-4.52-3.5,3.28-3.5,3.28h0Z"/>
          <path class="st17" d="M185.15,318.77s-1.25-3-3.51-3-3.52,3-2.51,4.52,5,.5,5,.5c0,0-2.26,2.51-1.51,4,.83,1.73,2.9,2.45,4.63,1.62.33-.16.63-.37.9-.62,2.51-2-.76-4.27-.76-4.27,0,0,3.27.25,4.27-1.51s-1-5-3-4.52-3.51,3.28-3.51,3.28h0Z"/>
          <rect class="st16" x="163.64" y="338.01" width="29.25" height="23.75"/>
          <rect class="st9" x="163.64" y="338.01" width="29.25" height="23.75"/>
          <path class="st17" d="M170.89,353.31s-1.25-3-3.51-3-3.52,3-2.52,4.52,5,.5,5,.5c0,0-2.26,2.52-1.51,4,.82,1.73,2.89,2.46,4.61,1.64.34-.16.65-.38.92-.64,2.51-2-.76-4.27-.76-4.27,0,0,3.27.25,4.27-1.51s-1-5-3-4.52-3.5,3.28-3.5,3.28h0Z"/>
          <path class="st17" d="M185.15,342.48s-1.25-3-3.51-3-3.52,3-2.51,4.52,5,.5,5,.5c0,0-2.26,2.51-1.51,4,.83,1.73,2.9,2.45,4.63,1.62.33-.16.63-.37.9-.62,2.51-2-.76-4.27-.76-4.27,0,0,3.27.25,4.27-1.51s-1-5-3-4.52-3.51,3.28-3.51,3.28h0Z"/>
          <rect class="st16" x="163.64" y="361.76" width="29.25" height="23.75"/>
          <rect class="st9" x="163.64" y="361.76" width="29.25" height="23.75"/>
          <path class="st17" d="M170.89,377.06s-1.25-3-3.51-3-3.52,3-2.52,4.52,5,.5,5,.5c0,0-2.26,2.52-1.51,4,.82,1.73,2.89,2.46,4.61,1.64.34-.16.65-.38.92-.64,2.51-2-.76-4.27-.76-4.27,0,0,3.27.25,4.27-1.51s-1-5-3-4.52-3.5,3.28-3.5,3.28h0Z"/>
          <path class="st17" d="M185.15,366.23s-1.25-3-3.51-3-3.52,3-2.51,4.52,5,.5,5,.5c0,0-2.26,2.51-1.51,4,.83,1.73,2.9,2.45,4.63,1.62.33-.16.63-.37.9-.62,2.51-2-.76-4.27-.76-4.27,0,0,3.27.25,4.27-1.51s-1-5-3-4.52-3.51,3.28-3.51,3.28h0Z"/>
        </g>
      </g>
    </g>
    <path class="st7" d="M189.75,306.77s-7.83,1.87-10.81,5.59-2.23,16-.37,21.24,10.06,28.32,10.06,28.32l11.55-8.94-5.21-29.07"/>
    <path class="st2" d="M205.03,352.98c-1.67-2.01-4.1-3.22-6.71-3.35-4.1,0-9.32,4.84-10.43,8.94s2.23,9.69,5.58,11.92,11.93-2.23,13.79-7.08-2.23-10.43-2.23-10.43h0Z"/>
    <path class="st15" d="M260.18,335.84c-1.07,2.06-2.6,3.85-4.48,5.22-3.35,2.6-7.33,2.76-10.31,6.11-2.98,3.35-10.18,16.24-16.89,19.22s-12.67.38-11.18-6,20.5-16.39,25.34-19.75,11.93-7.82,14.54-7.45c1.46.14,2.67,1.21,2.98,2.65h0Z"/>
    <g class="st0">
      <path class="st18" d="M260.18,335.84c-1.07,2.06-2.6,3.85-4.48,5.22-3.35,2.6-7.33,2.76-10.31,6.11-2.98,3.35-10.18,16.24-16.89,19.22s-12.67.38-11.18-6,20.5-16.39,25.34-19.75,11.93-7.82,14.54-7.45c1.46.14,2.67,1.21,2.98,2.65h0Z"/>
    </g>
    <path class="st7" d="M260.18,335.84c-1.07,2.06-2.6,3.85-4.48,5.22-3.35,2.6-7.33,2.76-10.31,6.11-2.98,3.35-10.18,16.24-16.89,19.22s-12.67.38-11.18-6,20.5-16.39,25.34-19.75,11.93-7.82,14.54-7.45c1.46.14,2.67,1.21,2.98,2.65h0Z"/>
    <path class="st6" d="M260.89,329.13s-.63-2.65-2.73-3.41-4.18.38-3.8,1.71,3.23,1,3.8,2.28c.32.66.51,1.36.57,2.09,1.02.25,2.05-.38,2.29-1.4.1-.43.06-.88-.13-1.27Z"/>
    <polygon class="st5" points="240.43 338.82 251.98 316.09 263.53 316.09 253.84 336.58 240.43 338.82"/>
    <path class="st6" d="M260.89,329.13s-6-1-7.82,1.12c-.86,1.27-1.46,2.7-1.75,4.21,0,0,8.08,5.85,9.57,2.87,1.49-2.98,1.52-5.96,0-8.2Z"/>
    <path class="st15" d="M254.95,329.89c-2.42,1.2-7.36.12-7.36.12,0,0-2.3.11-4.65.43.42-.37.88-.69,1.38-.94,0,0,2.41-.86,3.44-1.38s.86-1.55.86-2.41-2.93.52-4,.52-4.82,1-5.85,3.27c-.44.86-.77,1.76-1,2.7-.4.47-.7,1.02-.86,1.62-.3,2.67-1,6.86-1,6.86,0,0-18.26,8.2-26.83,10.81,0,0-11.93,1.12-14.16,4.47s-3,8.94.37,11.92,6.33,1.12,9.69.38,37.26-23.85,37.26-23.85c0,0,6,0,8.57-3s5.22-8.2,5.59-10.44c.28-1.35-.51-1.32-1.45-1.08h0Z"/>
    <g class="st1">
      <g>
        <path class="st12" d="M246.08,337.17c-2,1.34-3.87,2.88-5.57,4.59,0,0-31.14,18.69-38.68,20.32-2.88.69-5.89.67-8.77-.05-.16,2.19.68,4.34,2.28,5.85,3.35,3,6.33,1.12,9.69.38s37.26-23.85,37.26-23.85c0,0,6,0,8.57-3,1.37-1.64,2.56-3.42,3.54-5.32-2.84,1.17-6.7.16-8.32,1.08h0Z"/>
        <path class="st13" d="M246.08,337.17c-2,1.34-3.87,2.88-5.57,4.59,0,0-31.14,18.69-38.68,20.32-2.88.69-5.89.67-8.77-.05-.16,2.19.68,4.34,2.28,5.85,3.35,3,6.33,1.12,9.69.38s37.26-23.85,37.26-23.85c0,0,6,0,8.57-3,1.37-1.64,2.56-3.42,3.54-5.32-2.84,1.17-6.7.16-8.32,1.08h0Z"/>
      </g>
    </g>
    <path class="st7" d="M254.95,329.89c-2.42,1.2-7.36.12-7.36.12,0,0-2.3.11-4.65.43.42-.37.88-.69,1.38-.94,0,0,2.41-.86,3.44-1.38s.86-1.55.86-2.41-2.93.52-4,.52-4.82,1-5.85,3.27c-.44.86-.77,1.76-1,2.7-.4.47-.7,1.02-.86,1.62-.3,2.67-1,6.86-1,6.86,0,0-18.26,8.2-26.83,10.81,0,0-11.93,1.12-14.16,4.47s-3,8.94.37,11.92,6.33,1.12,9.69.38,37.26-23.85,37.26-23.85c0,0,6,0,8.57-3s5.22-8.2,5.59-10.44c.28-1.35-.51-1.32-1.45-1.08h0Z"/>
  </g>
</svg>