<?xml version="1.0" encoding="UTF-8"?>
<svg id="Layer_1" xmlns="http://www.w3.org/2000/svg" version="1.1" viewBox="0 0 500 500">
  <!-- Generator: Adobe Illustrator 29.5.0, SVG Export Plug-In . SVG Version: 2.1.0 Build 137)  -->
  <defs>
    <style>
      .st0, .st1, .st2, .st3, .st4, .st5, .st6, .st7, .st8, .st9, .st10, .st11, .st12, .st13 {
        stroke: #263238;
        stroke-linecap: round;
        stroke-linejoin: round;
      }

      .st0, .st5, .st7 {
        fill: #fff;
      }

      .st1 {
        fill: #5da48f;
      }

      .st14, .st4, .st8, .st10, .st13 {
        fill: #263238;
      }

      .st2 {
        stroke-width: 14px;
      }

      .st2, .st3, .st6, .st9, .st11 {
        fill: none;
      }

      .st3 {
        stroke-width: 7px;
      }

      .st4 {
        stroke-width: 1px;
      }

      .st5 {
        stroke-width: 1px;
      }

      .st6 {
        stroke-width: 2px;
      }

      .st7 {
        stroke-width: 1px;
      }

      .st8 {
        stroke-width: 1px;
      }

      .st9 {
        stroke-width: 5px;
      }

      .st10 {
        stroke-width: 1px;
      }

      .st12 {
        fill: #d6d6d6;
      }
    </style>
  </defs>
  <g id="freepik--Screen--inject-62">
    <path class="st13" d="M298,146.74s-3.7-1.31-4.54,2,4.06,4.54,4.66,4.54,1.55-.83.95-2.74-1.07-3.8-1.07-3.8Z"/>
    <path class="st13" d="M319,138.62s-.36,4.78-.36,6.69,2,2.63,3,2.63,1.44,2.27.84,4.66-2.63,3.82-7.53,3.82-7.88-2.15-8-3.7,1.07-8.25,3.11-10,8.94-4.1,8.94-4.1Z"/>
    <path class="st1" d="M301.11,153.31v1.85c0,.59.35,1.13.89,1.38.86.36,1.77.58,2.7.65,1.87,0,3.72-.41,5.42-1.2.48-.2.79-.68.79-1.2v-1.93c0-.4-.34-.71-.73-.71-.09,0-.18.02-.27.06l-.39.2s-5.9.75-8.41.9h0Z"/>
    <path class="st0" d="M298.49,137.66c-.65,2.63-1.1,5.3-1.32,8-.36,4.42,0,8.48,1.79,8.6,1.23,0,2.43-.34,3.47-1,0,0,4.18.48,5.61-.23l1.44-.72,1.07-7s.12-10.87-1.91-11.59-10.15,3.94-10.15,3.94Z"/>
    <path class="st11" d="M301.71,142.56l-.95,2.51s-1.92.48-1.68,1.43,1.51.81,1.51.81"/>
    <path class="st14" d="M304.78,143.65c-.19.52-.58.86-.85.76s-.35-.61-.15-1.14.58-.87.86-.76.36.65.14,1.14Z"/>
    <path class="st14" d="M300.28,142.44c-.2.53-.58.87-.86.77s-.34-.62-.15-1.14.58-.87.86-.77.34.62.15,1.14Z"/>
    <path class="st11" d="M303.86,140.29s2.27-.6,2.51,1.56"/>
    <path class="st11" d="M300.88,139.69s-2-.71-2.63,1"/>
    <line class="st11" x1="302.43" y1="153.31" x2="305.65" y2="152"/>
    <path class="st13" d="M300,132.16s-3.82-4.54-6.69-1.2-2,8.37,3.11,8.61,10.87-4.78,10.87-4.78c0,0-.6,6.57.83,8.84s2.51,3.82,2.51,3.82c0,0,2,1.31,5.38-1.31s4.18-9,1.79-13.27-6.57-6.69-11.59-5-6.21,4.29-6.21,4.29Z"/>
    <path class="st0" d="M308.28,147.34s4.3-3.94,4.3-1.67-2,4.3-3.58,3.82"/>
    <path class="st11" d="M299.08,149.16c1.16.83,2.72.83,3.88,0"/>
    <circle class="st11" cx="306.56" cy="142.88" r="20.19"/>
    <circle class="st11" cx="439.1" cy="286.35" r="21.34"/>
    <path class="st1" d="M446.38,292.64c0,3.92-3.18,7.1-7.1,7.1s-7.1-3.18-7.1-7.1,3.18-7.1,7.1-7.1,7.1,3.18,7.1,7.1h0Z"/>
    <path class="st0" d="M449.43,297.37c4.49-5.6,3.59-13.78-2.02-18.27-5.6-4.49-13.78-3.59-18.27,2.02-3.81,4.75-3.81,11.51,0,16.26h20.29,0Z"/>
    <path class="st1" d="M444.35,293.69h-10.46c-2.57,0-4.66-2.09-4.66-4.66h0c0-2.57,2.07-4.65,4.64-4.66h10.48c2.57,0,4.65,2.07,4.66,4.64v.02h0c0,2.57-2.09,4.66-4.66,4.66h0Z"/>
    <path class="st6" d="M431.37,288.65c.59-1.64,2.39-2.5,4.04-1.91.84.3,1.51.93,1.85,1.75"/>
    <path class="st6" d="M441.15,288.65c.59-1.64,2.39-2.5,4.04-1.91.84.3,1.51.93,1.85,1.75"/>
    <path class="st0" d="M437.57,290.81c.1.98.99,1.7,1.97,1.59.84-.09,1.5-.75,1.59-1.59h-3.56Z"/>
    <path class="st13" d="M456.09,291.55h0c-.75,0-1.36-.61-1.36-1.36v-3.09c0-.75.61-1.36,1.36-1.36h0c.75,0,1.36.61,1.36,1.36v3.06c.02.75-.58,1.37-1.33,1.39h-.03Z"/>
    <path class="st13" d="M422.11,291.55h0c-.75,0-1.36-.61-1.36-1.36v-3.09c0-.75.61-1.36,1.36-1.36h0c.75,0,1.36.61,1.36,1.36v3.06c.02.75-.58,1.37-1.33,1.39h-.03Z"/>
    <path class="st14" d="M424.62,287.29c-.79,0-1.42-.64-1.42-1.43v-2.24c0-2.43.72-4.8,2.08-6.81.39-.69,1.26-.93,1.95-.54s.93,1.26.54,1.95c-.04.06-.08.13-.13.19-1.04,1.54-1.59,3.35-1.59,5.21v2.24c0,.79-.64,1.43-1.43,1.43h0Z"/>
    <path class="st14" d="M452.24,278.33c-.24,0-.46-.12-.59-.32-1.86-2.78-4.99-4.44-8.33-4.43h-7.94c-3.34,0-6.47,1.65-8.33,4.43-.22.33-.67.41-1,.19s-.42-.66-.2-.98c0,0,0,0,.01-.02,2.13-3.17,5.69-5.06,9.51-5.06h7.94c3.82,0,7.39,1.9,9.52,5.07.22.32.14.76-.18.99,0,0-.01,0-.02,0-.12.08-.25.12-.39.12h0Z"/>
    <path class="st14" d="M454.08,287.29c-.79,0-1.43-.64-1.43-1.43v-2.24c0-1.86-.55-3.67-1.59-5.21-.48-.63-.36-1.52.26-2.01.63-.48,1.52-.36,2.01.26.04.05.07.1.1.15,1.36,2.01,2.08,4.38,2.07,6.8v2.24c0,.79-.63,1.42-1.42,1.43h0Z"/>
    <path class="st0" d="M424.8,293.57h0c-1.56,0-2.82-1.26-2.82-2.82h0v-4.48c0-1.56,1.26-2.82,2.82-2.82h0c1.56,0,2.82,1.26,2.82,2.82h0v4.48c0,1.56-1.26,2.82-2.82,2.82h0Z"/>
    <rect class="st1" x="424.51" y="283.45" width=".58" height="10.12"/>
    <path class="st0" d="M453.56,283.45h0c1.56,0,2.82,1.26,2.82,2.82v4.48c0,1.56-1.26,2.82-2.82,2.82h0c-1.56,0-2.82-1.26-2.82-2.82v-4.48c0-1.56,1.26-2.82,2.82-2.82Z"/>
    <rect class="st1" x="453.27" y="283.45" width=".58" height="10.12"/>
    <path class="st1" d="M439.33,282.53h0c2.02,0,3.9-1.03,5-2.72l1.23-1.91c-3.97-2.19-8.79-2.16-12.72.1l1.84,2.3c1.14,1.41,2.84,2.22,4.65,2.23Z"/>
    <circle class="st14" cx="439.43" cy="294.63" r=".21"/>
    <path class="st14" d="M439.64,295.36c0-.11-.1-.2-.21-.2s-.2.08-.21.19h0c0,.13.09.22.21.22s.21-.09.21-.21Z"/>
    <path class="st14" d="M438.81,295.25c.11-.03.17-.15.14-.26-.04-.11-.16-.17-.27-.14s-.17.15-.14.26c.04.11.16.17.27.14Z"/>
    <path class="st14" d="M440.12,295.25c.11-.03.17-.15.14-.26-.04-.11-.16-.17-.27-.14s-.17.14-.13.25h0c.03.12.15.18.26.15h0Z"/>
    <polygon class="st12" points="412.88 177.31 333.31 177.31 333.31 141.86 333.31 132.46 342.72 141.86 412.88 141.86 412.88 177.31"/>
    <polygon class="st12" points="412.88 228.66 333.31 228.66 333.31 193.22 333.31 183.82 342.72 193.22 412.88 193.22 412.88 228.66"/>
    <line class="st11" x1="386.44" y1="154.06" x2="405.17" y2="154.06"/>
    <line class="st11" x1="360.23" y1="154.06" x2="381.63" y2="154.06"/>
    <line class="st11" x1="344.18" y1="154.06" x2="356.48" y2="154.06"/>
    <line class="st11" x1="377.88" y1="159.95" x2="405.17" y2="159.95"/>
    <line class="st11" x1="344.18" y1="159.95" x2="373.07" y2="159.95"/>
    <line class="st11" x1="399.82" y1="165.83" x2="405.17" y2="165.83"/>
    <line class="st11" x1="369.86" y1="165.83" x2="395.54" y2="165.83"/>
    <line class="st11" x1="344.18" y1="165.83" x2="365.58" y2="165.83"/>
    <line class="st11" x1="386.44" y1="203.81" x2="405.17" y2="203.81"/>
    <line class="st11" x1="360.23" y1="203.81" x2="381.63" y2="203.81"/>
    <line class="st11" x1="344.18" y1="203.81" x2="356.48" y2="203.81"/>
    <line class="st11" x1="377.88" y1="209.7" x2="405.17" y2="209.7"/>
    <line class="st11" x1="344.18" y1="209.7" x2="373.07" y2="209.7"/>
    <line class="st11" x1="399.82" y1="215.58" x2="405.17" y2="215.58"/>
    <line class="st11" x1="369.86" y1="215.58" x2="395.54" y2="215.58"/>
    <line class="st11" x1="344.18" y1="215.58" x2="365.58" y2="215.58"/>
    <polygon class="st1" points="333.31 373.07 412.88 373.07 412.88 287.34 412.88 277.94 403.47 287.34 333.31 287.34 333.31 373.07"/>
    <line class="st11" x1="386.44" y1="299.04" x2="405.17" y2="299.04"/>
    <line class="st11" x1="360.23" y1="299.04" x2="381.63" y2="299.04"/>
    <line class="st11" x1="344.18" y1="299.04" x2="356.48" y2="299.04"/>
    <line class="st11" x1="377.88" y1="304.92" x2="405.17" y2="304.92"/>
    <line class="st11" x1="344.18" y1="304.92" x2="373.07" y2="304.92"/>
    <line class="st11" x1="399.82" y1="310.81" x2="405.17" y2="310.81"/>
    <line class="st11" x1="369.86" y1="310.81" x2="395.54" y2="310.81"/>
    <line class="st11" x1="344.18" y1="310.81" x2="365.58" y2="310.81"/>
    <line class="st11" x1="386.44" y1="315.62" x2="405.17" y2="315.62"/>
    <line class="st11" x1="360.23" y1="315.62" x2="381.63" y2="315.62"/>
    <line class="st11" x1="344.18" y1="315.62" x2="356.48" y2="315.62"/>
    <line class="st11" x1="377.88" y1="321.51" x2="405.17" y2="321.51"/>
    <line class="st11" x1="344.18" y1="321.51" x2="373.07" y2="321.51"/>
    <line class="st11" x1="399.82" y1="327.39" x2="405.17" y2="327.39"/>
    <line class="st11" x1="369.86" y1="327.39" x2="395.54" y2="327.39"/>
    <line class="st11" x1="344.18" y1="327.39" x2="365.58" y2="327.39"/>
    <line class="st11" x1="386.44" y1="332.21" x2="405.17" y2="332.21"/>
    <line class="st11" x1="360.23" y1="332.21" x2="381.63" y2="332.21"/>
    <line class="st11" x1="344.18" y1="332.21" x2="356.48" y2="332.21"/>
    <line class="st11" x1="377.88" y1="338.09" x2="405.17" y2="338.09"/>
    <line class="st11" x1="344.18" y1="338.09" x2="373.07" y2="338.09"/>
    <line class="st11" x1="399.82" y1="343.98" x2="405.17" y2="343.98"/>
    <line class="st11" x1="369.86" y1="343.98" x2="395.54" y2="343.98"/>
    <line class="st11" x1="344.18" y1="343.98" x2="365.58" y2="343.98"/>
    <line class="st11" x1="386.44" y1="348.79" x2="405.17" y2="348.79"/>
    <line class="st11" x1="360.23" y1="348.79" x2="381.63" y2="348.79"/>
    <line class="st11" x1="344.18" y1="348.79" x2="356.48" y2="348.79"/>
    <line class="st11" x1="377.88" y1="354.68" x2="405.17" y2="354.68"/>
    <line class="st11" x1="344.18" y1="354.68" x2="373.07" y2="354.68"/>
    <line class="st11" x1="399.82" y1="360.56" x2="405.17" y2="360.56"/>
    <line class="st11" x1="369.86" y1="360.56" x2="395.54" y2="360.56"/>
    <line class="st11" x1="344.18" y1="360.56" x2="365.58" y2="360.56"/>
    <circle class="st11" cx="439.1" cy="399.4" r="21.34"/>
    <path class="st1" d="M446.38,405.69c0,3.92-3.17,7.1-7.09,7.11-3.92,0-7.1-3.17-7.11-7.09,0-3.92,3.17-7.1,7.09-7.11h0c3.92,0,7.09,3.17,7.1,7.09h0Z"/>
    <path class="st0" d="M449.43,410.42c4.49-5.6,3.59-13.78-2.02-18.27s-13.78-3.59-18.27,2.02c-3.81,4.75-3.81,11.51,0,16.26h20.29,0Z"/>
    <path class="st1" d="M444.35,406.74h-10.46c-2.57,0-4.66-2.09-4.66-4.66h0c0-2.57,2.09-4.66,4.66-4.66h10.46c2.57,0,4.66,2.09,4.66,4.66h0c0,2.57-2.09,4.66-4.66,4.66h0Z"/>
    <path class="st6" d="M431.37,401.7c.59-1.64,2.39-2.5,4.04-1.91.84.3,1.51.93,1.85,1.75"/>
    <path class="st6" d="M441.15,401.7c.59-1.64,2.39-2.5,4.04-1.91.84.3,1.51.93,1.85,1.75"/>
    <path class="st0" d="M437.57,403.86c.1.98.99,1.7,1.97,1.59.84-.09,1.5-.75,1.59-1.59h-3.56Z"/>
    <path class="st13" d="M456.09,404.6h0c-.75,0-1.36-.61-1.36-1.36v-3.08c0-.75.61-1.36,1.36-1.36h0c.75,0,1.36.61,1.36,1.36v3.09c0,.75-.61,1.35-1.36,1.35h0Z"/>
    <path class="st13" d="M422.11,404.6h0c-.75,0-1.36-.61-1.36-1.36v-3.08c0-.75.61-1.36,1.36-1.36h0c.75,0,1.36.61,1.36,1.36v3.09c0,.75-.61,1.35-1.36,1.35h0Z"/>
    <path class="st14" d="M424.62,400.35c-.79,0-1.42-.64-1.42-1.43v-2.25c0-2.43.72-4.8,2.08-6.81.49-.62,1.39-.72,2.01-.22.55.44.7,1.21.35,1.82-1.04,1.54-1.59,3.35-1.59,5.21v2.25c0,.79-.64,1.43-1.43,1.43Z"/>
    <path class="st14" d="M452.24,391.38c-.24,0-.46-.12-.59-.31-1.86-2.78-4.99-4.45-8.33-4.44h-7.94c-3.34,0-6.46,1.66-8.33,4.43-.22.33-.66.41-.99.19s-.41-.66-.19-.99c2.13-3.17,5.69-5.06,9.51-5.06h7.94c3.82,0,7.39,1.9,9.52,5.07.22.32.14.76-.18.99,0,0-.01,0-.02.01-.12.08-.26.11-.4.11h0Z"/>
    <path class="st14" d="M454.08,400.35c-.79,0-1.43-.64-1.43-1.43v-2.25c0-1.85-.55-3.66-1.59-5.2-.45-.65-.3-1.54.35-1.99s1.54-.3,1.99.35c0,.01.02.03.03.04,1.36,2.01,2.08,4.38,2.07,6.8v2.25c0,.79-.63,1.42-1.42,1.43Z"/>
    <path class="st0" d="M424.8,406.63h0c-1.56,0-2.82-1.26-2.82-2.82h0v-4.49c0-1.56,1.26-2.82,2.82-2.82h0c1.56,0,2.82,1.26,2.82,2.82h0v4.49c0,1.56-1.26,2.81-2.82,2.82Z"/>
    <rect class="st1" x="424.51" y="396.5" width=".58" height="10.12"/>
    <path class="st0" d="M453.56,396.5h0c1.56,0,2.82,1.26,2.82,2.82v4.48c0,1.56-1.26,2.82-2.82,2.82h0c-1.56,0-2.82-1.26-2.82-2.82v-4.48c0-1.56,1.26-2.82,2.82-2.82Z"/>
    <rect class="st1" x="453.27" y="396.5" width=".58" height="10.12"/>
    <path class="st1" d="M439.33,395.58h0c2.02,0,3.9-1.03,5-2.72l1.23-1.9c-3.97-2.19-8.79-2.15-12.72.09l1.84,2.3c1.14,1.41,2.84,2.22,4.65,2.23Z"/>
    <circle class="st14" cx="439.43" cy="407.68" r=".21"/>
    <circle class="st14" cx="439.43" cy="408.42" r=".21"/>
    <path class="st14" d="M438.81,408.3c.11-.03.17-.15.14-.26-.04-.11-.16-.17-.27-.14-.11.04-.17.15-.14.26.03.11.15.18.26.14h0Z"/>
    <path class="st14" d="M440.12,408.3c.11-.03.17-.15.14-.26-.04-.11-.16-.17-.27-.14s-.17.14-.13.25h0c.03.12.14.18.24.16h.02Z"/>
    <polygon class="st1" points="333.31 450.99 412.88 450.99 412.88 400.39 412.88 390.99 403.47 400.39 333.31 400.39 333.31 450.99"/>
    <line class="st11" x1="386.44" y1="412.09" x2="405.17" y2="412.09"/>
    <line class="st11" x1="360.23" y1="412.09" x2="381.63" y2="412.09"/>
    <line class="st11" x1="344.18" y1="412.09" x2="356.48" y2="412.09"/>
    <line class="st11" x1="377.88" y1="417.98" x2="405.17" y2="417.98"/>
    <line class="st11" x1="344.18" y1="417.98" x2="373.07" y2="417.98"/>
    <line class="st11" x1="399.82" y1="423.86" x2="405.17" y2="423.86"/>
    <line class="st11" x1="369.86" y1="423.86" x2="395.54" y2="423.86"/>
    <line class="st11" x1="344.18" y1="423.86" x2="365.58" y2="423.86"/>
    <line class="st11" x1="386.44" y1="428.68" x2="405.17" y2="428.68"/>
    <line class="st11" x1="360.23" y1="428.68" x2="381.63" y2="428.68"/>
    <line class="st11" x1="344.18" y1="428.68" x2="356.48" y2="428.68"/>
    <line class="st11" x1="377.88" y1="434.56" x2="405.17" y2="434.56"/>
    <line class="st11" x1="344.18" y1="434.56" x2="373.07" y2="434.56"/>
    <line class="st11" x1="399.82" y1="440.44" x2="405.17" y2="440.44"/>
    <line class="st11" x1="369.86" y1="440.44" x2="395.54" y2="440.44"/>
    <line class="st11" x1="344.18" y1="440.44" x2="365.58" y2="440.44"/>
    <path class="st6" d="M453,94.74h-41.28c-.89,4.72-5.01,8.13-9.81,8.14h-59.1c-4.8,0-8.92-3.42-9.81-8.14h-41.23c-7.18,0-13,5.82-13,13v349c0,7.18,5.82,13,13,13h161.23c7.18,0,13-5.82,13-13h0V107.74c0-7.18-5.82-13-13-13h0Z"/>
    <path class="st6" d="M466,118.29v-10.54c0-7.18-5.82-13-13-13h-41.28c-.89,4.72-5.01,8.13-9.81,8.14h-59.1c-4.8,0-8.92-3.43-9.81-8.15h-41.23c-7.18,0-13,5.82-13,13v10.55h187.23Z"/>
    <path class="st14" d="M295.92,104.16c0,2.56-2.88,3.48-2.89,5.43v.13h2.79v.87h-3.72v-.73c0-2.7,2.9-3.28,2.9-5.7,0-.88-.29-1.34-1-1.34s-1,.5-1,1.25v.75h-.88v-.66c0-1.3.59-2.16,1.9-2.16s1.9.86,1.9,2.16h0Z"/>
    <path class="st14" d="M300.56,104.16v.22c.09.74-.32,1.44-1,1.74.69.3,1.1,1.02,1,1.76v.65c0,1.3-.61,2.15-1.91,2.15s-1.91-.85-1.91-2.15v-.58h.89v.64c0,.77.31,1.23,1,1.23s1-.45,1-1.31v-.65c0-.84-.36-1.24-1.07-1.27h-.56v-.84h.56c.55,0,1.01-.43,1.01-.99,0-.06,0-.12-.01-.18v-.42c0-.87-.31-1.32-1-1.32s-1,.47-1,1.24v.44h-.89v-.36c0-1.3.61-2.14,1.91-2.14s1.98.83,1.98,2.14h0Z"/>
    <path class="st14" d="M302.39,104.79v1.18h-.91v-1.18h.91ZM302.39,109.41v1.18h-.91v-1.18h.91Z"/>
    <path class="st14" d="M304.31,105.55c.25-.45.74-.72,1.26-.7,1.09,0,1.58.8,1.58,2v1.66c0,1.3-.62,2.15-1.92,2.15s-1.9-.85-1.9-2.15v-.57h.88v.63c0,.77.32,1.23,1,1.23s1-.46,1-1.23v-1.63c0-.77-.31-1.23-1-1.23-.5-.05-.95.32-1,.82v.28h-.89l.23-4.71h3.35v.85h-2.5l-.09,2.6Z"/>
    <path class="st14" d="M311.86,104.16v.15h-.86v-.22c0-.76-.32-1.21-1-1.21s-1,.46-1,1.37v1.91c.2-.58.76-.95,1.37-.91,1.09,0,1.58.78,1.58,2v1.28c0,1.3-.64,2.15-1.94,2.15s-2.01-.86-2.01-2.16v-4.36c0-1.35.6-2.19,1.95-2.19s1.91.87,1.91,2.19ZM308.94,107.33v1.27c0,.77.32,1.23,1,1.23s1-.46,1-1.23v-1.29c0-.76-.33-1.22-1-1.22s-1,.46-1,1.22v.02Z"/>
    <rect class="st14" x="414.27" y="104.51" width="2.4" height="5.99"/>
    <rect class="st14" x="417.47" y="103.31" width="2.4" height="7.19"/>
    <rect class="st14" x="420.66" y="102.46" width="2.4" height="8.04"/>
    <rect class="st14" x="423.86" y="100.97" width="2.4" height="9.53"/>
    <path class="st14" d="M455.91,110.33h-14.38v-8.78h14.38v8.78ZM442.33,109.54h12.78v-7.19h-12.78v7.19Z"/>
    <rect class="st14" x="443.53" y="103.22" width="7.59" height="5.45"/>
    <rect class="st14" x="455.41" y="104.91" width="1.81" height="2.07"/>
    <path class="st14" d="M436.26,108.42c-.09,0-.19-.02-.27-.07-2.93-1.74-4.86-.13-4.94-.06-.21.21-.55.21-.76,0-.21-.21-.21-.55,0-.76.02-.02.04-.04.06-.05.1-.09,2.58-2.21,6.2-.06.25.16.33.48.18.74-.1.16-.27.26-.46.26h-.01Z"/>
    <path class="st14" d="M437.34,106.62c-.1,0-.19-.03-.27-.08-4.23-2.51-7.08-.08-7.11-.06-.22.19-.56.17-.75-.05s-.17-.56.05-.75c0,0,3.46-3,8.36-.06.25.16.33.49.18.74-.1.16-.27.26-.46.26Z"/>
    <path class="st14" d="M438.33,104.53c-.1,0-.2-.03-.28-.08-5.36-3.18-8.92-.18-9.07-.05-.24.18-.58.13-.76-.11-.16-.21-.14-.51.05-.7.05,0,4.28-3.66,10.33-.06.26.15.34.48.19.74h0c-.1.16-.27.26-.46.26h0Z"/>
    <path class="st14" d="M434.64,109.32c0,.75-.59,1.35-1.34,1.36-.75,0-1.35-.59-1.36-1.34,0-.75.59-1.35,1.34-1.36h.02c.74,0,1.34.6,1.34,1.34Z"/>
  </g>
  <g id="freepik--Character--inject-62">
    <rect class="st13" x="156.4" y="351" width="15.28" height="132.8"/>
    <rect class="st13" x="50.52" y="399.09" width="60.9" height="9.34"/>
    <rect class="st13" x="47.44" y="366.85" width="9.34" height="37.37"/>
    <path class="st0" d="M60.67,404.38c0,4.72-3.83,8.55-8.55,8.55h-.84c-4.7-.47-8.14-4.66-7.68-9.36s4.66-8.14,9.36-7.68c3.57.35,6.55,2.9,7.45,6.38.17.69.26,1.4.26,2.11Z"/>
    <path class="st0" d="M61.3,372.61c0,4.72-3.84,8.54-8.56,8.55h-.84c-4.71-.45-8.16-4.63-7.7-9.34.45-4.71,4.63-8.16,9.34-7.7,3.58.34,6.56,2.88,7.47,6.36.19.69.29,1.41.3,2.13h0Z"/>
    <rect class="st4" x="64.62" y="352.44" width="14.14" height="5.44" transform="translate(-159.81 76.44) rotate(-28.3)"/>
    <path class="st0" d="M81.27,354.72l-6.13,3.3-3.92-7.27,6.14-3.31c2-1.09,4.5-.36,5.59,1.63.02.03.03.06.05.09h0c1.04,2.01.27,4.49-1.73,5.56Z"/>
    <polygon class="st13" points="54.4 323.89 53.96 349.25 48.53 349.16 48.96 323.8 54.4 323.89"/>
    <path class="st0" d="M55.87,322.36l-.11,7-8.26-.2.11-7c.04-2.28,1.92-4.1,4.2-4.06h0c2.28.03,4.09,1.9,4.06,4.18v.08h0Z"/>
    <polygon class="st13" points="74.72 333.09 62.79 355.47 57.99 352.92 69.91 330.54 74.72 333.09"/>
    <path class="st0" d="M76.72,332.4l-3.27,6.15-7.29-3.87,3.26-6.16c1.07-2.01,3.57-2.77,5.58-1.71h0c2.02,1.07,2.79,3.57,1.72,5.59Z"/>
    <polygon class="st13" points="35.12 332.99 46.94 355.43 42.13 357.97 30.31 335.53 35.12 332.99"/>
    <path class="st0" d="M46.21,349.26c-.49-2.9-3.23-4.85-6.13-4.36-2.9.49-4.85,3.23-4.36,6.13.49,2.9,3.23,4.85,6.13,4.36h0c2.89-.5,4.84-3.24,4.35-6.13h.01Z"/>
    <circle class="st0" cx="51.41" cy="344.64" r="5.32"/>
    <path class="st0" d="M68.77,347.71c.45-2.9-1.54-5.62-4.45-6.07-2.9-.45-5.62,1.54-6.07,4.45-.45,2.9,1.54,5.62,4.45,6.07h0c2.9.45,5.61-1.54,6.06-4.44h0s0-.01,0-.01Z"/>
    <path class="st0" d="M35.67,330.94l3.26,6.16-7.3,3.87-3.26-6.17c-1.07-2.01-.3-4.5,1.7-5.57h.02c2.02-1.06,4.51-.29,5.58,1.72h0Z"/>
    <path class="st0" d="M67.75,359.53c0,8.28-6.72,15-15,15h0c-.5,0-1,0-1.47-.06-8.24-.82-14.26-8.16-13.45-16.41s8.16-14.26,16.41-13.45c6.26.62,11.46,5.08,13.04,11.16.31,1.23.47,2.49.47,3.75h0Z"/>
    <path class="st0" d="M67.75,359.53c0,8.28-6.72,15-15,15h0c-.5,0-1,0-1.47-.06-2.08-8.02,2.74-16.2,10.76-18.28,1.24-.32,2.51-.48,3.79-.48.49,0,1,0,1.47.07.3,1.23.45,2.49.45,3.75Z"/>
    <circle class="st5" cx="123.57" cy="400.04" r="20.24"/>
    <circle class="st13" cx="123.56" cy="400.04" r="9.81"/>
    <path class="st0" d="M120.09,485.67h89.8l1.29-6.08c1.08-5.06-2.13-10.03-7.18-11.14-12.73-2.86-40.29-3.89-40.29-3.89-6.64.21-25.12,1-37.85,3.9-5.01,1.14-8.18,6.1-7.1,11.13l1.33,6.08h0Z"/>
    <path class="st1" d="M186.6,466.04c-11.5-1.06-22.86-1.48-22.86-1.48-4.18.13-13.06.5-22.24,1.48,2.68,9.15,11.76,15.89,22.55,15.89s19.87-6.77,22.55-15.89Z"/>
    <rect class="st10" x="231.56" y="390.39" width="9.34" height="60.9" transform="translate(-242.34 358.49) rotate(-53.27)"/>
    <rect class="st10" x="229.79" y="448.04" width="37.37" height="9.34" transform="translate(-262.95 381.11) rotate(-53.27)"/>
    <path class="st0" d="M252.87,432.48c2.83-3.79,8.2-4.57,11.99-1.74h0l.65.53c3.49,3.19,3.74,8.6.56,12.09-3.19,3.49-8.6,3.74-12.09.56-2.65-2.42-3.51-6.24-2.15-9.57.27-.66.62-1.29,1.04-1.87h0Z"/>
    <path class="st0" d="M233.34,456.41c2.64-3.92,7.96-4.96,11.88-2.32.23.15.45.32.67.49,3.65,3.01,4.16,8.4,1.15,12.05-3.01,3.65-8.4,4.16-12.05,1.15-2.77-2.29-3.82-6.06-2.62-9.45.24-.68.57-1.32.97-1.92h0Z"/>
    <rect class="st8" x="212.22" y="458.04" width="5.44" height="14.14" transform="translate(-268.95 633.55) rotate(-84.39)"/>
    <path class="st0" d="M206.78,460.16l6.94.68-.81,8.22-6.94-.68c-2.27-.22-3.93-2.24-3.71-4.51h0c.23-2.27,2.25-3.93,4.52-3.71Z"/>
    <path class="st0" d="M220.68,463.66c4.62-6.88,13.93-8.71,20.81-4.1,0,0,.02.01.03.02.41.28.8.57,1.18.88,6.39,5.28,7.28,14.73,2.01,21.12s-14.73,7.28-21.12,2.01c-4.85-4.01-6.68-10.62-4.59-16.56.41-1.19.98-2.32,1.68-3.37h0Z"/>
    <polygon class="st13" points="204.52 479.24 223.12 465.33 226.11 469.32 207.51 483.22 204.52 479.24"/>
    <path class="st0" d="M202.59,479.03l5.11-3.87,4.54,6-5.11,3.83c-1.67,1.25-4.04.91-5.29-.76h0c-1.2-1.65-.87-3.95.75-5.2h0Z"/>
    <path class="st0" d="M228.54,469.62c.66-2.86-1.13-5.72-3.99-6.38s-5.72,1.13-6.38,3.99,1.13,5.72,3.99,6.38h.04c2.85.63,5.68-1.15,6.34-4h0Z"/>
    <polygon class="st13" points="238.4 493.22 241.16 474.14 245.25 474.72 242.5 493.8 238.4 493.22"/>
    <path class="st0" d="M237.15,494.23l.75-5.25,6.21.89-.75,5.24c-.24,1.72-1.83,2.91-3.55,2.67h0c-1.71-.25-2.9-1.84-2.66-3.55h0Z"/>
    <path class="st0" d="M246.85,473.47c-1.32-2.05-4.04-2.65-6.09-1.33s-2.65,4.04-1.33,6.09c1.31,2.05,4.03,2.64,6.08,1.34,2.05-1.32,2.65-4.05,1.34-6.1Z"/>
    <polygon class="st13" points="219.99 490.68 232.39 471.04 236.6 473.68 224.21 493.33 219.99 490.68"/>
    <path class="st0" d="M218.12,491.16l3.39-5.4,6.41,4-3.4,5.41c-1.11,1.76-3.44,2.29-5.21,1.19h0c-1.76-1.11-2.29-3.43-1.19-5.2Z"/>
    <path class="st0" d="M239,473.1c-.41-2.9-3.1-4.92-6.01-4.51-2.9.41-4.92,3.1-4.51,6.01.41,2.9,3.1,4.92,6.01,4.51h.04c2.89-.43,4.89-3.11,4.47-6h0Z"/>
    <circle class="st7" cx="205.07" cy="400.39" r="20.24" transform="translate(-184.08 174.72) rotate(-32.77)"/>
    <circle class="st13" cx="205.08" cy="400.4" r="9.81"/>
    <circle class="st1" cx="164.04" cy="327.77" r="32.51"/>
    <path class="st0" d="M210.52,349.42c20.48-25.68,16.27-63.11-9.41-83.59s-63.11-16.27-83.59,9.41c-17.31,21.7-17.31,52.48,0,74.18h93Z"/>
    <rect class="st1" x="117.98" y="289.88" width="90.62" height="42.68" rx="8.18" ry="8.18"/>
    <path class="st9" d="M127.78,309.49c2.69-7.54,10.98-11.46,18.52-8.77,3.83,1.37,6.9,4.28,8.48,8.02"/>
    <path class="st9" d="M172.57,309.49c2.69-7.54,10.98-11.46,18.52-8.77,3.83,1.37,6.9,4.28,8.48,8.02"/>
    <path class="st0" d="M156.2,319.38c.57,4.5,4.68,7.68,9.18,7.11,3.72-.47,6.64-3.4,7.11-7.11h-16.29Z"/>
    <path class="st13" d="M241,322.76h0c-3.44,0-6.22-2.78-6.22-6.22h0v-14.15c0-3.44,2.77-6.22,6.21-6.23h0c3.44,0,6.22,2.77,6.23,6.21h0v14.16c0,3.44-2.77,6.22-6.21,6.23h-.02,0Z"/>
    <path class="st13" d="M85.38,322.76h0c-3.44,0-6.22-2.77-6.23-6.21h0v-14.16c0-3.44,2.77-6.22,6.21-6.23h.02c3.44,0,6.22,2.78,6.22,6.22h0v14.15c0,3.44-2.77,6.22-6.21,6.23,0,0-.01,0,0,0Z"/>
    <path class="st2" d="M105.32,258.91c-5.5,8.13-8.44,17.72-8.42,27.54v10.28"/>
    <path class="st3" d="M223.4,258.95c-9.14-13.62-24.47-21.79-40.88-21.79h-36.35c-16.38,0-31.7,8.13-40.85,21.72"/>
    <path class="st2" d="M231.78,296.73v-10.28c.02-9.8-2.9-19.38-8.38-27.5"/>
    <rect class="st0" x="84.78" y="285.66" width="25.82" height="46.37" rx="8.74" ry="8.74"/>
    <rect class="st1" x="96.38" y="285.66" width="2.63" height="46.37"/>
    <rect class="st0" x="216.5" y="285.66" width="25.82" height="46.37" rx="8.74" ry="8.74"/>
    <rect class="st1" x="228.1" y="285.66" width="2.63" height="46.37"/>
    <path class="st1" d="M164.25,281.45h0c9.26,0,17.88-4.69,22.91-12.46l5.64-8.73c-18.18-10.04-40.27-9.87-58.29.45l8.49,10.54c5.17,6.44,12.99,10.19,21.25,10.2h0Z"/>
    <path class="st14" d="M165.66,336.88c0-.55-.45-1-1-1s-1,.45-1,1,.45,1,1,1,1-.45,1-1Z"/>
    <path class="st14" d="M165.66,340.24c0-.55-.45-1-1-1s-1,.45-1,1,.45,1,1,1,1-.45,1-1Z"/>
    <path class="st14" d="M161.85,339.72c.46-.3.6-.92.3-1.38-.19-.29-.51-.46-.86-.46-.46.3-.6.92-.3,1.38.19.29.51.46.86.46Z"/>
    <path class="st14" d="M167.86,339.72c.55,0,.99-.47.98-1.02,0-.55-.47-.99-1.02-.98-.19,0-.37.06-.52.16-.55,0-.99.47-.98,1.02,0,.55.47.99,1.02.98.19,0,.37-.06.52-.16Z"/>
    <path class="st0" d="M204,374.4c-12.73-2.87-40.29-3.9-40.29-3.9-6.64.21-25.12,1-37.85,3.91-5.02,1.14-8.18,6.1-7.1,11.13l11.79,55.16c1.19,5.51,6.06,9.45,11.7,9.46h45.45c5.64-.01,10.51-3.95,11.7-9.46l11.78-55.16c1.08-5.06-2.13-10.03-7.18-11.14h0Z"/>
    <path class="st1" d="M198.2,373.34c-13.81-2.06-34.46-2.84-34.46-2.84-10.11.29-20.2,1.12-30.22,2.5l13.36,77.16h36.31l15.01-76.82h0Z"/>
    <rect class="st0" x="145.36" y="387.27" width="38.48" height="27.16" rx="8.18" ry="8.18"/>
    <rect class="st0" x="151.91" y="398.46" width="6.23" height="6.23"/>
    <rect class="st0" x="161.48" y="398.46" width="6.23" height="6.23"/>
    <rect class="st0" x="171.06" y="398.46" width="6.23" height="6.23"/>
  </g>
  <g id="freepik--Device--inject-62">
    <path class="st0" d="M77.06,432.72h110.84c2.76,0,5,2.24,5,5v62.27h-120.84v-62.27c0-2.76,2.24-5,5-5Z"/>
    <path class="st13" d="M192.9,455.1c-15.18,3.85-30.76,13.65-59.79,27.45-28,13.32-50.92,13.09-61.05,12.06v5.38h120.84v-44.89h0Z"/>
    <rect class="st0" x="72.06" y="496.26" width="120.84" height="3.74"/>
    <path class="st0" d="M138.71,466.36c0,3.44-2.79,6.23-6.23,6.23s-6.23-2.79-6.23-6.23,2.79-6.23,6.23-6.23,6.23,2.79,6.23,6.23h0Z"/>
  </g>
</svg>