<?xml version="1.0" encoding="UTF-8"?>
<svg id="Layer_1" xmlns="http://www.w3.org/2000/svg" version="1.1" viewBox="0 0 500 500">
  <!-- Generator: Adobe Illustrator 29.5.0, SVG Export Plug-In . SVG Version: 2.1.0 Build 137)  -->
  <defs>
    <style>
      .st0 {
        fill: #2e353a;
      }

      .st1, .st2, .st3, .st4, .st5, .st6, .st7 {
        fill: #fff;
      }

      .st2 {
        opacity: .6;
      }

      .st2, .st3, .st8, .st4, .st5, .st9, .st10, .st11, .st6, .st7 {
        isolation: isolate;
      }

      .st12, .st3, .st9 {
        opacity: .4;
      }

      .st8 {
        opacity: .1;
      }

      .st13 {
        fill: #a24e3f;
      }

      .st4, .st11, .st14 {
        opacity: .5;
      }

      .st5 {
        opacity: .7;
      }

      .st10, .st6 {
        opacity: .2;
      }

      .st15 {
        stroke: #2e353a;
        stroke-miterlimit: 10;
        stroke-width: 2px;
      }

      .st15, .st16 {
        fill: none;
      }

      .st16 {
        stroke: #fff;
        stroke-linecap: round;
        stroke-linejoin: round;
      }

      .st17 {
        fill: #a3f7cf;
      }

      .st7 {
        opacity: .8;
      }

      .st18 {
        fill: #b97964;
      }
    </style>
  </defs>
  <g id="freepik--exams-sheet--inject-13">
    <path class="st0" d="M381.66,465.2h-153.49c-3.6.06-6.56-2.82-6.62-6.42,0-.25,0-.5.03-.74l19.35-248.24c.36-4.01,3.69-7.09,7.71-7.16h153.48c3.61-.06,6.57,2.82,6.63,6.43,0,.24,0,.49-.03.73l-19.35,248.24c-.37,4-3.69,7.09-7.71,7.16Z"/>
    <path class="st6" d="M381.66,465.2h-153.49c-3.6.06-6.56-2.82-6.62-6.42,0-.25,0-.5.03-.74l19.35-248.24c.36-4.01,3.69-7.09,7.71-7.16h153.48c3.61-.06,6.57,2.82,6.63,6.43,0,.24,0,.49-.03.73l-19.35,248.24c-.37,4-3.69,7.09-7.71,7.16Z"/>
    <path class="st17" d="M360.87,218.87h-73.5c-1.26.02-2.3-.98-2.32-2.24,0-.09,0-.17.01-.26l1.13-14.51c.13-1.4,1.29-2.49,2.7-2.51h73.5c1.26-.02,2.29.99,2.31,2.25,0,.09,0,.17-.01.26l-1.13,14.47c-.11,1.41-1.27,2.51-2.69,2.54h0Z"/>
    <path class="st10" d="M360.87,218.87h-73.5c-1.26.02-2.3-.98-2.32-2.24,0-.09,0-.17.01-.26l1.13-14.51c.13-1.4,1.29-2.49,2.7-2.51h73.5c1.26-.02,2.29.99,2.31,2.25,0,.09,0,.17-.01.26l-1.13,14.47c-.11,1.41-1.27,2.51-2.69,2.54h0Z"/>
    <path class="st17" d="M331,203.86h-11.5l.45-5.76c.29-3.22,2.96-5.7,6.19-5.75h0c2.9-.05,5.29,2.27,5.33,5.17,0,.2,0,.39-.02.58l-.45,5.76Z"/>
    <path class="st3" d="M331,203.86h-11.5l.45-5.76c.29-3.22,2.96-5.7,6.19-5.75h0c2.9-.05,5.29,2.27,5.33,5.17,0,.2,0,.39-.02.58l-.45,5.76Z"/>
    <polygon class="st1" points="379.59 454.83 231.85 454.83 250.71 213 398.44 213 379.59 454.83"/>
    <path class="st17" d="M347.2,225.66h-47.2c-2.97.04-5.41-2.33-5.45-5.3,0-.2,0-.4.02-.6l.6-7.68c.3-3.3,3.04-5.84,6.35-5.9h47.21c2.98-.04,5.42,2.34,5.46,5.32,0,.2,0,.39-.02.58l-.6,7.68c-.31,3.3-3.05,5.84-6.37,5.9h0ZM301.34,208.19c-2.18.04-3.99,1.71-4.19,3.89l-.6,7.68c-.19,1.95,1.23,3.69,3.18,3.88.13,0,.26.02.4.02h47.22c2.19-.04,4-1.72,4.2-3.9l.6-7.68c.18-1.96-1.26-3.69-3.21-3.87-.12-.01-.25-.02-.38-.02h-47.22Z"/>
    <g class="st12">
      <path class="st1" d="M347.2,225.66h-47.2c-2.97.04-5.41-2.33-5.45-5.3,0-.2,0-.4.02-.6l.6-7.68c.3-3.3,3.04-5.84,6.35-5.9h47.21c2.98-.04,5.42,2.34,5.46,5.32,0,.2,0,.39-.02.58l-.6,7.68c-.31,3.3-3.05,5.84-6.37,5.9h0ZM301.34,208.19c-2.18.04-3.99,1.71-4.19,3.89l-.6,7.68c-.19,1.95,1.23,3.69,3.18,3.88.13,0,.26.02.4.02h47.22c2.19-.04,4-1.72,4.2-3.9l.6-7.68c.18-1.96-1.26-3.69-3.21-3.87-.12-.01-.25-.02-.38-.02h-47.22Z"/>
    </g>
    <path class="st17" d="M344.76,210.61h-40c-.69,0-1.26-.53-1.28-1.22v-.15l.31-4c.08-.77.72-1.36,1.49-1.37h40c.68-.01,1.25.53,1.27,1.21v.16l-.31,4c-.07.77-.71,1.36-1.48,1.37h0Z"/>
    <polygon class="st17" points="378.63 248.33 266.63 248.33 267.58 236.11 379.58 236.11 378.63 248.33"/>
    <polygon class="st17" points="333.3 265.34 258.74 265.34 258.99 262.19 333.55 262.19 333.3 265.34"/>
    <polygon class="st17" points="332.6 274.44 258.04 274.44 258.28 271.28 332.84 271.28 332.6 274.44"/>
    <polygon class="st17" points="331.89 283.54 257.33 283.54 257.57 280.38 332.13 280.38 331.89 283.54"/>
    <polygon class="st17" points="331.18 292.63 256.62 292.63 256.86 289.48 331.42 289.48 331.18 292.63"/>
    <polygon class="st17" points="380.1 292.63 349.68 292.63 352.06 262.19 382.48 262.19 380.1 292.63"/>
    <path class="st1" d="M371.68,273.49c.14-1.78-1.24-3-3.74-3-1.97-.09-3.87.72-5.16,2.2l-1.92-1.45c1.89-2.11,4.62-3.25,7.45-3.12,4,0,6.46,1.87,6.21,5-.36,4.65-5.31,5-5.59,8.61h-2.79c.35-4.4,5.29-5.04,5.54-8.24ZM365.4,286.22c.07-1.04.96-1.83,2-1.78.88-.03,1.62.65,1.65,1.53,0,.08,0,.17-.01.25-.08,1-.91,1.78-1.92,1.78-.89.07-1.66-.6-1.73-1.49v-.29h.01Z"/>
    <polygon class="st17" points="329.71 311.41 255.15 311.41 255.4 308.25 329.96 308.25 329.71 311.41"/>
    <polygon class="st17" points="329 320.5 254.44 320.5 254.69 317.35 329.25 317.35 329 320.5"/>
    <polygon class="st17" points="328.3 329.6 253.74 329.6 253.98 326.45 328.54 326.45 328.3 329.6"/>
    <polygon class="st17" points="327.59 338.7 253.03 338.7 253.27 335.54 327.83 335.54 327.59 338.7"/>
    <polygon class="st17" points="376.51 338.7 346.09 338.7 348.46 308.25 378.88 308.25 376.51 338.7"/>
    <path class="st1" d="M368.09,319.56c.14-1.79-1.24-3-3.74-3-1.97-.09-3.87.72-5.16,2.2l-1.92-1.43c1.89-2.11,4.62-3.26,7.45-3.12,4,0,6.46,1.87,6.21,5-.36,4.65-5.31,5-5.59,8.61h-2.79c.34-4.49,5.29-5.06,5.54-8.26h0ZM361.81,332.33c.07-1.02.93-1.81,1.95-1.79.88-.03,1.62.65,1.65,1.53,0,.09,0,.18-.01.26-.08,1-.92,1.77-1.92,1.78-.89.04-1.64-.65-1.68-1.54v-.24h.01Z"/>
    <polygon class="st17" points="326.12 357.47 251.56 357.47 251.81 354.32 326.37 354.32 326.12 357.47"/>
    <polygon class="st17" points="325.41 366.57 250.85 366.57 251.1 363.41 325.66 363.41 325.41 366.57"/>
    <polygon class="st17" points="324.7 375.67 250.15 375.67 250.39 372.51 324.95 372.51 324.7 375.67"/>
    <polygon class="st17" points="324 384.76 249.44 384.76 249.68 381.61 324.24 381.61 324 384.76"/>
    <polygon class="st17" points="372.92 384.76 342.5 384.76 344.87 354.32 375.29 354.32 372.92 384.76"/>
    <path class="st1" d="M364.5,365.62c.14-1.78-1.24-3-3.75-3-1.96-.09-3.86.72-5.15,2.2l-1.92-1.49c1.89-2.11,4.62-3.26,7.45-3.12,4,0,6.45,1.86,6.21,4.95-.36,4.66-5.31,5-5.59,8.61h-2.75c.3-4.33,5.25-4.95,5.5-8.15h0ZM358.22,378.33c.07-1.02.93-1.8,1.95-1.78.88-.03,1.62.65,1.65,1.53,0,.08,0,.17-.01.25-.08,1-.91,1.78-1.92,1.78-.88.04-1.63-.64-1.68-1.52v-.26h.01Z"/>
    <polygon class="st17" points="322.53 403.54 247.97 403.54 248.22 400.38 322.78 400.38 322.53 403.54"/>
    <polygon class="st17" points="321.82 412.64 247.26 412.64 247.51 409.48 322.07 409.48 321.82 412.64"/>
    <polygon class="st17" points="321.11 421.73 246.55 421.73 246.8 418.58 321.36 418.58 321.11 421.73"/>
    <polygon class="st17" points="320.4 430.83 245.84 430.83 246.09 427.67 320.65 427.67 320.4 430.83"/>
    <polygon class="st17" points="369.33 430.83 338.91 430.83 341.28 400.38 371.7 400.38 369.33 430.83"/>
    <path class="st1" d="M360.91,411.69c.14-1.79-1.24-3-3.75-3-1.96-.09-3.86.72-5.15,2.2l-1.92-1.45c1.89-2.11,4.62-3.26,7.45-3.12,4,0,6.45,1.87,6.21,5-.36,4.65-5.31,5-5.59,8.61h-2.79c.34-4.43,5.29-5.04,5.54-8.24ZM354.63,424.42c.07-1.02.93-1.81,1.95-1.79.88-.03,1.62.65,1.65,1.53,0,.09,0,.18-.01.26-.08,1-.92,1.77-1.92,1.78-.89.04-1.64-.65-1.68-1.54v-.24h.01Z"/>
    <polygon class="st5" points="378.63 248.33 266.63 248.33 267.58 236.11 379.58 236.11 378.63 248.33"/>
    <polygon class="st5" points="333.3 265.34 258.74 265.34 258.99 262.19 333.55 262.19 333.3 265.34"/>
    <polygon class="st5" points="332.6 274.44 258.04 274.44 258.28 271.28 332.84 271.28 332.6 274.44"/>
    <polygon class="st5" points="331.89 283.54 257.33 283.54 257.57 280.38 332.13 280.38 331.89 283.54"/>
    <polygon class="st5" points="331.18 292.63 256.62 292.63 256.86 289.48 331.42 289.48 331.18 292.63"/>
    <polygon class="st5" points="380.1 292.63 349.68 292.63 352.06 262.19 382.48 262.19 380.1 292.63"/>
    <polygon class="st5" points="329.71 311.41 255.15 311.41 255.4 308.25 329.96 308.25 329.71 311.41"/>
    <polygon class="st5" points="329 320.5 254.44 320.5 254.69 317.35 329.25 317.35 329 320.5"/>
    <polygon class="st5" points="328.3 329.6 253.74 329.6 253.98 326.45 328.54 326.45 328.3 329.6"/>
    <polygon class="st5" points="327.59 338.7 253.03 338.7 253.27 335.54 327.83 335.54 327.59 338.7"/>
    <polygon class="st5" points="376.51 338.7 346.09 338.7 348.46 308.25 378.88 308.25 376.51 338.7"/>
    <polygon class="st5" points="326.12 357.47 251.56 357.47 251.81 354.32 326.37 354.32 326.12 357.47"/>
    <polygon class="st5" points="325.41 366.57 250.85 366.57 251.1 363.41 325.66 363.41 325.41 366.57"/>
    <polygon class="st5" points="324.7 375.67 250.15 375.67 250.39 372.51 324.95 372.51 324.7 375.67"/>
    <polygon class="st5" points="324 384.76 249.44 384.76 249.68 381.61 324.24 381.61 324 384.76"/>
    <polygon class="st5" points="372.92 384.76 342.5 384.76 344.87 354.32 375.29 354.32 372.92 384.76"/>
    <polygon class="st5" points="322.53 403.54 247.97 403.54 248.22 400.38 322.78 400.38 322.53 403.54"/>
    <polygon class="st5" points="321.82 412.64 247.26 412.64 247.51 409.48 322.07 409.48 321.82 412.64"/>
    <polygon class="st5" points="321.11 421.73 246.55 421.73 246.8 418.58 321.36 418.58 321.11 421.73"/>
    <polygon class="st5" points="320.4 430.83 245.84 430.83 246.09 427.67 320.65 427.67 320.4 430.83"/>
    <polygon class="st5" points="369.33 430.83 338.91 430.83 341.28 400.38 371.7 400.38 369.33 430.83"/>
  </g>
  <g id="freepik--Chair--inject-13">
    <path class="st17" d="M200,339.33v27.54c0,5.43-2.09,10.65-5.85,14.57l-25.7,26.89h14.55l26.7-26.28c4.02-3.96,6.29-9.36,6.3-15v-27.72h-16Z"/>
    <path class="st3" d="M216,339.33v27.69c0,1.55-.17,3.1-.52,4.61-.88,3.96-2.88,7.58-5.78,10.42l-26.7,26.28h-14.55l25.7-26.89c3.76-3.92,5.86-9.14,5.85-14.57v-27.54h16Z"/>
    <path class="st10" d="M216,339.33v27.69c0,1.55-.17,3.1-.52,4.61l-15.48-6.25v-26.05h16Z"/>
    <path class="st17" d="M158.34,411.33l-21.54,82.06c-.4,1.54-1.78,2.61-3.37,2.61h-38.49c-.64,0-1.25-.3-1.64-.81s-.53-1.17-.36-1.79l21.55-82.07h-4.14l-21.28,81.05c-.85,3.26,1.11,6.58,4.36,7.42.49.13,1,.19,1.51.2h38.49c3.4,0,6.38-2.3,7.24-5.59l21.8-83.08h-4.13Z"/>
    <g class="st9">
      <path class="st1" d="M158.34,411.33l-21.54,82.06c-.4,1.54-1.78,2.61-3.37,2.61h-38.49c-.64,0-1.25-.3-1.64-.81s-.53-1.17-.36-1.79l21.55-82.07h-4.14l-21.28,81.05c-.85,3.26,1.11,6.58,4.36,7.42.49.13,1,.19,1.51.2h38.49c3.4,0,6.38-2.3,7.24-5.59l21.8-83.08h-4.13Z"/>
    </g>
    <polygon class="st17" points="167.15 500 143.6 410.2 139.73 411.21 163.01 500 167.15 500"/>
    <polygon class="st17" points="215.15 500 191.6 410.2 187.73 411.21 211.01 500 215.15 500"/>
    <g class="st14">
      <polygon class="st1" points="167.15 500 143.6 410.2 139.73 411.21 163.01 500 167.15 500"/>
    </g>
    <g class="st14">
      <polygon class="st1" points="215.15 500 191.6 410.2 187.73 411.21 211.01 500 215.15 500"/>
    </g>
    <polygon class="st10" points="110.35 411.33 114.49 411.33 111.24 423.7 107.41 422.53 110.35 411.33"/>
    <polygon class="st10" points="143.6 410.2 148.95 430.61 144.46 429.25 139.73 411.21 143.6 410.2"/>
    <polygon class="st10" points="158.34 411.33 162.47 411.33 155.69 437.23 151.85 436.06 158.34 411.33"/>
    <polygon class="st10" points="201.05 446.48 196.54 445.1 187.73 411.46 191.6 410.36 201.05 446.48"/>
    <path class="st17" d="M106.7,412.7l-18.7-101.23-.25-1.53c-.37-1.91.12-3.9,1.35-5.41,1.19-1.42,2.96-2.23,4.81-2.2h40.48c3.95.19,7.27,3.04,8.06,6.92l.3,1.71,18.69,101-3.94.72-18.75-101.3-.24-1.42c-.43-1.98-2.1-3.46-4.12-3.63h-40.52c-.67-.03-1.31.25-1.74.76-.47.62-.65,1.41-.48,2.17l.28,1.68,18.71,101s-3.94.76-3.94.76Z"/>
    <g class="st11">
      <path class="st1" d="M106.7,412.7l-18.7-101.23-.25-1.53c-.37-1.91.12-3.9,1.35-5.41,1.19-1.42,2.96-2.23,4.81-2.2h40.48c3.95.19,7.27,3.04,8.06,6.92l.3,1.71,18.69,101-3.94.72-18.75-101.3-.24-1.42c-.43-1.98-2.1-3.46-4.12-3.63h-40.52c-.67-.03-1.31.25-1.74.76-.47.62-.65,1.41-.48,2.17l.28,1.68,18.71,101s-3.94.76-3.94.76Z"/>
    </g>
    <path class="st17" d="M114.88,402.66h76.93c2.76,0,5,2.24,5,5v6.67h-86.93v-6.69c.01-2.75,2.25-4.98,5-4.98Z"/>
    <rect class="st17" x="106.67" y="408.51" width="93.35" height="5.84" rx="2.01" ry="2.01"/>
    <rect class="st2" x="106.67" y="408.51" width="93.35" height="5.84" rx="2.01" ry="2.01"/>
    <polygon class="st17" points="148.33 352.33 97.5 352.33 89.92 311.33 140.74 311.33 148.26 351.95 148.33 352.33"/>
  </g>
  <g id="freepik--Character--inject-13">
    <g id="freepik--group--inject-13">
      <path class="st18" d="M198.33,264.96s-6.39-14.84-6.94-16.43.1-9.62-.39-11-7.91-2.37-9.48-2.19-.19,12.6.46,13.58c.85,1.01,1.8,1.92,2.85,2.72l5.65,17,7.85-3.68h0Z"/>
      <path class="st17" d="M166,292.97c4.36.69,22.21,3.27,26.2.61,3.22-2.15-5.85-37-5.85-37l8.07-3.29s19.17,42.22,8.93,51.86c-5.2,4.9-19.82,6.14-40.85,6.14l3.5-18.32h0Z"/>
      <path class="st7" d="M166,292.97c4.36.69,22.21,3.27,26.2.61,3.22-2.15-5.85-37-5.85-37l8.07-3.29s19.17,42.22,8.93,51.86c-5.2,4.9-19.82,6.14-40.85,6.14l3.5-18.32h0Z"/>
      <path class="st8" d="M173.39,311.19c-3.1.09-6.41.13-9.89.13l3-11.49c3.25,3.12,5.63,7.04,6.89,11.36Z"/>
      <line class="st15" x1="191.17" y1="317.32" x2="212.33" y2="339.7"/>
      <path class="st18" d="M176,330.5s16.15-.5,17.83-.67,8.67-4.17,10.17-4.33,5.5,6.16,6,7.66-11.33,5.5-12.5,5.34c-1.27-.35-2.5-.83-3.67-1.44l-17.83,2.1v-8.66h0Z"/>
      <polygon class="st18" points="166.5 492.16 174.47 491.07 175.57 472.13 167.62 473.23 166.5 492.16"/>
      <path class="st0" d="M175.07,490.11l-9-.57c-.31-.02-.59.2-.63.51h0l-.88,7.1c-.05.78.53,1.45,1.31,1.5,3.14.15,4.65.06,8.61.28,2.44.14,7.23.66,10.58.33s2.94-3.63,1.5-3.79c-3.44-.39-8-2.91-10.14-4.83-.38-.32-.85-.51-1.35-.53h0Z"/>
      <path class="st17" d="M177.83,491.65c-.72-.06-1.43-.21-2.12-.42-.07-.02-.13-.08-.14-.15,0-.07.03-.15.09-.19.27-.16,2.64-1.57,3.6-1.13.22.11.37.32.39.56.1.36,0,.75-.29,1-.45.3-1,.42-1.53.33h0ZM179.1,490.14c-.51-.24-1.89.35-2.86.88,1.42.37,2.47.39,2.88.05.17-.18.23-.43.17-.66,0-.12-.08-.22-.19-.27Z"/>
      <path class="st17" d="M175.75,491.23h-.08c-.05-.04-.09-.09-.1-.15,0-.07,0-2.42.82-3.15.23-.19.53-.26.82-.21.33.03.59.28.64.6.13.89-1.17,2.49-2,2.91-.03.01-.07.01-.1,0h0ZM177.05,488.11c-.15-.01-.3.04-.41.15-.52.43-.65,1.75-.68,2.5.78-.57,1.32-1.4,1.52-2.34,0-.11-.07-.25-.34-.3h-.09Z"/>
      <polygon class="st10" points="167.62 473.23 175.57 472.14 174.94 482.96 167 483.66 167.62 473.23"/>
      <path class="st0" d="M166.82,380.84l-1.94-12.18-44.66-2.67s-4.75,25.34-1.1,32.09c6.51,12.05,41.62,6,51.89,7.15-6.14,25.11-5.54,74.18-5.54,74.18l14.67,1.12s11.29-52.87,13.57-78c1.54-16.95-12.51-16.53-26.89-21.69h0Z"/>
      <polygon class="st17" points="163.75 480.1 181.38 481.26 182.89 473.71 163.52 472.81 163.75 480.1"/>
      <polygon class="st18" points="184.88 485.09 192.9 485.68 197.92 467.39 189.91 466.81 184.88 485.09"/>
      <path class="st0" d="M193.69,484.86l-8.69-2.42c-.3-.1-.62.06-.72.36h0l-2.34,6.76c-.21.76.23,1.54.99,1.75h0c3,.79,4.53,1,8.36,2.06,2.35.65,6.93,2.15,10.28,2.53s3.63-2.94,2.25-3.39c-3.28-1.1-7.2-4.52-8.91-6.84-.31-.4-.74-.69-1.23-.81h0Z"/>
      <path class="st17" d="M196.07,486.95c-.7-.21-1.37-.5-2-.86-.07-.03-.11-.1-.1-.17,0-.07.05-.14.12-.17.29-.1,2.91-1,3.75-.35.2.15.3.39.28.63.03.39-.17.75-.51.94-.5.19-1.05.18-1.54-.02ZM197.62,485.73c-.45-.34-1.92,0-3,.27,1.31.66,2.34.9,2.8.65.2-.13.32-.37.31-.61.02-.12-.03-.24-.13-.31h.02Z"/>
      <path class="st17" d="M194.12,486.11h-.12s-.07-.11-.06-.17c0-.07.47-2.37,1.45-2.91.27-.12.57-.12.84,0,.32.1.53.4.51.73-.07.89-1.67,2.19-2.57,2.43-.03-.02-.04-.05-.05-.08h0ZM196,483.33c-.15-.04-.3-.02-.43.06-.6.32-1,1.58-1.19,2.31.82-.38,1.9-1.39,2-2,0-.11,0-.25-.27-.35l-.11-.02Z"/>
      <polygon class="st10" points="189.91 466.81 197.92 467.4 195.05 477.85 187.13 476.88 189.91 466.81"/>
      <path class="st0" d="M200.64,476.56l-14.12-4.15s8.48-47.58,16.98-64.08c-.64-.21-1.49-.48-2.54-.79-1.89-.57-4.4-1.28-7.35-2.1-20.52-5.69-62.11-16.36-62.11-16.36l19-17.73s75.68,11.54,77.25,31.48c.75,9.59-27.11,73.73-27.11,73.73Z"/>
      <polygon class="st17" points="184.7 472.72 201.7 477.53 204.75 470.46 185.99 465.54 184.7 472.72"/>
      <path class="st10" d="M201,407.54c-1.89-.57-4.4-1.28-7.35-2.1.59-4.84.6-10.39-1.73-13.22-4.63-5.64-16.54-8.95-23.32-10.15-5.67-1-24.72-3-24.72-3,0,0,24.72-2.37,50,5,12.44,3.66,10.01,15.87,7.12,23.47Z"/>
      <path class="st17" d="M166,292.97s6.48,24-1.09,75.69c-14.11-.3-37.82-.85-44.69-1-.17-7.2,5.14-42.48-1.07-76.51,4.47-.77,8.99-1.22,13.53-1.34,6.64-.24,13.29-.09,19.91.43,4.53.56,9.02,1.48,13.41,2.73h0Z"/>
      <path class="st5" d="M166,292.97s6.48,24-1.09,75.69c-14.11-.3-37.82-.85-44.69-1-.17-7.2,5.14-42.48-1.07-76.51,4.47-.77,8.99-1.22,13.53-1.34,6.64-.24,13.29-.09,19.91.43,4.53.56,9.02,1.48,13.41,2.73h0Z"/>
      <path class="st8" d="M134.83,335c-4-.88-8.77-4.73-12.7-8.53,0-6.76-.33-13.95-1.06-21.28,5.56,8.23,20.62,31.32,13.76,29.81Z"/>
      <path class="st17" d="M119.12,291.15c-15.29,5.51,11.55,46.91,19.88,51.18s50.67-4.67,50.67-4.67l-1.67-8.56s-37.46.95-40.91.08-11.65-18.52-16.37-26.85c-2.62-4.83-6.67-8.74-11.6-11.18Z"/>
      <path class="st7" d="M119.12,291.15c-15.29,5.51,11.55,46.91,19.88,51.18s50.67-4.67,50.67-4.67l-1.67-8.56s-37.46.95-40.91.08-11.65-18.52-16.37-26.85c-2.62-4.83-6.67-8.74-11.6-11.18Z"/>
      <polygon class="st17" points="185 328.33 187.17 339.7 191.17 338.33 189.67 328.33 185 328.33"/>
      <polygon class="st5" points="185 328.33 187.17 339.7 191.17 338.33 189.67 328.33 185 328.33"/>
      <polygon class="st17" points="186.08 259.11 196.84 254.85 194.75 251.18 185.2 254.52 186.08 259.11"/>
      <polygon class="st5" points="186.08 259.11 196.84 254.85 194.75 251.18 185.2 254.52 186.08 259.11"/>
      <path class="st8" d="M130.24,289.91s.29,4.67,9.46,9.17l6.34-4.59s1.81,11.72,3,20.47c0,0-.08-14-1.28-19.38l4.85,1.72s-4.13-7.09-11.16-8.72-11.21,1.33-11.21,1.33Z"/>
      <path class="st18" d="M135.1,267.49c1.12,6.43,2.12,18.19-2.45,22.37l13.35,3.72,6.52-3.29c-7.11-1.86-6.81-7.16-5.46-12.11l-11.96-10.69Z"/>
      <path class="st10" d="M140,271.85l7.1,6.33c-.33,1.15-.56,2.33-.69,3.52-2.72-.45-6.4-3.53-6.63-6.39-.14-1.16-.07-2.33.22-3.46Z"/>
      <path class="st0" d="M144.57,249.62c-2.91,3.16-.4,6.77,8.89,11.16,2.21-4.87.86-13-2.14-14.42s-4.21.52-6.75,3.26Z"/>
      <path class="st18" d="M131.2,259.56c2.36,8.37,3.32,13.38,8.54,16.81,7.86,5.15,17.49-1,17.68-9.91.16-8-3.72-20.35-12.75-21.92-6.45-1.15-12.61,3.14-13.76,9.59-.32,1.8-.22,3.65.29,5.41v.02h0Z"/>
      <path class="st0" d="M144.37,259.14c.15.69.64,1.17,1.09,1.07s.69-.73.54-1.42-.63-1.17-1.08-1.08-.65.74-.55,1.43h0Z"/>
      <path class="st0" d="M152.22,257.45c.15.69.64,1.17,1.09,1.07s.7-.73.55-1.43-.64-1.17-1.09-1.07-.7.74-.55,1.43Z"/>
      <path class="st13" d="M149.73,258.33c1.28,1.93,2.82,3.68,4.58,5.19-.81.89-1.97,1.38-3.17,1.33l-1.41-6.52Z"/>
      <path class="st0" d="M141.69,257.13c-.2.08-.43-.03-.5-.23-.04-.11-.03-.22.02-.32.53-1.23,1.63-2.12,2.94-2.39.22-.04.42.1.47.32h0c.02.22-.13.43-.35.47h0c-1.03.23-1.89.94-2.3,1.91-.05.12-.15.21-.28.24h0Z"/>
      <path class="st0" d="M155.22,254.03c-.16.04-.32-.02-.42-.15-.63-.85-1.62-1.34-2.68-1.34-.23.02-.43-.15-.45-.38,0-.22.15-.42.37-.45,1.34-.03,2.61.59,3.41,1.66.14.18.11.44-.07.58h0s-.1.07-.16.08h0Z"/>
      <path class="st0" d="M133,251.33c4.26.5,4.7,4.88.5,14.25-4.85-2.26-9.12-9.32-7.75-12.34s3.48-2.36,7.25-1.91Z"/>
      <path class="st18" d="M128.63,267.22c1.03,1.93,2.79,3.37,4.89,4,2.78.81,4.2-1.67,3.46-4.31-.67-2.38-2.93-5.67-5.73-5.32s-3.88,3.26-2.62,5.63h0Z"/>
      <path class="st0" d="M126.08,252.52s-2.11-2.72,2-8.16,14.15-7.11,21.85-5.61,3.12,10,.37,11.41l.34-1.33c-2.94,1.54-6.18,2.42-9.5,2.58l1.52-1.41s-12.08,3.13-16.58,2.52Z"/>
      <path class="st0" d="M150.63,267.15c-.17,1.03-.27,2.07-.29,3.11l-.54.08c-2.48.33-3.73-.34-4.37-1.17-.3-.42-.51-.9-.59-1.41-.04-.29-.04-.58,0-.87,1.62.48,3.33.6,5,.36.46-.04.79-.1.79-.1h0Z"/>
      <path class="st1" d="M149.78,267.25l-.11.92c-2.32.3-4,.2-4.83-.41-.04-.29-.04-.58,0-.87,1.6.47,3.29.59,4.94.36Z"/>
      <path class="st13" d="M149.8,270.33c-2.48.33-3.73-.34-4.37-1.17.94-.11,1.89-.05,2.81.18.61.16,1.16.5,1.56.99Z"/>
      <path class="st17" d="M135,285.91s7.22,5.42,11,6.67c0,0,1.78-3.34,1.05-6.1l5.47,3.81c.61,2.29.61,4.71,0,7l-6.52-3.71-6.16,4.5s-9.11-2.64-9.64-8.17l4.8-4h0Z"/>
      <path class="st7" d="M135,285.91s7.22,5.42,11,6.67c0,0,1.78-3.34,1.05-6.1l5.47,3.81c.61,2.29.61,4.71,0,7l-6.52-3.71-6.16,4.5s-9.11-2.64-9.64-8.17l4.8-4h0Z"/>
    </g>
    <rect class="st17" x="153.33" y="337.2" width="102.01" height="5.27" rx="1.17" ry="1.17"/>
    <path class="st4" d="M255,338.23v2.93c0,.65-.18,1.17-.82,1.17h-99.68c-.65,0-1.5-.52-1.5-1.17v-2.93c0-.64.85-.9,1.5-.9h99.68c.64,0,.82.26.82.9Z"/>
    <path class="st10" d="M195,338.23v2.93c0,.65-.22,1.17-.86,1.17h-39.64c-.65,0-1.5-.52-1.5-1.17v-2.93c0-.64.85-.9,1.5-.9h39.64c.64,0,.86.26.86.9Z"/>
  </g>
  <g id="freepik--Lightbulb--inject-13">
    <path class="st17" d="M172.36,191.46c-2.81-10.18-13.34-16.16-23.53-13.35s-16.16,13.34-13.35,23.53c1.55,5.63,5.59,10.24,10.97,12.52,1.28.53,2.31,1.52,2.89,2.78l.65,1.47,18.41-5-.19-1.6c-.13-1.39.26-2.77,1.09-3.89,3.48-4.73,4.6-10.79,3.06-16.46h0Z"/>
    <path class="st16" d="M156,218.45s-2.77-8.69-7.66-12.54l2.71-.74.21-4.17,4.43,6.41-.36-7.8,4.37,7.11.44-4,3.87-1c-2.12,4.76-2.5,10.1-1.07,15.11"/>
    <path class="st0" d="M159.48,216.99c-3.26.89-5.08,4.64-4.06,8.37s4.48,6,7.74,5.14,5.07-4.63,4.06-8.36-4.48-6.03-7.74-5.15Z"/>
    <path class="st17" d="M165.76,227.07l-6.56,1.79c-3.25.88-6.63-.89-7.76-4.06l-2.15-6.07c-.17-.48.08-1.01.56-1.18.02,0,.05-.02.07-.02l18.08-4.93c.49-.14,1,.15,1.13.64,0,.03,0,.05.02.08l1.23,6.31c.64,3.31-1.37,6.55-4.62,7.44h0Z"/>
    <path class="st3" d="M165.76,227.07l-6.56,1.79c-3.25.88-6.63-.89-7.76-4.06l-2.15-6.07c-.17-.48.08-1.01.56-1.18.02,0,.05-.02.07-.02l18.08-4.93c.49-.14,1,.15,1.13.64,0,.03,0,.05.02.08l1.23,6.31c.64,3.31-1.37,6.55-4.62,7.44h0Z"/>
    <path class="st17" d="M128.38,210.58c-1.79-.33-3.61-.5-5.43-.51-.91,0-1.81.04-2.71.15-.45.07-.9.12-1.33.23-.22.06-.44.09-.65.17l-.63.2-.72.23.43-.63c1.21-1.8,2.18-3.75,2.87-5.8.34-1.02.59-2.07.75-3.13.08-.53.12-1.06.14-1.59.03-.53.03-1.06,0-1.59-.04-.52-.11-1.05-.22-1.56l-.19-.76-.25-.75c-.18-.49-.39-.97-.65-1.42-.25-.46-.52-.9-.83-1.32-.31-.42-.64-.82-1-1.2l-.55-.56-.6-.52c-.39-.36-.85-.64-1.26-1s-.9-.56-1.35-.85l-1-.66,1.11-.53c.53-.26,1.09-.57,1.62-.89s1.06-.65,1.58-1c1.03-.7,2.01-1.48,2.93-2.32.45-.42.89-.85,1.32-1.3s.82-.93,1.19-1.41.73-1,1-1.51c.32-.51.61-1.04.87-1.59.26-.54.49-1.11.68-1.68l.26-.86.19-.89c.11-.59.18-1.18.2-1.78.05-1.21-.05-2.41-.32-3.59l-.2-.89-.28-.87c-.17-.59-.44-1.14-.66-1.71s-.54-1.1-.81-1.66l-1.43-3,2.74,1.76c.48.32,1,.63,1.57.92s1.1.57,1.66.82c1.12.52,2.26.97,3.44,1.33.59.17,1.18.33,1.77.46.59.13,1.19.23,1.79.3.59.08,1.19.11,1.79.11s1.18-.04,1.77-.12l.86-.15.85-.23c.55-.18,1.08-.4,1.6-.66.26-.12.5-.27.74-.43.25-.15.49-.31.71-.5.46-.36.89-.74,1.3-1.16.4-.43.77-.89,1.11-1.37.35-.48.67-.99.95-1.52.31-.51.52-1.09.79-1.63s.43-1.14.65-1.71l1.25-3.28.62,3.42c.1.56.25,1.11.43,1.65.53,1.67,1.33,3.24,2.38,4.65.69.92,1.51,1.73,2.43,2.42.45.35.94.65,1.44.92s1.03.51,1.57.7c.54.19,1.1.34,1.66.46.57.11,1.15.2,1.73.24.58.03,1.17.03,1.75,0,.59,0,1.18-.08,1.77-.13s1.18-.19,1.76-.28l1.75-.42,1.73-.52,1.71-.61,2.37-.85-1.36,2.11c-.25.37-.5.82-.73,1.25s-.44.87-.64,1.33c-.39.9-.7,1.83-.93,2.78-.22.94-.33,1.9-.33,2.87,0,.95.18,1.89.49,2.78l.27.66.34.73c.24.41.52.79.83,1.15s.64.69,1,1c.37.32.76.62,1.17.89.41.28.83.53,1.26.76.43.24.89.42,1.34.64l1.4.53,1.44.45,1,.32-.84.65c-.57.44-1.1.92-1.59,1.44-.5.52-.96,1.08-1.38,1.66-.23.29-.41.6-.61.9-.19.3-.37.62-.52.94-.18.32-.32.65-.44,1-.14.32-.25.66-.33,1-.07.35-.19.69-.23,1l-.1,1.07c0,.36,0,.72.06,1.08.02.36.08.71.18,1.06.07.34.16.68.28,1l.41,1c.14.35.31.68.51,1l.56,1,.21.35h-.39c-1.48,0-2.95.2-4.38.58-.72.19-1.41.46-2.06.81-.16.09-.32.18-.47.29-.16.09-.31.2-.45.33-.15.11-.29.23-.42.36l-.39.41.37-.43c.12-.14.25-.27.4-.39.14-.13.28-.25.44-.36.15-.1.3-.22.46-.31.65-.39,1.33-.7,2.05-.94,1.44-.47,2.94-.73,4.45-.79l-.17.35-.62-1c-.23-.31-.42-.65-.58-1l-.47-1c-.15-.35-.26-.72-.34-1.1-.12-.37-.21-.75-.24-1.13,0-.38-.09-.77-.1-1.15v-1.17c0-.38.14-.76.2-1.14.08-.38.18-.76.32-1.12.11-.37.25-.73.43-1.08.15-.34.32-.68.52-1,.18-.34.38-.68.6-1,.43-.64.91-1.24,1.43-1.81.52-.58,1.09-1.12,1.69-1.61l.19,1-1.51-.43-1.49-.53c-.49-.21-1-.4-1.46-.65-.48-.23-.94-.5-1.39-.79-.46-.29-.89-.6-1.31-.95-.41-.35-.79-.73-1.14-1.14-.37-.41-.71-.86-1-1.33l-.41-.72-.33-.77c-.38-1.02-.6-2.09-.64-3.18-.04-1.09.06-2.18.29-3.25.22-1.05.54-2.08.94-3.07.2-.5.42-1,.66-1.46s.49-.94.8-1.43l1,1.26-1.78.65-1.81.56c-.62.17-1.24.31-1.86.46s-1.25.24-1.89.31c-.64.09-1.28.14-1.93.16-.67.04-1.33.04-2,0-.65-.05-1.3-.13-1.94-.26-.65-.13-1.28-.3-1.91-.51-.62-.22-1.23-.49-1.82-.79-.59-.31-1.16-.66-1.69-1.06-1.07-.79-2.02-1.72-2.82-2.77-.8-1.04-1.47-2.16-2-3.36-.27-.59-.51-1.2-.71-1.82-.22-.63-.39-1.28-.52-1.93l1.87.14c-.23.62-.44,1.25-.69,1.86-.26.62-.54,1.22-.86,1.81-.29.6-.63,1.18-1,1.73-.39.56-.82,1.09-1.28,1.6-.48.5-.99.96-1.54,1.38-.27.22-.56.41-.86.58-.29.19-.59.37-.9.52-.62.31-1.27.57-1.93.78l-1,.25-1,.18c-.66.08-1.33.12-2,.11-.67,0-1.34-.04-2-.13-.67-.08-1.34-.2-2-.35-.65-.14-1.29-.32-1.92-.52-1.25-.39-2.48-.87-3.66-1.44-.6-.27-1.18-.57-1.75-.88s-1.13-.64-1.72-1l1.31-1.19c.29.6.6,1.18.86,1.8.27.61.5,1.24.71,1.87l.3,1,.22,1c.13.66.23,1.33.3,2,.04.67.04,1.33,0,2-.03.67-.11,1.34-.24,2l-.22,1-.3,1c-.22.64-.48,1.27-.78,1.88-.29.61-.63,1.19-1,1.75-.37.55-.76,1.07-1.18,1.58-.43.52-.87,1-1.33,1.49s-.95.92-1.44,1.36c-1,.86-2.05,1.65-3.15,2.37-.55.36-1.11.69-1.68,1-.58.32-1.15.62-1.78.9l.07-1.19c.47.32,1,.61,1.42.94s.92.67,1.33,1.07l.64.58.59.62c.38.43.75.87,1.08,1.34.33.48.63.97.89,1.49.27.51.49,1.04.68,1.58l.25.83.18.84c.11.56.17,1.14.2,1.71.07,2.27-.32,4.52-1.16,6.63-.8,2.09-1.87,4.06-3.19,5.86l-.29-.4.67-.19c.23-.07.46-.1.69-.15.45-.1.91-.13,1.37-.19.92-.05,1.84-.05,2.76,0,1.83.1,3.65.35,5.43.76h0Z"/>
    <path class="st5" d="M128.38,210.58c-1.79-.33-3.61-.5-5.43-.51-.91,0-1.81.04-2.71.15-.45.07-.9.12-1.33.23-.22.06-.44.09-.65.17l-.63.2-.72.23.43-.63c1.21-1.8,2.18-3.75,2.87-5.8.34-1.02.59-2.07.75-3.13.08-.53.12-1.06.14-1.59.03-.53.03-1.06,0-1.59-.04-.52-.11-1.05-.22-1.56l-.19-.76-.25-.75c-.18-.49-.39-.97-.65-1.42-.25-.46-.52-.9-.83-1.32-.31-.42-.64-.82-1-1.2l-.55-.56-.6-.52c-.39-.36-.85-.64-1.26-1s-.9-.56-1.35-.85l-1-.66,1.11-.53c.53-.26,1.09-.57,1.62-.89s1.06-.65,1.58-1c1.03-.7,2.01-1.48,2.93-2.32.45-.42.89-.85,1.32-1.3s.82-.93,1.19-1.41.73-1,1-1.51c.32-.51.61-1.04.87-1.59.26-.54.49-1.11.68-1.68l.26-.86.19-.89c.11-.59.18-1.18.2-1.78.05-1.21-.05-2.41-.32-3.59l-.2-.89-.28-.87c-.17-.59-.44-1.14-.66-1.71s-.54-1.1-.81-1.66l-1.43-3,2.74,1.76c.48.32,1,.63,1.57.92s1.1.57,1.66.82c1.12.52,2.26.97,3.44,1.33.59.17,1.18.33,1.77.46.59.13,1.19.23,1.79.3.59.08,1.19.11,1.79.11s1.18-.04,1.77-.12l.86-.15.85-.23c.55-.18,1.08-.4,1.6-.66.26-.12.5-.27.74-.43.25-.15.49-.31.71-.5.46-.36.89-.74,1.3-1.16.4-.43.77-.89,1.11-1.37.35-.48.67-.99.95-1.52.31-.51.52-1.09.79-1.63s.43-1.14.65-1.71l1.25-3.28.62,3.42c.1.56.25,1.11.43,1.65.53,1.67,1.33,3.24,2.38,4.65.69.92,1.51,1.73,2.43,2.42.45.35.94.65,1.44.92s1.03.51,1.57.7c.54.19,1.1.34,1.66.46.57.11,1.15.2,1.73.24.58.03,1.17.03,1.75,0,.59,0,1.18-.08,1.77-.13s1.18-.19,1.76-.28l1.75-.42,1.73-.52,1.71-.61,2.37-.85-1.36,2.11c-.25.37-.5.82-.73,1.25s-.44.87-.64,1.33c-.39.9-.7,1.83-.93,2.78-.22.94-.33,1.9-.33,2.87,0,.95.18,1.89.49,2.78l.27.66.34.73c.24.41.52.79.83,1.15s.64.69,1,1c.37.32.76.62,1.17.89.41.28.83.53,1.26.76.43.24.89.42,1.34.64l1.4.53,1.44.45,1,.32-.84.65c-.57.44-1.1.92-1.59,1.44-.5.52-.96,1.08-1.38,1.66-.23.29-.41.6-.61.9-.19.3-.37.62-.52.94-.18.32-.32.65-.44,1-.14.32-.25.66-.33,1-.07.35-.19.69-.23,1l-.1,1.07c0,.36,0,.72.06,1.08.02.36.08.71.18,1.06.07.34.16.68.28,1l.41,1c.14.35.31.68.51,1l.56,1,.21.35h-.39c-1.48,0-2.95.2-4.38.58-.72.19-1.41.46-2.06.81-.16.09-.32.18-.47.29-.16.09-.31.2-.45.33-.15.11-.29.23-.42.36l-.39.41.37-.43c.12-.14.25-.27.4-.39.14-.13.28-.25.44-.36.15-.1.3-.22.46-.31.65-.39,1.33-.7,2.05-.94,1.44-.47,2.94-.73,4.45-.79l-.17.35-.62-1c-.23-.31-.42-.65-.58-1l-.47-1c-.15-.35-.26-.72-.34-1.1-.12-.37-.21-.75-.24-1.13,0-.38-.09-.77-.1-1.15v-1.17c0-.38.14-.76.2-1.14.08-.38.18-.76.32-1.12.11-.37.25-.73.43-1.08.15-.34.32-.68.52-1,.18-.34.38-.68.6-1,.43-.64.91-1.24,1.43-1.81.52-.58,1.09-1.12,1.69-1.61l.19,1-1.51-.43-1.49-.53c-.49-.21-1-.4-1.46-.65-.48-.23-.94-.5-1.39-.79-.46-.29-.89-.6-1.31-.95-.41-.35-.79-.73-1.14-1.14-.37-.41-.71-.86-1-1.33l-.41-.72-.33-.77c-.38-1.02-.6-2.09-.64-3.18-.04-1.09.06-2.18.29-3.25.22-1.05.54-2.08.94-3.07.2-.5.42-1,.66-1.46s.49-.94.8-1.43l1,1.26-1.78.65-1.81.56c-.62.17-1.24.31-1.86.46s-1.25.24-1.89.31c-.64.09-1.28.14-1.93.16-.67.04-1.33.04-2,0-.65-.05-1.3-.13-1.94-.26-.65-.13-1.28-.3-1.91-.51-.62-.22-1.23-.49-1.82-.79-.59-.31-1.16-.66-1.69-1.06-1.07-.79-2.02-1.72-2.82-2.77-.8-1.04-1.47-2.16-2-3.36-.27-.59-.51-1.2-.71-1.82-.22-.63-.39-1.28-.52-1.93l1.87.14c-.23.62-.44,1.25-.69,1.86-.26.62-.54,1.22-.86,1.81-.29.6-.63,1.18-1,1.73-.39.56-.82,1.09-1.28,1.6-.48.5-.99.96-1.54,1.38-.27.22-.56.41-.86.58-.29.19-.59.37-.9.52-.62.31-1.27.57-1.93.78l-1,.25-1,.18c-.66.08-1.33.12-2,.11-.67,0-1.34-.04-2-.13-.67-.08-1.34-.2-2-.35-.65-.14-1.29-.32-1.92-.52-1.25-.39-2.48-.87-3.66-1.44-.6-.27-1.18-.57-1.75-.88s-1.13-.64-1.72-1l1.31-1.19c.29.6.6,1.18.86,1.8.27.61.5,1.24.71,1.87l.3,1,.22,1c.13.66.23,1.33.3,2,.04.67.04,1.33,0,2-.03.67-.11,1.34-.24,2l-.22,1-.3,1c-.22.64-.48,1.27-.78,1.88-.29.61-.63,1.19-1,1.75-.37.55-.76,1.07-1.18,1.58-.43.52-.87,1-1.33,1.49s-.95.92-1.44,1.36c-1,.86-2.05,1.65-3.15,2.37-.55.36-1.11.69-1.68,1-.58.32-1.15.62-1.78.9l.07-1.19c.47.32,1,.61,1.42.94s.92.67,1.33,1.07l.64.58.59.62c.38.43.75.87,1.08,1.34.33.48.63.97.89,1.49.27.51.49,1.04.68,1.58l.25.83.18.84c.11.56.17,1.14.2,1.71.07,2.27-.32,4.52-1.16,6.63-.8,2.09-1.87,4.06-3.19,5.86l-.29-.4.67-.19c.23-.07.46-.1.69-.15.45-.1.91-.13,1.37-.19.92-.05,1.84-.05,2.76,0,1.83.1,3.65.35,5.43.76h0Z"/>
  </g>
</svg>