<?xml version="1.0" encoding="UTF-8"?>
<svg id="Layer_1" xmlns="http://www.w3.org/2000/svg" version="1.1" viewBox="0 0 500 500">
  <!-- Generator: Adobe Illustrator 29.5.0, SVG Export Plug-In . SVG Version: 2.1.0 Build 137)  -->
  <defs>
    <style>
      .st0 {
        fill: #ba4d3c;
      }

      .st1 {
        fill: #263238;
      }

      .st2 {
        opacity: .9;
      }

      .st2, .st3, .st4, .st5, .st6, .st7 {
        isolation: isolate;
      }

      .st2, .st6 {
        fill: #fafafa;
      }

      .st8 {
        fill: #fff;
      }

      .st9 {
        fill: #ce7a63;
      }

      .st10, .st7 {
        fill: #274841;
      }

      .st3 {
        opacity: .4;
      }

      .st4, .st6 {
        opacity: .3;
      }

      .st5 {
        opacity: .2;
      }

      .st7 {
        opacity: .1;
      }
    </style>
  </defs>
  <g id="freepik--Mirror--inject-103">
    <polygon class="st10" points="139.51 267.74 157.74 267.74 141.41 496.49 123.19 496.49 139.51 267.74"/>
    <polygon class="st3" points="139.51 267.74 157.74 267.74 141.41 496.49 123.19 496.49 139.51 267.74"/>
    <polygon class="st10" points="235.47 496.49 139.17 496.49 125.96 188.79 222.26 188.79 235.47 496.49"/>
    <polygon class="st4" points="235.47 496.49 139.17 496.49 125.96 188.79 222.26 188.79 235.47 496.49"/>
    <polygon class="st10" points="237.47 496.49 141.17 496.49 127.96 188.79 224.26 188.79 237.47 496.49"/>
    <polygon class="st2" points="146.92 490.49 134.23 194.79 218.51 194.79 231.2 490.49 146.92 490.49"/>
    <path class="st7" d="M202.08,489.37c2.89-.94,1.92-3.86.58-3.71-5,.53-11,1-14.35.67.44-.11.83-.38,1.09-.76.15-.31.11-.67-.09-.95-.1-.2-.31-.33-.53-.34-.53,0-1.23.55-1.79,1.13.26-.6.29-1.28.09-1.91-.15-.26-.47-.39-.76-.3-.27.04-.5.21-.62.45-.23.73-.19,1.52.1,2.23-.17,0-.34.03-.5.08l-.33.1-2.36-9,3.55-1-.27-5.71-1.31.46c-3.06-16.29-12.33-66.07-15-85.23-3-21.05-13-81.4-13-81.4,1.97-11.51,2.75-23.18,2.31-34.85h0l.57.65h0l.78-.58c.4.46.8.93,1.22,1.39,2.18,2.43,4.72,4.52,7.52,6.2l1.15.65c.61.32,1.24.58,1.9.77,1.28.38,2.62.5,3.94.37,2.08-.27,4.08-1,5.84-2.14,2.68-1.77,5.08-3.94,7.1-6.44,3.51-4.28,6.49-8.96,8.9-13.94,1.57-1.7,2.89-3.62,3.92-5.7l2.1-1.75c.35.53.88.92,1.49,1.1,2,.54,4.2-1.39,5-4.31.95-3.49-1.14-4.62-2.47-5-1.34-.48-2.84-.05-3.73,1.07-.69-.64-1.66-.9-2.58-.69-.28-1.44-1.38-2.48-3.26-3-2.73-.74-4.63.27-5.33,2.86-.04.17-.08.34-.1.52-.8,0-5.73-.36-7.42-.43-.09,0-.16.06-.17.15h0c0,.08.05.15.12.17h0c1.66.07,6.47.37,7.37.43-.38,1.96.4,3.96,2,5.14l-2.1,6.73c-1.43,1.74-2.92,3.51-4.44,5.17-1.73,1.95-3.56,3.82-5.48,5.58-1.67,1.61-3.55,2.98-5.6,4.07-.59.33-1.25.51-1.93.52-.15,0-.16-.06-.15-.09s0,0,0,0l-.62-.42c-2.09-1.54-3.94-3.38-5.5-5.46l2.23-1.67s-.33-.65-.91-1.74c-.41-.75-.94-1.72-1.56-2.82-1.89-3.36-3.83-8.77-7.55-12-2.17-2.02-4.73-3.58-7.51-4.6h0l-.49-.13h-.12c-.29-.08-.58-.16-.86-.22-.67-.16-1.54-.36-2.59-.57-1.77-.34-3.94-.71-6.19-1h0l-.81-.08h-.14c-.26,0-.54-.05-.82-.06-4.88-1.17-5.74-4.19-5.41-7.52.07-.76.19-1.51.35-2.26,4.98-.14,9.05-4.03,9.42-9,.11-1.33.11-2.67,0-4,.43-.16.78-.48,1-.88.88-1.56.05-4.39-.24-5.28.12-.02.21-.12.21-.24,0-.14-.11-.25-.25-.25-.72,0-1.44.06-2.15.14l-.07-.19h0c.06.05.14.09.22.09.07,0,.14-.03.19-.07.16-.11.2-.32.1-.48-.17-.24-.36-.46-.57-.66-.12-1.38-.46-2.73-1-4,2.67-2.03,4.04-5.34,3.59-8.67-.06,2.3-.88,4.52-2.33,6.3.4-.59.73-1.21,1-1.87.52-1.43.56-2.99.12-4.44h-11.56l7.68,179.07c.1-3.28.18-6.91.23-10.75,2.38,11.26,4.66,21.74,6.34,28.86,4.48,19,18.56,68.64,22.78,83.49l-1.15.4,2,4.12,3.33-.92.54,2.07h0l1.9,7.22-.55.18c-.28.08-.44.36-.36.64h0s.33,1.32.33,1.32h21.2c1.5-.41,2.76-.81,3.58-1.08h0ZM207.79,241.01c1.48.4,3.07,1.53,2.24,4.59-.75,2.74-2.82,4.57-4.61,4.08-.54-.17-1.01-.52-1.33-1l1.75-1.46-2.41-2.94c0-.16.06-.31.1-.47.83-3.05,2.78-3.21,4.26-2.8h0ZM201.62,241.39c.84-.19,1.72.05,2.34.64-.34.53-.59,1.1-.74,1.71,0,.08,0,.15-.05.23l-1.06-1.3-.61.27c.12-.51.16-1.03.12-1.55h0ZM193.28,241.03c.83-3.06,3.14-3.12,4.94-2.63,1.52.24,2.74,1.38,3.07,2.88h0c.07.61.02,1.22-.14,1.81l-6,2.69-.25.81c-1.65-1.33-2.29-3.55-1.62-5.56h0ZM146.48,209.16c.26.78,1.12,3.65.28,5.14-.18.34-.48.61-.84.75-.18-1.97-.58-3.9-1.2-5.78.56-.06,1.15-.1,1.76-.11h0ZM186.16,485.89c-.27-.66-.33-1.39-.16-2.08.07-.12.18-.21.31-.25h.08c.24,0,.34,0,.39.13.16.77.03,1.58-.37,2.26l-.25-.06h0ZM186.86,486.06c.63-.72,1.44-1.47,1.9-1.44.11,0,.21.07.26.17.13.18.16.42.07.63-.17.33-.75.61-1.62.79-.21-.04-.41-.09-.61-.15h0Z"/>
    <polygon class="st6" points="167.09 490.49 158.43 490.49 198.34 194.79 207 194.79 167.09 490.49"/>
    <polygon class="st6" points="174.31 490.49 170.65 490.49 210.56 194.79 214.21 194.79 174.31 490.49"/>
  </g>
  <g id="freepik--Character--inject-103">
    <polygon class="st9" points="279.53 489.18 272.48 486.9 276.86 470.27 283.91 472.56 279.53 489.18"/>
    <path class="st1" d="M272.37,485.96l7.92,2.57c.28.08.45.37.37.65l-1.66,6.39c-.22.69-.95,1.07-1.64.86-2.75-.94-4-1.53-7.49-2.67-2.15-.69-11.33-3.43-14.29-4.39s-1.93-3.86-.59-3.71c6,.63,13.52,1.26,16,.34.44-.17.93-.19,1.38-.04h0Z"/>
    <polygon class="st5" points="283.91 472.56 276.86 470.27 274.6 478.84 281.65 481.13 283.91 472.56"/>
    <path class="st1" d="M301.1,304.23s-10,60.35-13,81.4c-3.25,23.05-16,90.47-16,90.47l13.09,3.66s18.7-65.34,24-87.75c5.75-24.32,18.41-87.74,18.41-87.74l-26.5-.04h0Z"/>
    <path class="st4" d="M317.17,328.98c-5.12,12.79-5.7,34.53-3.62,43.44,3.14-14.63,6.74-32.13,9.51-45.74-.99-3.49-2.78-5.48-5.89,2.3Z"/>
    <polygon class="st10" points="285.52 479.98 271.5 476.11 271.77 470.4 287.56 475.86 285.52 479.98"/>
    <path class="st10" d="M269.47,486.38c.65.19,1.32.31,2,.35.07.01.14-.02.17-.08.04-.06.04-.13,0-.19-.18-.23-1.73-2.24-2.7-2.18-.23.01-.43.14-.54.34-.2.28-.23.64-.08.95.27.4.68.69,1.15.81h0ZM271.06,486.38c-1.34-.16-2.26-.5-2.48-.93-.09-.21-.07-.45.07-.63.05-.1.15-.16.26-.17.52-.06,1.5.91,2.15,1.7v.03Z"/>
    <path class="st10" d="M271.39,486.76h.09c.06-.01.1-.05.13-.1,0-.08.85-2.06.36-3-.12-.24-.35-.41-.62-.45-.29-.09-.61.04-.76.3-.41.72.16,2.53.73,3.18l.07.07h0ZM271.39,483.59c.13.04.24.13.3.25.18.8.09,1.64-.26,2.39-.49-.75-.67-1.65-.51-2.53.05-.09.14-.18.39-.13l.08.02h0Z"/>
    <path class="st9" d="M309,246.99c-.24.89-.44,1.53-.68,2.28s-.48,1.41-.74,2.11c-.51,1.4-1.07,2.77-1.66,4.13-1.2,2.76-2.59,5.44-4.17,8-1.61,2.64-3.47,5.12-5.56,7.4-2.18,2.43-4.72,4.52-7.52,6.2l-1.14.65c-.61.32-1.24.58-1.9.77-1.28.38-2.62.5-3.94.37-2.08-.27-4.08-1-5.84-2.14-2.69-1.77-5.09-3.94-7.11-6.44-3.67-4.5-6.78-9.43-9.26-14.68l4.76-2.88c1.66,2,3.4,4.15,5.19,6.1,1.73,1.95,3.57,3.82,5.49,5.58,1.67,1.61,3.55,2.98,5.6,4.07.59.33,1.25.51,1.93.52.15,0,.16-.06.14-.09h0l.62-.42c3.52-2.5,6.51-6.39,9-10.69,1.24-2.2,2.36-4.46,3.36-6.77.51-1.16,1-2.34,1.43-3.54l.64-1.78c.2-.57.43-1.24.56-1.67l10.8,2.92Z"/>
    <path class="st10" d="M286.47,261.31l11.71,8.75,1.2-1.35c.54-.64,1.24-1.47,2.05-2.45,4.55-5.54,11.2-15.67,11.26-20.63.08-7.39-7.6-8.48-16.21-.91-3.71,3.26-5.65,8.67-7.54,12-.63,1.1-1.15,2.07-1.56,2.82-.58,1.12-.91,1.77-.91,1.77Z"/>
    <polygon class="st9" points="335.04 492.43 327.63 492.43 326.67 475.26 334.08 475.26 335.04 492.43"/>
    <path class="st1" d="M327.24,491.57h8.33c.29-.01.54.22.55.51h0l.4,6.59c0,.72-.58,1.3-1.3,1.31-2.9-.05-4.28-.22-7.94-.22-2.26,0-11.84.24-14.95.24s-3-3.08-1.7-3.36c5.91-1.25,13.24-3,15.33-4.61.36-.29.81-.45,1.28-.46h0Z"/>
    <polygon class="st5" points="334.08 475.26 326.66 475.26 327.16 484.11 334.58 484.11 334.08 475.26"/>
    <path class="st1" d="M315.58,303.85s-.71,56.66.49,77.88c1.32,23.25,7.91,100.25,7.91,100.25h13.58s-.4-75.13.42-98.14c.88-25,3.18-80,3.18-80h-25.58Z"/>
    <polygon class="st10" points="338.11 481.98 323.44 481.98 322.62 476.82 338.82 477.63 338.11 481.98"/>
    <path class="st10" d="M324.61,492.86c.67-.02,1.34-.1,2-.26.06-.02.11-.07.13-.14,0-.07-.02-.13-.07-.17-.24-.17-2.34-1.6-3.24-1.25-.21.08-.36.27-.41.49-.09.33,0,.69.22.94.39.29.88.43,1.37.39h0ZM326.11,492.35c-1.32.26-2.3.22-2.65-.13-.15-.17-.19-.4-.12-.61.02-.11.09-.21.19-.25.47-.19,1.72.4,2.58.99Z"/>
    <path class="st10" d="M326.55,492.6h.08s.08-.08.09-.14c0-.09.17-2.22-.57-2.94-.19-.2-.47-.29-.74-.24-.3.01-.56.23-.62.52-.17.81.93,2.36,1.67,2.8h.09ZM325.55,489.6c.14,0,.28.05.38.15.4.71.57,1.54.48,2.35-.64-.54-1.38-1.72-1.27-2.25,0-.1.08-.22.33-.25h.08Z"/>
    <path class="st4" d="M312.76,246.49c-2.64-1.75-4.47-.23-9.7,3.59-2.34,1.71-7.55,15.85-7.13,18.3l2.26,1.68s14.63-16.21,14.57-23.57h0Z"/>
    <path class="st9" d="M265.08,253.94l-2.55-8.18-6.62,4.85s3.62,7.26,6.07,6.61l3.1-3.28h0Z"/>
    <polygon class="st9" points="255.56 242.67 251.83 247.23 255.91 250.64 262.53 245.79 255.56 242.67"/>
    <path class="st1" d="M272.26,241.35h0c-1.83.07-7.48.43-7.54.44-.09,0-.16-.07-.16-.16s.07-.16.16-.16c.06,0,5.71-.37,7.54-.44.09,0,.16.06.17.15h0c0,.09-.06.16-.15.17h-.02Z"/>
    <path class="st1" d="M261.9,247.38c-2.33.64-4.88-1.21-5.68-4.13-.7-2.58.41-4.42,3.15-5.17s4.62.27,5.33,2.86c.79,2.91-.46,5.82-2.8,6.44ZM259.45,238.38c-1.79.48-3.75,1.71-2.92,4.77.75,2.74,3.12,4.49,5.29,3.9s3.31-3.3,2.57-6c-.84-3.08-3.15-3.14-4.94-2.65v-.02Z"/>
    <path class="st1" d="M252.33,249.99c-2,.54-4.21-1.4-5-4.31-1-3.49,1.13-4.62,2.46-5s3.7-.45,4.66,3c.79,2.97-.16,5.78-2.12,6.31h0ZM249.88,240.99c-1.49.4-3.08,1.53-2.24,4.59.75,2.74,2.81,4.57,4.6,4.08s2.65-3.12,1.9-5.86c-.84-3.04-2.78-3.2-4.26-2.79v-.02Z"/>
    <path class="st1" d="M256.26,241.41h-.07c-.92-.26-1.91,0-2.58.7-.07.06-.16.06-.23,0-.06-.05-.07-.15-.02-.21l.02-.02c.74-.77,1.85-1.07,2.88-.79.09.02.14.11.12.2-.02.06-.06.1-.12.12h0Z"/>
    <path class="st10" d="M301.1,304.23h39.65c.28-3.54-.54-15.06.07-29.73.38-10.87,1.7-21.69,3.94-32.34.18-.8.36-1.59.55-2.39,0,0-2-.41-4.89-.83-2.39-.35-5.39-.71-8.33-.85-5.61-.32-11.24-.32-16.85,0-2.59.24-5.12.67-7.14,1.06-2.58.52-4.1,1-4.1,1,0,0-9.77,22.39-2.9,64.08h0Z"/>
    <path class="st4" d="M340.82,274.5c.38-10.87,1.7-21.69,3.94-32.34-2.65-.23-7.18,0-7.93,4.31-.83,4.6.17,15.42,3.99,28.03Z"/>
    <path class="st9" d="M347.6,244.51c.79,1.21,1.44,2.27,2.1,3.43s1.28,2.28,1.9,3.44c1.23,2.31,2.38,4.67,3.43,7.09,2.23,4.91,3.9,10.06,5,15.34l.1.51.05.26.07.41c.09.56.13,1.13.13,1.7,0,.94-.11,1.89-.31,2.81-.34,1.53-.83,3.03-1.46,4.46-1.12,2.51-2.46,4.93-4,7.21-2.91,4.34-6.22,8.4-9.88,12.13l-4.39-3.43c2.43-4.22,4.84-8.6,6.86-12.89.99-2.05,1.84-4.17,2.53-6.34.29-.9.49-1.84.59-2.78.03-.31.03-.62,0-.93,0-.09,0-.17-.06-.18s0,0,0-.05l-.06-.2-.12-.4c-.63-2.21-1.39-4.38-2.25-6.51-.88-2.16-1.87-4.33-2.89-6.47s-2.15-4.28-3.28-6.4c-.57-1.06-1.15-2.11-1.74-3.15l-1.76-3,9.44-6.06h0Z"/>
    <path class="st10" d="M335.47,253.27c1.85,5.14,3.99,10.16,6.43,15.05.53,1.1,1,2.08,1.42,2.87.7,1.39,1.14,2.23,1.14,2.23l15-8.32s-.19-.63-.53-1.69c-.26-.8-.6-1.85-1-3.06-2.5-7.13-7.61-19.85-12.62-20.58-7.49-1.09-12.88,4.51-9.84,13.5h0Z"/>
    <path class="st8" d="M332.09,238.09c-5.61-.32-11.24-.32-16.85,0l-.95.1c-.83.69-1.25,1.77-1.1,2.84.43,1.67,2.72,2.23,4.73,2.46.06.74.2,1.47.42,2.18l.65,1.89,1.12-1.66c.63-.87,1.39-1.63,2.27-2.24,9.79-.27,11.26-5.05,11.32-5.26l.06-.21-1.67-.1h0Z"/>
    <path class="st9" d="M331.73,219.19l-4.51,3.74-6.14,5.1c.18.82.31,1.65.39,2.48.33,3.33-.53,6.36-5.43,7.52,0,0-5.82,3.85,2.81,4.55.03.93.18,1.86.43,2.76.76-1.05,1.7-1.95,2.78-2.67,9.43-.17,10.68-4.54,10.68-4.54-3.67-3.62-2.26-13.51-1.01-18.94h0Z"/>
    <path class="st5" d="M321.08,228.03c.18.82.31,1.65.39,2.48,2.29-.46,5.35-2.9,5.67-5.24.11-.77.14-1.56.08-2.34l-6.14,5.1Z"/>
    <path class="st1" d="M316.91,200.24c-3.65,1.66-5.69,12-1,14.16s7.92-17.28,1-14.16Z"/>
    <path class="st9" d="M333.59,211.38c-1.57,7.21-2.12,11.5-6.38,14.79-4.16,3.28-10.2,2.56-13.48-1.6-1.2-1.52-1.91-3.37-2.04-5.31-.55-6.71,2.1-17.37,9.69-19.41,5.13-1.53,10.54,1.39,12.07,6.53.48,1.63.53,3.35.14,5Z"/>
    <path class="st1" d="M335,216s.07,0,.11,0c.13-.04.2-.18.16-.31-.72-2.17-8.53-4.62-9.42-4.89-2.54-.73-5.17-1.14-7.81-1.24-.59-.38-1.33-.47-2-.25-1.67-.4-3.38-.62-5.1-.65-.14,0-.25.11-.25.25,0,.13.1.24.23.25h.02c1.69.03,3.36.25,5,.65h.13c.54-.21,1.16-.14,1.64.19.04.04.1.06.16.06,2.62.09,5.22.5,7.75,1.21,2.35.72,8.55,2.95,9.1,4.58.04.11.16.18.28.15Z"/>
    <path class="st1" d="M321.09,216.76h.23c1.03.13,2.06-.21,2.81-.92,1.66-1.62,1.51-4.76,1.5-4.9,0-.06-.05-.11-.11-.11h-.02c-.07,0-.12.05-.12.12h0s.16,3.17-1.42,4.71c-.7.66-1.66.97-2.62.85-.92-.04-1.78-.48-2.34-1.21-1.45-1.91-.77-5.46-.76-5.49.02-.06-.02-.13-.08-.15h-.02c-.07-.01-.13.03-.14.1h0c0,.15-.72,3.69.8,5.69.54.74,1.38,1.22,2.29,1.31h0Z"/>
    <path class="st1" d="M312.32,215.44c.77.13,1.56-.08,2.16-.58,1.71-1.45,1.65-5,1.65-5.12.02-.07-.02-.14-.09-.16s-.14.02-.16.09v.07s.06,3.54-1.57,4.92c-.6.5-1.41.68-2.17.49-.52-.08-.98-.4-1.24-.86-1-1.73.35-5.31.36-5.35.02-.06-.01-.13-.07-.16-.06-.02-.13,0-.16.07-.06.16-1.37,3.74-.35,5.56.29.53.81.9,1.41,1l.23.03h0Z"/>
    <path class="st1" d="M342,204.23c3.5-4.15-2.16-9-9.63-7.3-4.83,1.08-11.13-3.82-12-8.13-6.94-.28-9.95,6.43-8.33,10.43.26.66.6,1.29,1,1.88-1.46-1.8-2.28-4.03-2.34-6.35-.7,4.88,2.8,9.76,6.92,9.84,4.65,1.71,10.39.54,12.59,2-1.87,3.89-.46,10.19,1.68,11.27,2.39,2,5.89,0,9.2-4.27,2.38-3.02,4.37-7.84.91-9.37h0Z"/>
    <path class="st9" d="M335.25,218.9c-1.17,1.41-2.78,2.37-4.58,2.72-2.27.39-2.78-1.71-1.63-3.75,1-1.83,3.48-4.24,5.51-3.7s2.17,2.96.7,4.73h0Z"/>
    <path class="st1" d="M321.49,212.09c-.09.6-.48,1-.87,1s-.63-.56-.54-1.15.48-1,.87-1,.63.56.54,1.15Z"/>
    <path class="st1" d="M314.78,211.3c-.09.59-.48,1-.87,1s-.63-.56-.54-1.15.48-1,.87-1,.63.61.54,1.15Z"/>
    <path class="st0" d="M317.59,211.84c-.99,1.73-2.21,3.32-3.62,4.73.75.68,1.76,1,2.76.86l.86-5.59Z"/>
    <path class="st1" d="M318.91,219.31c1.4,0,2.74-.54,3.73-1.53.07-.06.07-.17,0-.24h0c-.06-.07-.16-.07-.23,0h-.01c-1.1,1.07-2.62,1.58-4.13,1.38-.1.02-.16.12-.13.22.02.07.07.12.13.13.21.03.43.05.64.06h0Z"/>
    <path class="st1" d="M324.62,210.18c.06.01.11.01.17,0,.17-.1.23-.31.14-.48-.53-.99-1.51-1.66-2.63-1.78-.2-.03-.38.1-.41.3s.1.38.3.41h.12c.86.11,1.6.64,2,1.41.08.1.2.15.32.14h-.01Z"/>
    <path class="st1" d="M313,208.66c.12,0,.23-.06.29-.16.49-.77,1.31-1.26,2.22-1.34.19,0,.35-.16.35-.35h0c0-.19-.16-.35-.35-.35h0c-1.14.08-2.18.69-2.8,1.65-.11.15-.07.37.08.47h0c.06.05.13.07.2.07h0Z"/>
    <path class="st9" d="M342.3,298.23l-7.39-1.28,3.79,8.54s6.74,0,6.43-3.51l-2.83-3.75Z"/>
    <polygon class="st9" points="329.41 301.24 332.88 308.14 338.7 305.49 334.91 296.95 329.41 301.24"/>
  </g>
</svg>