<?xml version="1.0" encoding="UTF-8"?>
<svg id="Layer_1" xmlns="http://www.w3.org/2000/svg" version="1.1" viewBox="0 0 500 500">
  <!-- Generator: Adobe Illustrator 29.5.0, SVG Export Plug-In . SVG Version: 2.1.0 Build 137)  -->
  <defs>
    <style>
      .st0 {
        opacity: .9;
      }

      .st0, .st1, .st2, .st3, .st4, .st5, .st6 {
        fill: #fff;
      }

      .st0, .st2, .st3, .st7, .st4, .st5, .st8, .st9, .st10, .st6 {
        isolation: isolate;
      }

      .st11, .st2 {
        opacity: .6;
      }

      .st12 {
        fill: #263238;
      }

      .st13, .st3 {
        opacity: .4;
      }

      .st14 {
        fill: #eec8c0;
      }

      .st7 {
        opacity: .1;
      }

      .st4, .st10, .st15 {
        opacity: .5;
      }

      .st5 {
        opacity: .7;
      }

      .st16 {
        fill: #c13b37;
      }

      .st17 {
        fill: #ffb573;
      }

      .st8 {
        opacity: .3;
      }

      .st9 {
        opacity: .2;
      }

      .st18 {
        fill: #ed893e;
      }

      .st6 {
        opacity: .8;
      }

      .st19 {
        fill: #b4dbce;
      }

      .st20 {
        fill: #ffc3bd;
      }
    </style>
  </defs>
  <g id="freepik--character-3--inject-34">
    <path class="st19" d="M401.9,344.38h-91.42c-2.95.03-5.37-2.33-5.4-5.28,0-.14,0-.27.01-.41l6.91-132.38c.19-3.18,2.82-5.66,6-5.69h91.42c2.95-.03,5.37,2.33,5.4,5.28,0,.14,0,.27-.01.41l-6.91,132.38c-.2,3.17-2.82,5.65-6,5.69h0Z"/>
    <path class="st3" d="M401.9,344.38h-91.42c-2.95.03-5.37-2.33-5.4-5.28,0-.14,0-.27.01-.41l6.91-132.38c.19-3.18,2.82-5.66,6-5.69h91.42c2.95-.03,5.37,2.33,5.4,5.28,0,.14,0,.27-.01.41l-6.91,132.38c-.2,3.17-2.82,5.65-6,5.69h0Z"/>
    <path class="st19" d="M399.9,342.38h-91.42c-2.95.03-5.37-2.33-5.4-5.28,0-.14,0-.27.01-.41l6.91-132.38c.19-3.18,2.82-5.66,6-5.69h91.42c2.95-.03,5.37,2.33,5.4,5.28,0,.14,0,.27-.01.41l-6.91,132.38c-.2,3.17-2.82,5.65-6,5.69h0Z"/>
    <path class="st0" d="M399.9,342.38h-91.42c-2.95.03-5.37-2.33-5.4-5.28,0-.14,0-.27.01-.41l6.91-132.38c.19-3.18,2.82-5.66,6-5.69h91.42c2.95-.03,5.37,2.33,5.4,5.28,0,.14,0,.27-.01.41l-6.91,132.38c-.2,3.17-2.82,5.65-6,5.69h0Z"/>
    <polygon class="st19" points="402.06 303.97 310.36 303.97 315.05 214.37 406.75 214.37 402.06 303.97"/>
    <path class="st12" d="M327.34,207.11h16.45c.67,0,.73-1.05,0-1.05h-16.4c-.67,0-.73,1.05-.05,1.05h0Z"/>
    <g class="st15">
      <path class="st1" d="M327.34,207.11h16.45c.67,0,.73-1.05,0-1.05h-16.4c-.67,0-.73,1.05-.05,1.05h0Z"/>
    </g>
    <path class="st12" d="M327.17,210.35h12.42c.68,0,.74-1.06.06-1.06h-12.43c-.67,0-.73,1.06-.05,1.06h0Z"/>
    <g class="st15">
      <path class="st1" d="M327.17,210.35h12.42c.68,0,.74-1.06.06-1.06h-12.43c-.67,0-.73,1.06-.05,1.06h0Z"/>
    </g>
    <path class="st19" d="M358.62,323.13h13.65c1,0,1.1-1.57.08-1.57h-13.64c-1,0-1.1,1.57-.09,1.57h0Z"/>
    <path class="st12" d="M309.62,318.06h19.25c1,0,1.1-1.58.08-1.58h-19.25c-1,0-1.1,1.58-.08,1.58h0Z"/>
    <path class="st12" d="M309.35,323.13h45.85c1,0,1.1-1.57.08-1.57h-45.84c-1,0-1.1,1.57-.09,1.57Z"/>
    <path class="st12" d="M309.09,328.21h33.17c1,0,1.09-1.58.08-1.58h-33.17c-1,0-1.1,1.58-.08,1.58h0Z"/>
    <path class="st12" d="M308.82,333.28h12.87c1,0,1.1-1.57.08-1.57h-12.87c-1,0-1.09,1.57-.08,1.57Z"/>
    <g class="st15">
      <path class="st1" d="M309.62,318.06h19.25c1,0,1.1-1.58.08-1.58h-19.25c-1,0-1.1,1.58-.08,1.58h0Z"/>
    </g>
    <g class="st15">
      <path class="st1" d="M309.35,323.13h45.85c1,0,1.1-1.57.08-1.57h-45.84c-1,0-1.1,1.57-.09,1.57Z"/>
    </g>
    <g class="st15">
      <path class="st1" d="M309.09,328.21h33.17c1,0,1.09-1.58.08-1.58h-33.17c-1,0-1.1,1.58-.08,1.58h0Z"/>
    </g>
    <g class="st15">
      <path class="st1" d="M308.82,333.28h12.87c1,0,1.1-1.57.08-1.57h-12.87c-1,0-1.09,1.57-.08,1.57Z"/>
    </g>
    <path class="st12" d="M407,209.65c-.02.29-.26.52-.55.52-.27,0-.49-.21-.5-.48v-.04c.02-.29.26-.53.55-.53s.5.22.5.5v.03h0Z"/>
    <path class="st12" d="M407.08,208.01c-.02.29-.26.53-.55.53s-.5-.22-.5-.5v-.03c.03-.29.27-.52.56-.52.27,0,.49.2.49.47v.05Z"/>
    <path class="st12" d="M407.17,206.38c-.02.29-.26.52-.55.52-.27,0-.49-.21-.5-.48v-.04c.02-.29.26-.52.55-.53.28,0,.5.22.5.5v.03h0Z"/>
    <g class="st15">
      <path class="st1" d="M407,209.65c-.02.29-.26.52-.55.52-.27,0-.49-.21-.5-.48v-.04c.02-.29.26-.53.55-.53s.5.22.5.5v.03h0Z"/>
      <path class="st1" d="M407.08,208.01c-.02.29-.26.53-.55.53s-.5-.22-.5-.5v-.03c.03-.29.27-.52.56-.52.27,0,.49.2.49.47v.05Z"/>
      <path class="st1" d="M407.17,206.38c-.02.29-.26.52-.55.52-.27,0-.49-.21-.5-.48v-.04c.02-.29.26-.52.55-.53.28,0,.5.22.5.5v.03h0Z"/>
    </g>
    <path class="st12" d="M324.85,312.98c-1.66,0-3-1.34-3-3v-.15c.11-1.75,1.55-3.12,3.31-3.15,1.66,0,3,1.34,3,3v.15c-.02.4-.12.79-.28,1.15l.19,2-1.9-.28c-.42.18-.87.28-1.32.28ZM325.16,306.98c-1.56.03-2.84,1.24-2.94,2.8-.09,1.45,1,2.7,2.45,2.79h.2c.42,0,.84-.1,1.22-.28h.05l1.55.23-.16-1.62h0c.16-.34.25-.7.27-1.07.09-1.46-1.01-2.71-2.46-2.8h-.18v-.05h0Z"/>
    <path class="st12" d="M352.67,310.66c-.02.44-.39.79-.83.79-.41,0-.75-.33-.75-.75v-.04c.04-.44.39-.78.83-.79.41,0,.75.33.75.75v.04Z"/>
    <path class="st19" d="M356,310.66c-.02.44-.39.79-.83.79-.41,0-.74-.33-.74-.74v-.05c.03-.44.39-.79.83-.79.41,0,.74.33.74.74v.05Z"/>
    <path class="st12" d="M359.28,310.66c-.03.44-.39.78-.83.79-.41,0-.75-.32-.75-.73v-.06c.03-.44.39-.78.83-.79.41,0,.75.33.75.75v.04Z"/>
    <path class="st5" d="M352.67,310.66c-.02.44-.39.79-.83.79-.41,0-.75-.33-.75-.75v-.04c.04-.44.39-.78.83-.79.41,0,.75.33.75.75v.04Z"/>
    <path class="st5" d="M359.28,310.66c-.03.44-.39.78-.83.79-.41,0-.75-.32-.75-.73v-.06c.03-.44.39-.78.83-.79.41,0,.75.33.75.75v.04Z"/>
    <path class="st19" d="M316.32,307.31c-1.85-.09-3.7-.09-5.55,0-.81.71-.9,1.94-.22,2.77h0l.08.09h0l2.63,2.78,2.92-2.78.09-.09h0c.76-.76.78-1.98.05-2.77Z"/>
    <path class="st12" d="M401.76,312.94l-2.83-2.2-3.06,2.2.32-6.21h5.9l-.33,6.21h0ZM396.53,307.08l-.27,5.16,2.74-1.94,2.5,1.94.27-5.16h-5.24Z"/>
    <path class="st19" d="M324.14,207.98c-.15,2.44-2.16,4.35-4.61,4.38-2.27.02-4.13-1.8-4.15-4.07v-.31c.15-2.44,2.16-4.34,4.6-4.37,2.27-.03,4.13,1.79,4.16,4.06v.31h0Z"/>
    <path class="st1" d="M319.53,212.36c.91,0,1.79-.28,2.54-.79l-.17-1.37c-.06-.51-.49-.89-1-.89h-.52v-.57c.63-.33,1.03-.97,1.06-1.68.11-.9-.54-1.71-1.44-1.82h-.1c-.97.06-1.73.86-1.74,1.83-.06.69.29,1.34.89,1.68v.57h-.52c-.53,0-1,.37-1.12.89l-.31,1.37c.71.52,1.56.79,2.43.79h0Z"/>
    <path class="st12" d="M333.59,308.39l3,1.78,1.61,3.11,2.37-6.9-6.98,2.01h0ZM334.47,308.5l5.23-1.5-3,2.82-2.23-1.32ZM338.16,312.39l-1.2-2.32,3-2.82-1.8,5.14h0Z"/>
    <path class="st1" d="M368.44,303.97c-.33-3.49-1.02-6.95-2.06-10.3l-29.26-1.87s-.79,3.12-2.18,12.13l33.5.04Z"/>
    <path class="st12" d="M351.55,215.54s-2.63-5.09,5.7-9.25,18.6.82,17.39,11.6,9.48,19.32,1.76,27.34-32.39,6.29-31.79-3.93c.72-12.29,4.22-12.41,5.43-18.21s1.51-7.55,1.51-7.55h0Z"/>
    <path class="st20" d="M317.87,262.55s-4.21-6.49-4.67-6.7c-1.32-.62-3-1.36-3.56-2.6s-2.44-2.95-1.83-5.17,4-3.46,5.13-3.83,3.87,1.48,4.51,3.46c.39,1.9.49,3.86.31,5.79l4.6,4.67-4.49,4.38h0Z"/>
    <path class="st12" d="M316.54,261.93c2.14,3.71,5.33,8.23,8.92,9.19,5.52,1.48,16.74-12.58,16.74-12.58,0,0,8.82-21.17,1.67-16.59-3.62,2.33-7.33,6.85-11.11,13.14s-4.92,6.78-6.63,6.41c-.85-.18-2.66-2.71-4.3-4.45l-5.29,4.88h0Z"/>
    <path class="st9" d="M316.54,261.93c2.14,3.71,5.33,8.23,8.92,9.19,5.52,1.48,16.74-12.58,16.74-12.58,0,0,8.82-21.17,1.67-16.59-3.62,2.33-7.33,6.85-11.11,13.14s-4.92,6.78-6.63,6.41c-.85-.18-2.66-2.71-4.3-4.45l-5.29,4.88h0Z"/>
    <path class="st10" d="M344,253.99l-2.68-1.27-4.41,2.68s-1.89,9.76-6.13,14.18c5.4-3.44,11.47-11,11.47-11,0,0,.75-2,1.75-4.59Z"/>
    <path class="st20" d="M364.35,226.97c-1.15,4.19-2.44,10.34.29,13.23,0,0-.48,4.29-12.75,8.65-3.82-6.26-.38-9-.38-9,4.8-1,4.81-2.92,4.25-6.22l8.59-6.66h0Z"/>
    <path class="st9" d="M360.86,229.66l-5.05,4c.15.77.22,1.55.23,2.33,1.82-.21,4.76-1.67,5.3-3.62.07-.93-.09-1.86-.48-2.71Z"/>
    <path class="st20" d="M370.4,219.87c-2.42,6.86-3.3,9.81-7.79,12.55-6.77,4.14-14.54.1-14.19-7.24.32-6.6,4.23-16.75,11.76-17.88,5-.92,9.8,2.38,10.72,7.38.04.23.08.47.1.7.15,1.52-.06,3.06-.6,4.49Z"/>
    <path class="st12" d="M358.92,219.09c-.17.56-.6,1-1,.87s-.53-.62-.38-1.19.6-.95,1-.87.46.64.38,1.19Z"/>
    <path class="st12" d="M352.59,217.6c-.17.57-.6.95-1,.87s-.53-.62-.37-1.19.59-.95,1-.86.53.61.37,1.18h0Z"/>
    <path class="st18" d="M354.25,219.09c-.88,1.17-1.9,2.23-3.05,3.14.47.56,1.17.87,1.9.86l1.15-4Z"/>
    <path class="st12" d="M355.51,226.03c-.28-.02-.56-.07-.84-.14-.09,0-.15-.1-.13-.18v-.02h0c.04-.09.13-.14.22-.12,1.44.35,2.96.02,4.12-.9.07-.07.17-.07.24,0,.07.07.07.18,0,.25-1.01.83-2.31,1.23-3.61,1.11h0Z"/>
    <path class="st12" d="M361.83,218.4c-.15,0-.28-.11-.3-.26-.35-1.04-1.13-1.88-2.15-2.3-.17-.07-.25-.26-.18-.43h0c.07-.18.27-.27.45-.21h0c1.23.49,2.17,1.51,2.55,2.78.03.19-.09.36-.27.41h0s-.07.02-.1,0h0Z"/>
    <path class="st12" d="M351.54,214.19c-.12,0-.23-.08-.28-.19-.07-.18.01-.38.18-.46.99-.53,2.17-.53,3.16,0,.15.09.2.28.11.42v.02h0c-.1.16-.31.21-.47.12h0c-.78-.4-1.7-.4-2.48,0-.06.05-.13.09-.21.09h0Z"/>
    <path class="st12" d="M336.2,295.23s-1.26-42.92,2.54-48.47,11.39-9.06,22.23-7.58,15.54,3.51,13.81,11.84-6.89,46.8-6.89,46.8c0,0-19.89,2.78-31.69-2.59Z"/>
    <path class="st9" d="M336.2,295.23s-1.26-42.92,2.54-48.47,11.39-9.06,22.23-7.58,15.54,3.51,13.81,11.84-6.89,46.8-6.89,46.8c0,0-19.89,2.78-31.69-2.59Z"/>
    <path class="st12" d="M351.49,240.1l1-2.4c.41-.98,1.39-1.6,2.45-1.54l8.79.64c1.19.11,2.08,1.15,2,2.34l-.14,2.63-14.1-1.67h0Z"/>
    <path class="st9" d="M351.49,240.1l1-2.4c.41-.98,1.39-1.6,2.45-1.54l8.79.64c1.19.11,2.08,1.15,2,2.34l-.14,2.63-14.1-1.67h0Z"/>
    <path class="st10" d="M374.4,253.02l-.18-.63-2.72-2.07-3.16,2.07,3.66,16.33c.87-6.3,1.76-12.14,2.4-15.7Z"/>
    <path class="st20" d="M373.09,287.19l-3.09,3.79s-5.13,1-6.09,2.4-4.33,4.17-1.83,5.74c2.3,1.59,5.4,1.34,7.43-.58,2.05-1.92,3-3.21,3.21-4.32l4.57-4.72-4.2-2.31h0Z"/>
    <path class="st12" d="M360.38,206.29s-10.67.55-7.22,6.1c0,0,5.42-.46,8.24,2.22,0,0,.38-3.61,3.06-3.61,0,0-3.9,3.78-.43,8.09s.23,6.24.23,6.24c0,0,1.72.84,3.25-1.93l2.37-.31,1.71-4.61.32-6-1.73-3-2.72-2.35-3.68-.88-3.4.04Z"/>
    <path class="st20" d="M370.74,225.67c-.79,1.14-1.98,1.94-3.33,2.25-1.78.37-2.47-1.23-1.81-2.85.62-1.45,2.28-3.39,4-3.07,1.18.26,1.92,1.44,1.66,2.62-.01.05-.02.1-.04.14-.09.33-.26.64-.48.91h0Z"/>
    <path class="st12" d="M370.08,241.18s7.45,2.07,13.28,22.67-7.51,28-7.51,28l-4-4.44s5.45-7.52,5.06-12-4.67-14.43-4.67-14.43c0,0-11.39-21-2.16-19.8h0Z"/>
    <path class="st9" d="M370.08,241.18s7.45,2.07,13.28,22.67-7.51,28-7.51,28l-4-4.44s5.45-7.52,5.06-12-4.67-14.43-4.67-14.43c0,0-11.39-21-2.16-19.8h0Z"/>
    <path class="st19" d="M372.89,192.4h-14.11c-.7,0-.79-1.08-.1-1.08h14.12c.69,0,.79,1.08.09,1.08h0Z"/>
    <path class="st19" d="M353.61,192.4h-4.06c-.69,0-.79-1.08-.09-1.08h4.05c.7,0,.8,1.08.1,1.08Z"/>
    <g class="st13">
      <path class="st1" d="M372.89,192.4h-14.11c-.7,0-.79-1.08-.1-1.08h14.12c.69,0,.79,1.08.09,1.08h0Z"/>
    </g>
    <g class="st13">
      <path class="st1" d="M353.61,192.4h-4.06c-.69,0-.79-1.08-.09-1.08h4.05c.7,0,.8,1.08.1,1.08Z"/>
    </g>
  </g>
  <g id="freepik--character-2--inject-34">
    <polygon class="st17" points="259.15 478.06 258.91 491.45 265.95 491.03 266.82 478.9 259.15 478.06"/>
    <path class="st12" d="M267.23,490.18l-8.9-.16c-.33,0-.63.22-.71.54l-1.73,7.24c-.16.64.23,1.28.87,1.44h.25c3.2,0,6.06-.13,10.05-.05,4.71.09,3.5.63,9,.81,3.33.1,4-3.68,2.6-3.89-6.46-.93-7.1-2.9-9.55-5.26-.52-.44-1.19-.68-1.88-.67h0Z"/>
    <polygon class="st9" points="259.11 480.17 259.02 485.19 266.36 485.42 266.64 481.4 259.11 480.17"/>
    <polygon class="st17" points="227.73 475.71 225.99 488.98 233.03 489.35 235.25 477.4 227.73 475.71"/>
    <path class="st12" d="M234.39,488.65l-8.82-1.15c-.33-.05-.65.14-.76.46l-2.54,7c-.22.62.09,1.3.7,1.53.08.03.16.05.25.06,3.18.36,6,.56,10,1.08,4.67.62,3.41,1,8.89,1.82,3.3.48,4.4-3.2,3-3.57-6.31-1.65-6.72-3.68-8.9-6.3-.47-.52-1.12-.85-1.82-.93h0Z"/>
    <polygon class="st9" points="227.45 477.8 226.8 482.78 234.06 483.83 234.8 479.86 227.45 477.8"/>
    <path class="st12" d="M264,240.8s-13.35-4.26-16.38,7.55-2.36,15.13-7.75,19.44c6.08,4.01,13.41,5.69,20.63,4.71,0,0,6.76,1.68,11.34-.71s2.19-18.29.84-22.6c-1.55-4.88-5.15-8.3-8.68-8.39Z"/>
    <path class="st12" d="M268.74,326.97s7.75,62.85,6.2,75.25-7.23,81.11-7.23,81.11h-9.82s-3.44-59.24,0-82.48c0,0-9.13-53.39-8.09-66.82s18.33-11.52,18.94-7.06h0Z"/>
    <path class="st8" d="M256.43,391.98c2.17-21-2.39-44.86-2.39-44.86l-3.14,5.54c1.46,13.25,3.95,29.49,5.53,39.32h0Z"/>
    <path class="st12" d="M254.75,356.16c0,18.64-.18,40.88-1.81,47.57-3,12.14-17.51,77.71-17.51,77.71l-9.75-1.13s4.4-57.33,10.49-80c0,0-1.29-21.47-1.42-41.29,0,0-5.85-16,1.58-36,0,0,16.58-4.7,21.84,1.95,0,0-3.43,23.18-3.42,31.19h0Z"/>
    <path class="st17" d="M281.08,297.65l5.16,15.89s8.79,1.16,15.24-.9c1.71-2.44,4.4-4,7.37-4.27,4.77-.25,5.16.52,5.16.52-.21.58-.69,1.02-1.29,1.16-1,.26-2.84.52-2.84.52,0,0,.13,6.46-2.84,7.36-1.77.54-3.66.54-5.43,0,0,0-14.33,3.88-18.85,2.45s-8.53-20.36-8.53-20.36l6.85-2.37h0Z"/>
    <path class="st19" d="M275.33,279.56s3.85,0,5.23,6.51,1.72,8.61,1.72,8.61c0,0,1.55.86,1,3.36-2.13,2.21-4.64,4.02-7.41,5.34-4.09,1.81-3.45-23.8-.54-23.82h0Z"/>
    <path class="st7" d="M279.31,287.71l-4.08,2.45-2.23,3.58c.13,5.56,1,10.47,2.91,9.64,1.19-.53,2.33-1.18,3.4-1.94v-13.73Z"/>
    <path class="st19" d="M269.37,331.1s3.3-15.9,5-20.32c1.33-3.48,2.93-5.85,3.62-14.46.33-4.15,4-14.64-1.9-16.53s-31.68-7.41-35.13-3.27-2.12,29.22-3.27,38.91c-.34,2.87-2.75,11.2-2.75,11.2l34.43,4.47Z"/>
    <path class="st17" d="M234.33,288.39l5,8.1s-2.58,8.4-4.39,13.56c0,0,7.23,6.59,14.59,8.53,0,0,5.43-.78,8.4,1s2.64,3.36,2.64,3.36c0,0-3.74,4.3-6.37,3.37s-3.89-.92-5.83-2.86c0,0-20.51-5.68-21.69-10.2-1.68-6.45,7.65-24.86,7.65-24.86Z"/>
    <path class="st17" d="M256,261.69c.12,4.34-.74,11.64-4.69,13,0,0,.42,4.88,11.55,11.51,5.32-5.44,3.48-9.31,3.48-9.31-5.3-1.83-4.79-3.8-3.43-6.94l-6.91-8.26Z"/>
    <path class="st19" d="M245.17,275.57s-4.73-2.15-11.53,9.13c-1.24,0-2.23,1.02-2.22,2.26,0,.16.02.33.06.49,0,0,4.14,9.56,9,12.57,0,0,2.5-.43.95-3.27.04.05,4.43-16.1,3.74-21.18h0Z"/>
    <path class="st1" d="M251.44,274.41s6.73,10.54,10.87,10.37,3.63-8.27,3.63-8.27l3.08.69s.43,16-5.77,9.65c0,0-1.59,2.71-5.64.95s-8.76-13.39-8.76-13.39h2.59Z"/>
    <path class="st7" d="M258.09,267.13c.65,2.14,2.08,3.96,4,5.1.19-.8.46-1.58.81-2.32l-1.9-2.27-2.91-.51Z"/>
    <path class="st17" d="M251.69,253.55c.73,7.22.9,10.28,4.7,13.84,5.72,5.36,14.42,2.87,15.86-4.41,1.28-6.57-.14-17.3-7.34-19.85-5.14-1.87-10.82.78-12.69,5.92-.52,1.44-.71,2.98-.53,4.5h0Z"/>
    <path class="st12" d="M263.29,257.04c0,.59.36,1,.74,1s.68-.51.66-1.1-.36-1.05-.74-1-.65.54-.66,1.1Z"/>
    <path class="st12" d="M269.94,256.8c0,.6.36,1.06.74,1.05s.68-.52.67-1.1-.37-1.06-.75-1-.68.45-.66,1.05Z"/>
    <path class="st12" d="M270.43,255.73l1.4-.46s-.68,1.13-1.4.46Z"/>
    <path class="st18" d="M267.94,257.93c.58,1.32,1.34,2.56,2.26,3.68-.6.45-1.36.63-2.09.48l-.17-4.16h0Z"/>
    <path class="st12" d="M265,264.52c.29.02.58.02.87,0,.09,0,.17-.08.17-.17h0c-.01-.1-.09-.17-.19-.16-1.49.09-2.92-.53-3.88-1.67-.06-.07-.16-.07-.23,0h-.01c-.07.08-.07.18,0,.25.82.99,1.99,1.63,3.27,1.76h0Z"/>
    <path class="st12" d="M260.56,255.8c.15.02.3-.06.36-.2.6-.97,1.58-1.64,2.7-1.85.19-.04.32-.22.29-.41-.04-.18-.21-.31-.4-.27h0c-1.35.25-2.52,1.07-3.21,2.25-.08.17,0,.37.17.45h0s.06.03.09.03h0Z"/>
    <path class="st12" d="M271.81,253.63c.13.02.25-.04.33-.14.11-.15.08-.36-.07-.48-.88-.71-2.05-.94-3.13-.61-.17.06-.27.24-.22.42h0c.07.18.26.27.44.21h0c.85-.23,1.76-.04,2.45.51.05.05.13.08.2.09Z"/>
    <path class="st12" d="M263.78,256.04l1.39-.46s-.67,1.09-1.39.46Z"/>
    <path class="st12" d="M272.21,250.47s-1.29-4.48-2.71-5.83-4.46-3.36-11.41-2.11-9.26,17.67-4.93,16.18c4.33-1.49,7.33-7,7.33-7l-.81,3c3.5-1.87,5.15-6.88,5.44-7.83,1.03,1.6,1.56,3.47,1.54,5.37,0,0,3.52-1.74,1.67-4.8,1.48.74,2.8,1.77,3.88,3.02h0Z"/>
    <path class="st17" d="M250,259.19c.51,1.27,1.49,2.3,2.75,2.85,1.69.71,2.76-.74,2.49-2.46-.25-1.54-1.43-3.77-3.21-3.78-1.29.03-2.31,1.11-2.28,2.4h0c0,.34.09.68.25.99Z"/>
  </g>
  <g id="freepik--character-1--inject-34">
    <path class="st19" d="M206.47,408.8h-103.87c-2.76,0-5-2.23-5.01-4.99,0-.11,0-.23.01-.34l8-152c.18-2.97,2.62-5.3,5.6-5.33h103.8c2.76,0,5,2.23,5.01,4.99,0,.11,0,.23,0,.34l-8,152c-.18,2.94-2.58,5.26-5.53,5.33Z"/>
    <path class="st3" d="M206.47,408.8h-103.87c-2.76,0-5-2.23-5.01-4.99,0-.11,0-.23.01-.34l8-152c.18-2.97,2.62-5.3,5.6-5.33h103.8c2.76,0,5,2.23,5.01,4.99,0,.11,0,.23,0,.34l-8,152c-.18,2.94-2.58,5.26-5.53,5.33Z"/>
    <path class="st19" d="M205,407.22h-103.86c-2.76,0-5-2.23-5.01-4.99,0-.11,0-.23.01-.34l8-152c.18-2.97,2.63-5.3,5.61-5.33h103.78c2.76-.03,5.03,2.18,5.06,4.94,0,.13,0,.26,0,.39l-8,152c-.19,2.96-2.62,5.28-5.58,5.33Z"/>
    <path class="st6" d="M205,407.22h-103.86c-2.76,0-5-2.23-5.01-4.99,0-.11,0-.23.01-.34l8-152c.18-2.97,2.63-5.3,5.61-5.33h103.78c2.76-.03,5.03,2.18,5.06,4.94,0,.13,0,.26,0,.39l-8,152c-.19,2.96-2.62,5.28-5.58,5.33Z"/>
    <polygon class="st19" points="207.45 370.84 102.51 370.84 106.2 300.4 211.14 300.4 207.45 370.84"/>
    <polygon class="st1" points="211.14 300.4 106.2 300.4 107.91 267.75 212.85 267.75 211.14 300.4"/>
    <polygon class="st1" points="205.82 401.94 100.88 401.94 102.51 370.84 207.45 370.84 205.82 401.94"/>
    <polygon class="st19" points="212.95 265.87 108.01 265.87 108.82 250.35 213.76 250.35 212.95 265.87"/>
    <path class="st19" d="M122.87,279.4c-.2,3.44-3.04,6.14-6.49,6.17-3.2.03-5.82-2.53-5.85-5.73,0-.15,0-.3.01-.44.21-3.44,3.04-6.13,6.49-6.17,3.2-.03,5.82,2.53,5.85,5.73,0,.15,0,.3-.01.44Z"/>
    <path class="st8" d="M122.87,279.4c-.2,3.44-3.04,6.14-6.49,6.17-3.2.03-5.82-2.53-5.85-5.73,0-.15,0-.3.01-.44.21-3.44,3.04-6.13,6.49-6.17,3.2-.03,5.82,2.53,5.85,5.73,0,.15,0,.3-.01.44Z"/>
    <path class="st1" d="M116.38,285.57c1.28,0,2.53-.39,3.59-1.11l-.24-1.93c-.09-.73-.71-1.28-1.45-1.26h-.73v-.8c.88-.46,1.45-1.36,1.5-2.36.15-1.27-.76-2.43-2.03-2.58-.05,0-.1,0-.15,0-1.37.09-2.43,1.22-2.45,2.59-.08.96.41,1.89,1.25,2.36v.8h-.73c-.75,0-1.41.52-1.58,1.26l-.44,1.93c1.01.73,2.22,1.12,3.46,1.11Z"/>
    <path d="M127.47,278.23h24.25c1.12,0,1.21-1.73.09-1.73h-24.25c-1.11,0-1.21,1.73-.09,1.73Z"/>
    <g class="st11">
      <path class="st1" d="M127.47,278.23h24.25c1.12,0,1.21-1.73.09-1.73h-24.25c-1.11,0-1.21,1.73-.09,1.73Z"/>
    </g>
    <path d="M129.37,379.05h43.5c.74,0,.81-1.15.06-1.15h-43.5c-.74,0-.8,1.15-.06,1.15Z"/>
    <g class="st11">
      <path class="st1" d="M129.37,379.05h43.5c.74,0,.81-1.15.06-1.15h-43.5c-.74,0-.8,1.15-.06,1.15Z"/>
    </g>
    <path d="M183.37,379.05h19.7c.74,0,.81-1.15.06-1.15h-19.7c-.74,0-.8,1.15-.06,1.15Z"/>
    <g class="st11">
      <path class="st1" d="M183.37,379.05h19.7c.74,0,.81-1.15.06-1.15h-19.7c-.74,0-.8,1.15-.06,1.15Z"/>
    </g>
    <path d="M125.92,394.74h6.08c1.11,0,1.2-1.73.09-1.73h-6.09c-1.11,0-1.21,1.73-.09,1.73h0Z"/>
    <g class="st11">
      <path class="st1" d="M125.92,394.74h6.08c1.11,0,1.2-1.73.09-1.73h-6.09c-1.11,0-1.21,1.73-.09,1.73h0Z"/>
    </g>
    <path d="M184.41,394.74h7.64c1.11,0,1.2-1.73.09-1.73h-7.64c-1.11,0-1.2,1.73-.09,1.73Z"/>
    <g class="st11">
      <path class="st1" d="M184.41,394.74h7.64c1.11,0,1.2-1.73.09-1.73h-7.64c-1.11,0-1.2,1.73-.09,1.73Z"/>
    </g>
    <path d="M151.35,394.74h14.42c1.11,0,1.2-1.73.09-1.73h-14.42c-1.11,0-1.21,1.73-.09,1.73Z"/>
    <g class="st11">
      <path class="st1" d="M151.35,394.74h14.42c1.11,0,1.2-1.73.09-1.73h-14.42c-1.11,0-1.21,1.73-.09,1.73Z"/>
    </g>
    <path d="M110.44,292.06h28.44c.74,0,.8-1.16.06-1.16h-28.44c-.75,0-.81,1.16-.06,1.16Z"/>
    <g class="st11">
      <path class="st1" d="M110.44,292.06h28.44c.74,0,.8-1.16.06-1.16h-28.44c-.75,0-.81,1.16-.06,1.16Z"/>
    </g>
    <path d="M127.26,282.3h32c.74,0,.8-1.15.06-1.15h-32c-.74,0-.81,1.15-.06,1.15Z"/>
    <g class="st11">
      <path class="st1" d="M127.26,282.3h32c.74,0,.8-1.15.06-1.15h-32c-.74,0-.81,1.15-.06,1.15Z"/>
    </g>
    <path class="st12" d="M165.32,281.73c-.05.76-.67,1.35-1.43,1.36-.71,0-1.29-.56-1.29-1.27v-.09c.05-.76.67-1.35,1.43-1.36.71,0,1.29.56,1.29,1.27v.09Z"/>
    <path class="st4" d="M165.32,281.73c-.05.76-.67,1.35-1.43,1.36-.71,0-1.29-.56-1.29-1.27v-.09c.05-.76.67-1.35,1.43-1.36.71,0,1.29.56,1.29,1.27v.09Z"/>
    <path d="M204.68,279.4c-.3,0-.55-.25-.55-.55v-.03c.02-.32.29-.57.61-.57.3,0,.54.23.55.53v.04c-.02.32-.29.58-.61.58h0Z"/>
    <path d="M206.48,279.4c-.3,0-.55-.23-.55-.53v-.05c.02-.32.29-.57.61-.57.29,0,.54.23.54.52v.05c0,.32-.28.58-.6.58h0Z"/>
    <path d="M208.27,279.4c-.3,0-.54-.24-.54-.54v-.04c.02-.32.28-.57.6-.57.3,0,.54.23.55.53v.04c-.02.32-.29.58-.61.58h0Z"/>
    <g class="st15">
      <path class="st1" d="M204.68,279.4c-.3,0-.55-.25-.55-.55v-.03c.02-.32.29-.57.61-.57.3,0,.54.23.55.53v.04c-.02.32-.29.58-.61.58h0Z"/>
      <path class="st1" d="M206.48,279.4c-.3,0-.55-.23-.55-.53v-.05c.02-.32.29-.57.61-.57.29,0,.54.23.54.52v.05c0,.32-.28.58-.6.58h0Z"/>
      <path class="st1" d="M208.27,279.4c-.3,0-.54-.24-.54-.54v-.04c.02-.32.28-.57.6-.57.3,0,.54.23.55.53v.04c-.02.32-.29.58-.61.58h0Z"/>
    </g>
    <path class="st8" d="M194.93,252.73h-67.34c-2.47.03-4.5,1.95-4.66,4.42-.15,2.29,1.59,4.27,3.88,4.42h67.66c2.47-.03,4.51-1.96,4.66-4.43.14-2.29-1.6-4.27-3.89-4.41h-.31Z"/>
    <path class="st1" d="M206.36,253.86c-1.83.02-3.33,1.45-3.44,3.27-.03.48.06.97.25,1.41l-.38,1.91,2-.29c.39.16.81.24,1.23.24,1.83-.02,3.33-1.45,3.44-3.27.11-1.69-1.17-3.15-2.86-3.26h-.24,0ZM205.82,258.75l.07-1.41-1.54.32,2.2-2.1-.07,1.41,1.55-.32-2.21,2.1Z"/>
    <polygon class="st1" points="112.06 256.85 114.41 257.81 117.01 256.03 115.06 258.34 116.49 260.36 118.76 254.73 112.06 256.85"/>
    <polygon class="st1" points="114.13 258.68 115.19 259.98 114.06 259.98 114.13 258.68"/>
    <path class="st19" d="M116.37,375.08c-1.74.02-3.17,1.38-3.27,3.12-.1,1.62,1.13,3.01,2.74,3.11h.26c1.74-.02,3.16-1.38,3.27-3.11.11-1.61-1.12-3.01-2.73-3.11h-.27ZM115.15,379.57c-.01.21-.19.38-.4.38s-.36-.15-.37-.35v-.03l.07-1.28c.01-.21.19-.39.4-.39s.36.15.37.35v.04l-.07,1.28ZM117.66,379.57c0,.06-.04.12-.08.16l-.14.15c-.06.08-.16.12-.26.12h-1.46c-.14,0-.25-.1-.26-.24v-.03l.08-1.54c0-.09.03-.17.09-.23l.69-.87v-.6h.32c.13,0,.23.09.25.22v.57l-.29.67h1.13l.18.25s-.25,1.37-.25,1.37Z"/>
    <path d="M116.55,391.8h-.71c-.34,0-.62.27-.64.61l-.2,3.29c-.02.31.21.58.52.6h.76c.34,0,.62-.26.64-.6l.17-3.28c.03-.31-.2-.59-.52-.62h-.02ZM116.55,395.69c-.01.12-.11.22-.24.22h-.71c-.12,0-.21-.09-.21-.21h0s.17-3.29.17-3.29c.01-.12.12-.22.24-.22h.71c.12,0,.21.09.21.21h0s-.17,3.29-.17,3.29Z"/>
    <path d="M122.16,391.8h-2.08l.46-1.09c.05-.12.07-.24.06-.37l-.1-.86c-.04-.35-.33-.61-.68-.6h-.82l-.07,1.33-1.34,1.69c-.13.17-.21.37-.22.58l-.16,3.07c-.02.39.27.72.66.74h2.96c.26,0,.5-.12.68-.3l.27-.3c.1-.12.17-.27.21-.42l.64-2.84-.47-.63ZM121.61,395.21c-.02.08-.06.16-.12.23l-.27.3c-.1.11-.24.17-.38.17h-2.91c-.18,0-.33-.14-.34-.32v-.04l.16-3.07c0-.13.05-.25.13-.35l1.42-1.8.06-1.07h.44c.16,0,.3.12.32.28l.1.86v.18l-.69,1.61h2.47l.26.35-.65,2.67h0Z"/>
    <g class="st15">
      <path class="st1" d="M116.55,391.8h-.71c-.34,0-.62.27-.64.61l-.2,3.29c-.02.31.21.58.52.6h.76c.34,0,.62-.26.64-.6l.17-3.28c.03-.31-.2-.59-.52-.62h-.02ZM116.55,395.69c-.01.12-.11.22-.24.22h-.71c-.12,0-.21-.09-.21-.21h0s.17-3.29.17-3.29c.01-.12.12-.22.24-.22h.71c.12,0,.21.09.21.21h0s-.17,3.29-.17,3.29Z"/>
      <path class="st1" d="M122.16,391.8h-2.08l.46-1.09c.05-.12.07-.24.06-.37l-.1-.86c-.04-.35-.33-.61-.68-.6h-.82l-.07,1.33-1.34,1.69c-.13.17-.21.37-.22.58l-.16,3.07c-.02.39.27.72.66.74h2.96c.26,0,.5-.12.68-.3l.27-.3c.1-.12.17-.27.21-.42l.64-2.84-.47-.63ZM121.61,395.21c-.02.08-.06.16-.12.23l-.27.3c-.1.11-.24.17-.38.17h-2.91c-.18,0-.33-.14-.34-.32v-.04l.16-3.07c0-.13.05-.25.13-.35l1.42-1.8.06-1.07h.44c.16,0,.3.12.32.28l.1.86v.18l-.69,1.61h2.47l.26.35-.65,2.67h0Z"/>
    </g>
    <path d="M143.11,397.21l.1-1.89h-1.06c-.55,0-1-.45-1-1l.2-3.76c.05-.56.51-.99,1.07-1h4.8c.55,0,1,.45,1,1l-.2,3.76c-.05.56-.51.99-1.07,1h-1.85l-1.99,1.89ZM142.43,389.87c-.38,0-.68.3-.71.67l-.19,3.76c-.03.35.23.65.58.68h1.46l-.07,1.4,1.47-1.4h2c.38,0,.68-.3.71-.68l.19-3.76c.02-.35-.24-.65-.59-.67h-4.85Z"/>
    <g class="st15">
      <path class="st1" d="M143.11,397.21l.1-1.89h-1.06c-.55,0-1-.45-1-1l.2-3.76c.05-.56.51-.99,1.07-1h4.8c.55,0,1,.45,1,1l-.2,3.76c-.05.56-.51.99-1.07,1h-1.85l-1.99,1.89ZM142.43,389.87c-.38,0-.68.3-.71.67l-.19,3.76c-.03.35.23.65.58.68h1.46l-.07,1.4,1.47-1.4h2c.38,0,.68-.3.71-.68l.19-3.76c.02-.35-.24-.65-.59-.67h-4.85Z"/>
    </g>
    <path d="M172.94,396.95v-.68c.19-3.77,3.34-4.68,4.84-4.91l.09-1.57,3,3.18-3.36,3.19.11-2c-3.22.31-4.37,2.18-4.38,2.2l-.3.59h0ZM178.21,390.62l-.06,1.05h-.15c-1.57.2-4.18,1-4.62,4,1.19-1.19,2.8-1.87,4.48-1.91h.18l-.08,1.56,2.48-2.36-2.23-2.34Z"/>
    <g class="st15">
      <path class="st1" d="M172.94,396.95v-.68c.19-3.77,3.34-4.68,4.84-4.91l.09-1.57,3,3.18-3.36,3.19.11-2c-3.22.31-4.37,2.18-4.38,2.2l-.3.59h0ZM178.21,390.62l-.06,1.05h-.15c-1.57.2-4.18,1-4.62,4,1.19-1.19,2.8-1.87,4.48-1.91h.18l-.08,1.56,2.48-2.36-2.23-2.34Z"/>
    </g>
    <path class="st19" d="M123.43,375.08c-1.74.02-3.17,1.38-3.28,3.12-.1,1.62,1.13,3.01,2.74,3.1h.21c1.74-.02,3.16-1.38,3.27-3.11.1-1.61-1.12-3.01-2.73-3.11h-.21,0ZM121.84,377.49c-.21,0-.37-.25-.36-.56s.21-.56.42-.56.37.25.35.56-.2.56-.41.56ZM123.23,380.34c-.48,0-.85-.57-.81-1.27s.46-1.27.94-1.27.85.57.81,1.27-.46,1.27-.94,1.27ZM124.92,377.49c-.21,0-.37-.25-.36-.56s.21-.56.42-.56.37.25.35.56-.2.56-.41.56Z"/>
    <path class="st19" d="M108.64,375.08c-1.74.02-3.17,1.38-3.28,3.12-.1,1.62,1.13,3.01,2.74,3.11h.26c1.74-.02,3.17-1.38,3.28-3.11.11-1.61-1.12-3.01-2.73-3.11h-.27ZM110,378.33v.05l-1.56,1.48-1.44-1.48h0v-.05h0c-.37-.49-.27-1.19.22-1.55.42-.31,1-.3,1.39.04.42-.4,1.08-.38,1.48.04s.38,1.08-.04,1.48h-.05Z"/>
    <path class="st1" d="M163.18,259.47l-1.68-1.78c.61-.92.35-2.16-.58-2.77-.72-.47-1.67-.43-2.34.11-.84.72-.93,1.98-.21,2.82.02.02.04.04.05.06.71.72,1.85.8,2.65.18l1.69,1.78.42-.4ZM158.85,257.47c-.6-.57-.62-1.52-.05-2.12.57-.6,1.52-.62,2.12-.05.6.57.62,1.52.05,2.12l-.05.05c-.56.58-1.48.6-2.06.04h0v-.03h0Z"/>
    <path class="st14" d="M169.76,324.1c3.5.61,6.47,2.92,7.92,6.17,2.62,5.6,6,16.4,8,17.25s10.54-7.59,10.54-7.59c0,0-1.75-5.58.87-6.46s2.09-4.78,4.54-4,3.84,4.31,3.66,6.23-4.71,6.28-4.71,6.28c0,0-8.2,14.6-16.58,13.27s-14.22-23.56-14.22-23.56c0,0-2.37-7.89-.02-7.59h0Z"/>
    <path class="st9" d="M172.09,338.92c1.83,4.95,4.67,11.19,8.16,14.37-3.78-6.08-4.69-19.6-4.69-19.6l-3.47,5.23Z"/>
    <path class="st12" d="M163.54,293.04c.28.07.55.16.82.27,4.69,1.8,7.19,6.91,5.75,11.72-.57,2.06-.57,4.25,0,6.31.86,3.08-.95,6.27-4.03,7.13-.38.11-.78.17-1.17.2-2.38.32-4.8.06-7.05-.77-1.33-.61-2.85-.69-4.24-.2-4.18,1.54-8.66,2.15-13.1,1.79-2.26-.28-4.46-.95-6.48-2-2.79-1.44-3.89-4.87-2.45-7.66.41-.81,1.02-1.5,1.75-2.03,2.21-1.47,4.09-3.39,5.5-5.63,1.89-3.22,4.34-6.08,7.23-8.45.48-.41,1.02-.73,1.61-.95l1.62-.63c.32-.12.66-.22,1-.29l3.84-.69c.8-.15,1.62-.12,2.41.08l6.99,1.8Z"/>
    <path class="st19" d="M141.07,325.8c3-.85,6.03-1.56,9.1-2.1l.1.09.16.15,1.35,1,3.66,2.21,3,.47,2.91-.71,1.86-2.59.34-1.49v-.03c3.27.13,6.48.85,9.49,2.13,1.09.49,1.81,1.55,1.87,2.74.25,3.45.68,6.88,1.3,10.28,1.21,7.16-2.5,23.19-3.94,29-.33,1.3-1.43,2.27-2.76,2.44-8.22,1.13-16.56,1.18-24.8.16-1.6-.21-2.8-1.57-2.83-3.18-.1-9.18-2.34-29.67-3.18-37-.21-1.61.8-3.14,2.37-3.57h0Z"/>
    <path class="st2" d="M141.07,325.8c3-.85,6.03-1.56,9.1-2.1l.1.09.16.15,1.35,1,3.66,2.21,3,.47,2.91-.71,1.86-2.59.34-1.49v-.03c3.27.13,6.48.85,9.49,2.13,1.09.49,1.81,1.55,1.87,2.74.25,3.45.68,6.88,1.3,10.28,1.21,7.16-2.5,23.19-3.94,29-.33,1.3-1.43,2.27-2.76,2.44-8.22,1.13-16.56,1.18-24.8.16-1.6-.21-2.8-1.57-2.83-3.18-.1-9.18-2.34-29.67-3.18-37-.21-1.61.8-3.14,2.37-3.57h0Z"/>
    <path class="st14" d="M151.71,323.46c2.37-2.49,1.42-13.66,1.42-13.66l6.93,4.71s.41,6.91,2.07,8.24c.38.31,1,.05,1.42.08l-.42,1.76-1.29,2.21-1.78,1.26h-2.62l-2.36-.68-2.69-1.87-2.19-1.77c.51-.11,1.17.06,1.51-.28h0Z"/>
    <path class="st7" d="M160.54,316.42c-4.56-.52-6.66-2.88-7.6-4.75l.19-1.87,6.93,4.71.48,1.91h0Z"/>
    <path class="st12" d="M166.78,289.6s2.49,4.07-1.85,4.63c0,0,2.39-2.68,1.85-4.63Z"/>
    <polygon class="st19" points="148.28 310.68 150.22 308.74 152.16 310.68 148.28 310.68"/>
    <path class="st14" d="M150.29,302.63c1.46,5.75,2,8.21,5.46,10.64,5.28,3.65,12,.59,12.32-5.48.25-5.46-2.19-14-8.33-15.18-4.38-.9-8.65,1.92-9.55,6.29-.25,1.23-.22,2.5.1,3.71v.02h0Z"/>
    <path class="st12" d="M159.85,302.39c.1.47.42.81.73.75s.49-.49.4-1-.42-.82-.72-.76-.47.55-.41,1.01h0Z"/>
    <path class="st12" d="M165.21,301.38c.09.48.42.81.72.76s.49-.5.41-1-.42-.81-.73-.75-.49.52-.4.99h0Z"/>
    <path class="st12" d="M165.48,300.47l1.08-.54s-.42,1-1.08.54Z"/>
    <path class="st18" d="M163.72,302.55c.63,1,1.39,1.92,2.27,2.71-.42.44-1.02.67-1.63.64l-.64-3.35Z"/>
    <path class="st12" d="M157.5,301.72c.12,0,.23-.08.26-.2.38-.86,1.11-1.53,2-1.83.15-.05.23-.2.18-.35h0c-.05-.15-.2-.23-.35-.18h0c-1.06.36-1.91,1.17-2.33,2.21-.04.15.05.3.19.34h.09l-.04.02h0Z"/>
    <path class="st12" d="M166.35,298.61c.1,0,.19-.06.24-.15.08-.13.03-.3-.1-.38h0c-.8-.47-1.78-.51-2.61-.11-.14.06-.19.22-.13.36h0c.07.13.24.18.37.11h0c.65-.27,1.39-.23,2,.12.07.05.16.07.24.06h0Z"/>
    <path class="st12" d="M160.12,301.52l1.08-.54s-.41.96-1.08.54Z"/>
    <path class="st12" d="M162.82,289.35c2.09,1.16,7.71,6.95-7.44,6,0,0,0,9.46-4.73,10.75l-12.45-2.06s4.95-25.55,24.62-14.69Z"/>
    <path class="st14" d="M149.55,307.4c.56.98,1.49,1.7,2.58,2,1.45.37,2.14-.93,1.72-2.29s-1.62-2.88-3.06-2.68c-1.04.18-1.74,1.17-1.56,2.22.05.28.16.55.32.78v-.03h0Z"/>
    <path class="st12" d="M164.86,307.55c-1.5.66-3.22.66-4.72,0,0,0-.19,2.9,3.25,2.66.37,0,1.47-.18,1.47-.18-.17-.82-.17-1.66,0-2.48h0Z"/>
    <path class="st1" d="M160.29,308.55c-.11-.32-.16-.66-.15-1,1.24.52,2.62.62,3.92.29v1c-1.26.2-2.55.1-3.77-.29Z"/>
    <path class="st16" d="M160.61,309.19c.25-.02.51-.02.76,0,1.1-.03,2.18.3,3.08.94-.35.05-.84.12-1.06.13-1.05.19-2.13-.22-2.78-1.07Z"/>
    <path class="st1" d="M164.87,322.8s-1.62-.55-2.27,0c0,0,.12,4.21-3.27,4.74s-8.61-4.07-8.61-4.07c-.78-.18-1.59-.05-2.28.35,0,0,4,5.81,11,5.81,5.62.03,5.43-6.83,5.43-6.83h0Z"/>
    <path class="st14" d="M135.12,336.52c0-2.17.56-9.05,5.24-10.39s4.2,14,3.1,21.69-2.46,9.56.74,10.21l18.33,3.77s3.27-3.46,5.55-3.14,4.88-1.52,5.12.94-1.26,7.62-4.48,7.51c-2.07-.08-4.14-.27-6.19-.58,0,0-15,1.83-22.53-.82s-5.09-20.18-4.88-29.19h0Z"/>
    <path class="st12" d="M173.11,370.8l-.82-3.89s-21.23,2.2-30.29.18l-1.18,3.71h32.29,0Z"/>
    <path class="st19" d="M165.88,415.14h-14.11c-.7,0-.79-1.08-.1-1.08h14.12c.69,0,.79,1.08.09,1.08h0Z"/>
    <path class="st19" d="M146.6,415.14h-4.06c-.69,0-.79-1.08-.09-1.08h4.05c.7,0,.79,1.08.1,1.08h0Z"/>
    <g class="st13">
      <path class="st1" d="M165.88,415.14h-14.11c-.7,0-.79-1.08-.1-1.08h14.12c.69,0,.79,1.08.09,1.08h0Z"/>
    </g>
    <g class="st13">
      <path class="st1" d="M146.6,415.14h-4.06c-.69,0-.79-1.08-.09-1.08h4.05c.7,0,.79,1.08.1,1.08h0Z"/>
    </g>
  </g>
</svg>