<?xml version="1.0" encoding="UTF-8"?>
<svg id="Layer_1" xmlns="http://www.w3.org/2000/svg" version="1.1" viewBox="0 0 500 500">
  <!-- Generator: Adobe Illustrator 29.5.0, SVG Export Plug-In . SVG Version: 2.1.0 Build 137)  -->
  <defs>
    <style>
      .st0 {
        fill: #37474f;
      }

      .st1 {
        fill: #ff9abb;
      }

      .st2 {
        fill: #263238;
      }

      .st3 {
        fill: #2cdb99;
      }

      .st4 {
        fill: #fff;
      }

      .st5 {
        fill: #d3766a;
      }

      .st6, .st7 {
        isolation: isolate;
      }

      .st6, .st8 {
        opacity: .1;
      }

      .st7 {
        opacity: .3;
      }

      .st9 {
        fill: #455a64;
      }
    </style>
  </defs>
  <g>
    <g id="freepik--Target--inject-119">
      <rect class="st9" x="370.03" y="346.38" width="42.9" height="1.8"/>
      <polygon class="st9" points="411.31 348.18 432.37 344.1 432.37 342.3 411.31 346.38 411.31 348.18"/>
      <polygon class="st9" points="363.29 385.97 360 385.97 378.15 293.54 386.36 293.54 363.29 385.97"/>
      <path class="st0" d="M378.15,293.51h8.2l-4.88,19.55c-2.28-.66-4.51-1.52-6.65-2.55l3.33-17Z"/>
      <polygon class="st9" points="420.74 385.97 424.03 385.97 400.96 293.54 392.76 293.54 420.74 385.97"/>
      <path class="st0" d="M400.96,293.51l4.93,19.75c-2.21.63-4.46,1.08-6.74,1.35l-6.38-21.1h8.19Z"/>
      <polygon class="st9" points="448.07 385.97 451.36 385.97 411.51 288.52 403.31 288.52 448.07 385.97"/>
      <path class="st0" d="M419.09,307.09c-1.81,1.24-3.71,2.36-5.68,3.33l-10.1-21.91h8.2l7.58,18.58h0Z"/>
      <ellipse class="st3" cx="401.32" cy="259.51" rx="51.65" ry="43.75" transform="translate(10.9 535.15) rotate(-68.11)"/>
      <polygon class="st3" points="399.34 208.26 409.74 209.03 392.68 310.01 382.28 309.24 399.34 208.26"/>
      <g class="st8">
        <ellipse cx="401.32" cy="259.51" rx="51.65" ry="43.75" transform="translate(10.9 535.15) rotate(-68.11)"/>
        <polygon points="399.34 208.26 409.74 209.03 392.68 310.01 382.28 309.24 399.34 208.26"/>
      </g>
      <ellipse class="st3" cx="391.75" cy="258.81" rx="51.65" ry="43.75" transform="translate(5.54 525.82) rotate(-68.11)"/>
      <ellipse class="st4" cx="391.75" cy="258.81" rx="40.29" ry="34.13" transform="translate(5.54 525.82) rotate(-68.11)"/>
      <ellipse class="st3" cx="391.76" cy="258.8" rx="29.05" ry="24.61" transform="translate(5.56 525.83) rotate(-68.11)"/>
      <ellipse class="st4" cx="391.76" cy="258.8" rx="17.69" ry="14.98" transform="translate(5.56 525.83) rotate(-68.11)"/>
      <path class="st3" d="M398.62,257.98c0,4.24-3.1,8.05-6.89,8.51s-6.83-2.59-6.81-6.82,3.11-8,6.89-8.52,6.83,2.59,6.81,6.83h0Z"/>
    </g>
    <g id="freepik--Arrows--inject-119">
      <rect class="st2" x="349.95" y="197.15" width=".8" height="76.85" transform="translate(1.14 472.83) rotate(-68.11)"/>
      <polygon class="st2" points="311.83 223.15 311.99 223.07 315 221.8 308.57 219.21 305.35 220.55 311.83 223.15"/>
      <path class="st2" d="M307.43,215.36l1.39,3.15,6.44,2.58c-.59-.98-1.06-2.02-1.41-3.1l-6.42-2.63h0Z"/>
      <polygon class="st2" points="387.62 249.16 386.58 251.58 383.15 251.63 385.2 249.58 385.14 246.69 387.62 249.16"/>
      <rect class="st2" x="400.14" y="193.87" width=".8" height="76.85" transform="translate(-36.34 385.7) rotate(-49.46)"/>
      <polygon class="st2" points="367.18 206.61 367.38 206.59 370.64 206.33 365.35 201.85 361.87 202.1 367.18 206.61"/>
      <path class="st2" d="M365.49,197.84l.37,3.4,5.29,4.49c-.25-1.11-.37-2.25-.36-3.39l-5.3-4.5h0Z"/>
      <polygon class="st2" points="431.24 255.91 429.87 257.42 425.87 256.17 428.46 254.87 429.32 252.1 431.24 255.91"/>
      <rect class="st2" x="341.43" y="310.61" width=".69" height="66.02" transform="translate(-120.53 198.17) rotate(-27.69)"/>
      <polygon class="st2" points="323.49 314.03 323.64 314.07 326.32 314.91 323.55 309.64 320.7 308.72 323.49 314.03"/>
      <path class="st2" d="M324.95,306.51l-.8,2.83,2.77,5.28c.16-.96.43-1.91.81-2.81l-2.78-5.3Z"/>
      <polygon class="st2" points="358.56 372.96 354.97 372.96 354.27 372.39 356.76 372.19 358.33 370.26 358.56 372.96"/>
    </g>
  </g>
  <g id="freepik--Character--inject-119">
    <path class="st5" d="M181.69,499.01c-2.07.67-62.79.12-65-1.33-.86-.54,3.62-58.1,3.62-58.1l38.63.26-4,38.51s22.53,10.33,24.82,12.19,4,7.8,1.93,8.47h0Z"/>
    <path class="st2" d="M181.69,499.01c-2.07.67-62.79.12-65-1.33-.27-.17-.42-6,.45-13.62,11,1.71,50.39,7.25,53.43,5.41,2.11-1.28.2-3.22-1.56-4.51,5,2.44,9.76,4.78,10.73,5.58,2.26,1.84,4.02,7.8,1.95,8.47Z"/>
    <path class="st2" d="M157.91,469.09h-42.56s8-90.63,7.68-92.36c-.43-2.23-2.94-12.29-6.29-25.44-1-4.11-2.17-8.52-3.35-13.1-3.17-12.37-6.67-25.88-9.72-37.64-4.57-17.63-8.15-31.31-8.15-31.31h36.08s4.2,13.32,9.5,30.66c8.64,28.18,20.17,67,21.31,76.4,1.85,15.23-4.5,92.79-4.5,92.79h0Z"/>
    <path class="st0" d="M156,461.83c-6.5-.14-4.63-.19-11.14-.25-3.18,0-24.09-.21-27.06.28-.06,0-.06.12,0,.13,3,.49,23.88.31,27.06.28,6.51-.06,4.64-.11,11.14-.25.05-.02.08-.07.06-.13,0-.03-.03-.05-.06-.06Z"/>
    <path class="st0" d="M131,370.65c-1.4-6.15-3.48-12.18-5.3-18.22-3.69-12.27-7.4-24.53-11.13-36.8-1.87-6.13-3.75-12.25-5.62-18.38-.95-3.09-1.9-6.19-2.87-9.27s-2-6-2.88-9.07c-.35-1.24-.54-.56-.09,1,.9,3.17,1.78,6.35,2.71,9.52,1.83,6.27,3.67,12.54,5.53,18.8,3.69,12.47,7.41,24.93,11.17,37.38,1.87,6.25,3.75,12.5,5.63,18.74.96,2.97,1.72,5.99,2.3,9.06.5,3.2.63,6.46.38,9.69-.41,6.51-1.16,13-1.76,19.51s-1.21,13-1.81,19.54c-1.2,12.95-1.84,17.13-3,30.09-.15,1.64-.29,3.28-.42,4.92,0,.55.79.51.85,0,1.4-12.81,1.92-16.88,3.12-29.71,1.2-12.83,2.4-25.54,3.59-38.31.3-3.2.64-6.41.64-9.64,0-2.98-.36-5.95-1.04-8.85h0Z"/>
    <path class="st0" d="M127.5,269.24c-2.5,19.37-7.28,55.7-10.76,82-8.13-31.93-21.22-82-21.22-82h31.98Z"/>
    <path class="st5" d="M136.36,499.72c-2.07.67-62.78.12-65-1.33-.86-.54,1-58.1,1-58.1l38.63.26-1.36,38.51s22.53,10.33,24.82,12.19,3.99,7.8,1.91,8.47h0Z"/>
    <path class="st2" d="M136.36,499.72c-2.06.67-62.78.12-65-1.33-.27-.17-.28-5.85-.16-13.62,11,1.71,51,7.25,54,5.41,2.12-1.28.2-3.22-1.56-4.51,5.05,2.43,9.76,4.78,10.73,5.58,2.3,1.84,4.06,7.8,1.99,8.47Z"/>
    <path class="st2" d="M130.43,269.24s-.83,17.26-4.78,30.93c-.32,1.13-.66,2.24-1,3.3-3.62,1.47-7.1,3.26-10.4,5.35,0,0-.41,13.89-.83,29.37-.46,17.32-.94,36.63-.84,40.72.36,15.33-1.5,90-1.5,90l-42.56.17s7.28-84.52,7.23-90.13c-.09-9,2.11-74.06,1.71-75.51-5.17-19.12,6.21-34.21,6.21-34.21h46.76Z"/>
    <path class="st0" d="M109.59,461.35c-6.5-.11-4.64-.17-11.14-.2-3.18,0-24.09-.11-27.06.39-.06,0-.06.12,0,.13,3,.48,23.88.21,27.06.17,6.51-.09,4.64-.14,11.14-.3.05-.02.08-.07.06-.13,0-.03-.03-.05-.06-.06h0Z"/>
    <path class="st0" d="M126.39,302.45c-4.23,1.76-8.31,3.9-12.17,6.37-.07.04-.1.12-.06.19s.12.1.19.06c4.1-2,8.3-3.92,12.29-6.13.12-.09.14-.27.05-.39-.07-.09-.19-.13-.3-.1h0Z"/>
    <path class="st0" d="M120,296.66c.13-1.95.28-3.89.45-5.84.39-4.43.85-8.88,1.63-13.27.06-.34.54-.21.52.12-.3,3.44-.7,6.88-1,10.32s-.74,6.87-.8,10.3c0,1,.06,2.78,1.32,3.07,1.71.38,2.51-1.86,2.92-3.08.97-3.06,1.69-6.2,2.14-9.38.56-3.61.85-7.28,1.2-10.91,0-.13.23-.12.23,0,0,7.22-.08,14.77-2.78,21.59-.52,1.33-1.44,2.68-3,2.86h-.08v.12c0,.21-.08.41-.12.61-.02.17-.06.34-.1.5-.07.35-.12.71-.21,1.06-.02.14-.15.25-.29.23s-.25-.15-.23-.29c-.09-.03-.15-.12-.15-.22.03-.69.19-1.37.47-2-.85-.17-1.55-.77-1.87-1.57-.42-1.37-.5-2.81-.25-4.22h0Z"/>
    <path class="st0" d="M84,305.96c-.45-2.9-1.06-5.78-1.81-8.62-1.41-6.5,0-13,1.5-19.35.02-.07-.03-.14-.1-.16-.06,0-.13.02-.15.09-1.53,5.41-3.08,10.89-2.49,16.57.4,2.67.94,5.33,1.63,7.94.59,2.86.85,5.77.75,8.69-.13,5.78-.51,11.56-.77,17.32-.27,5.94-.53,11.88-.8,17.82-1.06,23.52-2.06,47.04-3,70.55-.55,13.18-1.06,26.36-1.44,39.54,0,.12.18.12.18,0,1.4-23.51,2.44-47,3.51-70.56s2.09-46.8,3.09-70.2c.2-3.21.17-6.43-.1-9.63h0Z"/>
    <path class="st0" d="M102.57,278.44c-.44,2-.77,4.06-1.32,6.05-.4,1.84-1.42,3.49-2.89,4.67-1.52,1.08-3.26,1.81-5.1,2.12-2.45.45-4.95.49-7.41.11-.11,0-.15.13,0,.16,1.29.27,2.55.71,3.86.87,1.27.21,2.55.28,3.83.21,2.13-.13,4.17-.89,5.87-2.19,1.56-1.36,2.6-3.23,2.95-5.27.41-2.21.6-4.45.57-6.7-.04-.16-.32-.19-.36-.03Z"/>
    <path class="st2" d="M95.49,182.33c-5,7-5.08,17-5.08,17,0,0-4.1,10.84-1.61,15.92,1.38,2.95,4.11,5.03,7.32,5.58l-1.06-2.88s2.56,3.49,9.25,4,14.86-2.93,18.91-5.91c2.41-1.75,4.32-4.09,5.55-6.8l-.94,4.58c4.17-1.19,7.48-4.38,8.81-8.51,2.6-7.26-9.64-15-10.89-16.94s-4.89-16.69-20.22-11.48c0,0-6.61.65-10.04,5.44Z"/>
    <path class="st2" d="M93.78,220.86c-1.97-.7-3.67-1.98-4.89-3.67-1.3-1.63-2-3.66-2-5.74.18-2.47.81-4.89,1.85-7.14.92-2.37,2-4.68,2.91-7.07,0-.13-.15-.2-.22-.09-1.11,1.88-2.11,3.82-3,5.81-.96,1.85-1.71,3.79-2.22,5.81-.47,1.86-.4,3.82.2,5.64.54,1.46,1.43,2.77,2.59,3.82,1.43,1.13,3,2.06,4.68,2.77.14.06.21-.11.1-.14Z"/>
    <path class="st2" d="M136.83,198.25c-2.81-5.2-8.35-7.87-12.17-12.18-2.07-2.33-3.82-5-6.32-6.91-.04-.01-.09.01-.1.05v.07c2.08,1.74,3.5,4,5.15,6.15,1.73,2.09,3.66,4,5.77,5.71,3.75,3.23,8.23,7,8.39,12.4.07,2.48-.91,5.39-3.27,6.56-.04.02-.05.07-.03.11s.07.05.11.03h0c1.85-1.12,3.16-2.96,3.61-5.07.46-2.37.05-4.83-1.15-6.92h0Z"/>
    <path class="st2" d="M137.3,199.72c-.18-2.12-1.01-4.12-2.37-5.75-1.47-1.51-3.24-2.69-5.21-3.45-2.19-1-4.47-1.89-6.07-3.76-.07-.07-.18,0-.12.12,2.56,3.09,6.61,4.06,9.64,6.52,3.47,2.81,4.28,7.62,2.9,11.72-.9,2.51-2.37,4.77-4.31,6.6M131.81,211.78c3.31-3.06,5.97-7.4,5.49-12.06l-5.49,12.06Z"/>
    <path class="st5" d="M112.37,228.1c7.4,16.85,25.15,38.27,29.85,40.36,4.52,2,33.91,1.14,42.18-1,3.36-.84.26-25.22-3.42-24.83-12.11,1.28-32.28,1.48-33.17,1-2.19-1.24-17-12.85-26.77-22-11.88-11.05-11.66-.31-8.67,6.47Z"/>
    <path class="st3" d="M175.32,241.72l2,30.13s-29,.43-36.25-3-25.74-32.52-29.18-41.21-1.51-15.54,8.46-7.21,27,22.39,27.8,22.53,27.17-1.24,27.17-1.24Z"/>
    <path class="st4" d="M112,222.16c.02.66-.49,1.21-1.15,1.24-.09,0-.19,0-.28,0-.16-.74-.25-1.5-.27-2.26.14-.07.29-.11.45-.11.66-.03,1.21.47,1.25,1.13h0ZM121.79,221.67v.1c.03.66.59,1.18,1.25,1.15h.21l-1.46-1.25ZM123.7,238.72c-.66.03-1.18.59-1.15,1.25s.59,1.18,1.25,1.15,1.17-.59,1.15-1.25c-.03-.66-.59-1.18-1.25-1.15h0ZM135.9,238.24c-.68.03-1.22.61-1.19,1.29s.61,1.22,1.29,1.19c.66-.03,1.18-.59,1.15-1.25h0c0-.66-.53-1.19-1.19-1.19h-.06v-.04h0ZM117.26,230.01c-.66.02-1.18.58-1.16,1.24s.58,1.18,1.24,1.16c.66-.02,1.18-.58,1.16-1.24h0c-.05-.64-.6-1.13-1.24-1.11v-.04h0ZM129.45,229.53c-.66.02-1.18.58-1.16,1.24.02.66.58,1.18,1.24,1.16.66-.02,1.18-.58,1.16-1.24h0c-.04-.65-.59-1.14-1.24-1.11v-.04h0ZM136.61,256.47c-.66.03-1.18.59-1.15,1.25s.59,1.18,1.25,1.15,1.18-.59,1.15-1.25c-.05-.64-.6-1.13-1.25-1.11v-.04ZM148.81,255.99c-.66.02-1.18.58-1.16,1.24.02.66.58,1.18,1.24,1.16.66-.02,1.18-.58,1.16-1.24h0c-.05-.64-.6-1.13-1.24-1.11v-.04h0ZM161,255.51c-.66.02-1.18.58-1.16,1.24.02.66.58,1.18,1.24,1.16.66-.02,1.18-.58,1.16-1.24h0c-.05-.64-.6-1.13-1.24-1.11v-.04h0ZM173.19,255.03c-.66.03-1.18.59-1.15,1.25s.59,1.18,1.25,1.15,1.18-.59,1.15-1.25-.59-1.18-1.25-1.15ZM130.19,247.76c-.66.02-1.18.58-1.15,1.24s.58,1.18,1.24,1.15h0c.66-.03,1.18-.59,1.15-1.25h0c-.04-.65-.61-1.15-1.26-1.11l.02-.04h0ZM142.38,247.28c-.66.02-1.18.58-1.16,1.24.02.66.58,1.18,1.24,1.16.66-.02,1.18-.58,1.16-1.24h0c-.04-.65-.61-1.15-1.26-1.11l.02-.04h0ZM154.57,246.8c-.66.03-1.18.59-1.15,1.25s.59,1.18,1.25,1.15,1.18-.59,1.15-1.25c-.05-.66-.61-1.15-1.27-1.11l.02-.04ZM166.76,246.32c-.66.03-1.18.59-1.15,1.25s.59,1.18,1.25,1.15,1.18-.59,1.15-1.25c-.05-.66-.61-1.15-1.27-1.11l.02-.04ZM143.1,265.51c-.66.02-1.18.58-1.16,1.24.02.66.58,1.18,1.24,1.16.66-.02,1.18-.58,1.16-1.24h0c-.05-.65-.61-1.14-1.26-1.11l.02-.04h0ZM155.29,265.03c-.66.02-1.18.58-1.16,1.24.02.66.58,1.18,1.24,1.16.66-.02,1.18-.58,1.16-1.24h0c-.05-.65-.61-1.14-1.26-1.11l.02-.04h0ZM167.48,264.55c-.66.03-1.18.59-1.15,1.25s.59,1.18,1.25,1.15,1.18-.59,1.15-1.25-.59-1.18-1.25-1.15h0Z"/>
    <path class="st6" d="M156,271.35c-6.26-.43-12.17-1.18-14.94-2.48-7.26-3.45-25.74-32.53-29.18-41.22-2.23-5.66-2.2-10.53.85-11l43.27,54.7Z"/>
    <path class="st2" d="M170.05,270.23c-.29-2.75-.88-10.78-1-12.93-.16-4.37-.39-8.78-.21-13.15,0-.09.14-.11.15,0,.56,4.28.73,8.62.95,12.93.11,2.15.36,12,.2,13.16.03.04-.08.07-.09,0h0Z"/>
    <path class="st3" d="M130,256.31l7.2,22.68s-2.37.15-8.44.49l-4.16-8.27-3.89,8.72c-15.44.84-37.24,1.91-44.83,1.72,0,0,8.23-45.45,20.69-60.29,6.24-7.42,14-7.23,19.09-2.48,1.3,1.2,14.72,16,16.62,23.43,1.72,6.54-2.28,14-2.28,14h0Z"/>
    <path class="st2" d="M132.72,243.83c-.49-2.79-1.51-5.46-3-7.87h0c-.1-.26-.22-.52-.36-.76-.12-.26-.24-.52-.37-.78-.51-1.02-1.03-2.02-1.56-3-.79-1.47-.08,0-.06,0,.35.79.72,1.56,1.09,2.34l.45.92c-.25-.4-.52-.79-.79-1.17-1.28-1.81-2.66-3.54-4.14-5.19-.02-.02-.05-.03-.07,0-.02.02-.03.05-.01.07,2.23,3.01,4.24,6.18,6,9.49,1.63,3.32,2.4,7,2.22,10.7-.15,2.13-.62,4.23-1.41,6.21,0,.04.03.08.07.09.03,0,.05,0,.07-.03,1.81-3.37,2.46-7.23,1.87-11.01h0Z"/>
    <path class="st4" d="M99.85,222.64c.03.66-.49,1.22-1.15,1.25s-1.22-.49-1.25-1.15c-.03-.66.49-1.22,1.15-1.25s1.22.49,1.25,1.15h0ZM110.79,221.01c-.66.03-1.18.59-1.15,1.25s.59,1.18,1.25,1.15,1.17-.59,1.15-1.25c-.03-.66-.59-1.18-1.25-1.15h0ZM87.13,240.2h-.23c-.23.62-.46,1.25-.68,1.89.4.53,1.15.64,1.68.24s.64-1.15.24-1.68c-.24-.32-.61-.49-1.01-.48v.03h0ZM99.32,239.72c-.66.02-1.18.58-1.16,1.24s.58,1.18,1.24,1.16c.66-.02,1.18-.58,1.16-1.24h0c-.03-.66-.58-1.17-1.24-1.15h0ZM111.51,239.24c-.66.03-1.18.59-1.15,1.25s.59,1.18,1.25,1.15h0c.66-.03,1.18-.59,1.15-1.25s-.59-1.18-1.25-1.15ZM123.7,238.72c-.66.03-1.18.59-1.15,1.25s.59,1.18,1.25,1.15,1.17-.59,1.15-1.25c-.03-.66-.59-1.18-1.25-1.15h0ZM92.87,230.97c-.66.03-1.18.59-1.15,1.25s.59,1.18,1.25,1.15,1.17-.59,1.15-1.25c-.05-.65-.6-1.14-1.25-1.11v-.04ZM105.06,230.49c-.66.03-1.18.59-1.15,1.25s.59,1.18,1.25,1.15,1.17-.59,1.15-1.25c-.05-.65-.6-1.14-1.25-1.11v-.04ZM117.26,230.01c-.66.02-1.18.58-1.16,1.24s.58,1.18,1.24,1.16c.66-.02,1.18-.58,1.16-1.24h0c-.05-.64-.6-1.13-1.24-1.11v-.04h0ZM87.85,258.43c-.66.02-1.18.58-1.16,1.24s.58,1.18,1.24,1.16c.66-.02,1.18-.58,1.16-1.24s-.58-1.18-1.24-1.16h0ZM100.04,257.95c-.66.03-1.18.59-1.15,1.25h0c.03.66.59,1.18,1.25,1.15s1.18-.59,1.15-1.25-.59-1.17-1.25-1.15ZM112.23,257.47c-.66.03-1.18.59-1.15,1.25s.59,1.18,1.25,1.15,1.17-.59,1.15-1.25c-.03-.66-.59-1.18-1.25-1.15h0ZM124.42,256.99c-.66.03-1.18.59-1.15,1.25s.59,1.18,1.25,1.15,1.17-.59,1.15-1.25c-.03-.66-.59-1.17-1.25-1.15h0ZM93.59,249.24c-.66.02-1.18.58-1.16,1.24s.58,1.18,1.24,1.16c.66-.02,1.18-.58,1.16-1.24h0c-.03-.66-.58-1.17-1.24-1.15h0ZM105.78,248.76c-.66.03-1.18.59-1.15,1.25s.59,1.18,1.25,1.15,1.18-.59,1.15-1.25-.59-1.18-1.25-1.15h0ZM117.97,248.28c-.66.03-1.18.59-1.15,1.25s.59,1.18,1.25,1.15,1.17-.59,1.15-1.25c-.03-.65-.57-1.16-1.22-1.15h-.03ZM130.17,247.8c-.66.02-1.18.58-1.15,1.24s.58,1.18,1.24,1.15,1.18-.59,1.15-1.25h0c-.02-.66-.57-1.17-1.23-1.15h-.01ZM76.79,277.21c-.18.9-.34,1.68-.46,2.32h.14c.66,0,1.18-.55,1.17-1.21,0-.52-.35-.97-.85-1.12h0ZM88.56,276.72c-.66.03-1.18.59-1.15,1.25s.59,1.18,1.25,1.15,1.17-.59,1.15-1.25c-.03-.66-.59-1.18-1.25-1.15h0ZM100.76,276.24c-.66.02-1.18.58-1.16,1.24s.58,1.18,1.24,1.16c.66-.02,1.18-.58,1.16-1.24h0c0-.66-.52-1.19-1.18-1.2h-.06v.05h0ZM113,275.72c-.66.02-1.18.58-1.16,1.24s.58,1.18,1.24,1.16c.66-.02,1.18-.58,1.16-1.24h0c-.02-.66-.57-1.17-1.23-1.15h-.01,0ZM136.25,275.72v.27c0,.3.14.59.36.8l-.36-1.07ZM82.17,267.95c-.66.02-1.18.58-1.16,1.24s.58,1.18,1.24,1.16c.66-.02,1.18-.58,1.16-1.24s-.57-1.18-1.24-1.16h-.05.05ZM94.36,267.47c-.66,0-1.2.54-1.2,1.2v.05c.03.66.59,1.18,1.25,1.15s1.18-.59,1.15-1.25-.59-1.17-1.25-1.15c0,0,.05,0,.05,0ZM106.55,266.99c-.66.03-1.18.59-1.15,1.25s.59,1.18,1.25,1.15,1.17-.59,1.15-1.25c-.03-.66-.58-1.18-1.24-1.15h-.06s.05,0,.05,0ZM118.74,266.51c-.66.03-1.18.59-1.15,1.25s.59,1.18,1.25,1.15,1.17-.59,1.15-1.25c-.03-.67-.6-1.18-1.27-1.15h-.03s.05,0,.05,0ZM130.93,266.03c-.66.03-1.18.59-1.15,1.25s.59,1.18,1.25,1.15,1.18-.59,1.15-1.25c-.03-.67-.6-1.18-1.27-1.15h-.03.05Z"/>
    <path class="st2" d="M112.82,222.35c1.47,2.61,2.9,5.24,4.26,7.91s2.67,5.35,3.82,8.12c.59,1.39,1.1,2.81,1.53,4.25.36,1.47.54,2.98.52,4.5,0,3.03-.52,6.03-1.55,8.88v-.13c.57,2.55,1.11,5.1,1.65,7.66s1,5.11,1.58,7.67c-.62-2.53-1.28-5.06-1.87-7.61s-1.22-5.07-1.8-7.62v-.13c.98-2.8,1.48-5.75,1.47-8.72.05-1.48-.1-2.96-.43-4.41-.41-1.43-.9-2.83-1.48-4.2-1.13-2.76-2.38-5.48-3.68-8.17s-2.63-5.34-4.02-8Z"/>
    <path class="st2" d="M117.44,234.18c.13.41-.1.85-.51.98-.41.13-.85-.1-.98-.51,0-.03-.02-.06-.02-.09-.12-.42.12-.87.54-.99h.03c.42-.1.84.17.93.59v.03h.01Z"/>
    <path class="st2" d="M120.3,241.94c.14.41-.08.85-.49.99-.41.14-.85-.08-.99-.49-.01-.04-.02-.08-.03-.13-.11-.41.14-.83.56-.94h.01c.42-.1.84.15.94.57Z"/>
    <path class="st2" d="M120.9,249.87c.09.42-.16.83-.57.94-.42.1-.84-.15-.94-.57-.11-.41.14-.83.56-.94h.01c.42-.1.84.15.94.57Z"/>
    <path class="st2" d="M119.79,257.92c.11.41-.14.83-.56.94h-.01c-.42.1-.84-.15-.95-.57-.1-.42.15-.84.57-.95s.84.15.95.57h0Z"/>
    <path class="st2" d="M121.7,265.72c.14.41-.08.85-.49.99-.41.14-.85-.08-.99-.49-.01-.04-.02-.08-.03-.13-.07-.43.22-.83.65-.89.38-.06.74.16.86.52Z"/>
    <path class="st3" d="M104.44,226.52c-3.49,4.49-40,29.32-41.7,30.54-4.67,3.42-25.08,4.06-21.33-9s40.12-26,55.79-30.18c11.21-2.94,13.71.29,7.24,8.64Z"/>
    <path class="st4" d="M87.65,223.12c.03.66-.49,1.22-1.15,1.25s-1.22-.49-1.25-1.15c-.03-.66.49-1.22,1.15-1.25h0c.66-.03,1.21.48,1.24,1.14h0s.01,0,.01,0ZM98.6,221.49c-.66.03-1.18.59-1.15,1.25s.59,1.18,1.25,1.15,1.17-.59,1.15-1.25c-.03-.66-.59-1.18-1.25-1.15h0ZM50.6,241.64c-.66.03-1.18.59-1.15,1.25s.59,1.18,1.25,1.15,1.17-.59,1.15-1.25c-.03-.66-.58-1.18-1.24-1.15h-.06.05ZM62.79,241.16c-.66,0-1.2.55-1.19,1.21,0,.66.55,1.19,1.21,1.19s1.2-.55,1.19-1.21v-.04c-.03-.66-.6-1.18-1.26-1.15h.05ZM74.99,240.68c-.66.02-1.18.58-1.16,1.24s.58,1.18,1.24,1.16c.66-.02,1.18-.58,1.16-1.24h0c-.05-.66-.63-1.16-1.29-1.11l.05-.04h0ZM86.32,240.63l.5-.35c-.21.06-.41.18-.55.35h.05ZM57.56,233.39c-.67.37-1.34.75-2,1.13.49.44,1.25.4,1.69-.09.2-.23.31-.52.31-.83,0-.07-.02-.14-.05-.21h.05ZM68.56,231.97c-.66.02-1.18.58-1.15,1.24s.58,1.18,1.24,1.15c.66-.03,1.18-.59,1.15-1.25h0c-.02-.66-.57-1.17-1.22-1.16h-.09.07v.02ZM80.75,231.49c-.66.02-1.18.58-1.16,1.24s.58,1.18,1.24,1.16c.66-.02,1.18-.58,1.16-1.24h0c-.02-.66-.58-1.18-1.24-1.15h-.07.07ZM92.94,231.01c-.66.03-1.18.59-1.15,1.25s.59,1.18,1.25,1.15,1.17-.59,1.15-1.25-.58-1.18-1.24-1.16h-.08.07ZM44.82,251.16c-.66.03-1.18.59-1.15,1.25s.59,1.18,1.25,1.15,1.17-.59,1.15-1.25c-.03-.66-.59-1.18-1.25-1.15h0ZM57,250.72c-.66.03-1.18.59-1.15,1.25s.59,1.18,1.25,1.15,1.17-.59,1.15-1.25c-.03-.66-.59-1.17-1.25-1.15ZM69.19,250.24c-.66.03-1.17.59-1.15,1.25.03.62.52,1.11,1.13,1.14h0l1.18-.81h0c.05-.14.07-.28.06-.43,0-.66-.55-1.2-1.21-1.19h0v.04h0Z"/>
    <path class="st5" d="M104.54,217.9c.32,1,5.6,6.89,10.07,6.27,1.45-.21.68-8.2.68-8.2l.08-.6,1.08-8.44-10.29-5.34-1.48-.69s-.15,2.33-.3,5.23v.89c0,.43-.06.87-.07,1.31s0,.66,0,1v1.05c-.09,2.51-.02,5.02.23,7.52Z"/>
    <path class="st2" d="M104.38,206.13c2.13,4.55,6.15,7.93,11,9.24l1.08-8.44-10.29-5.34-1.48-.69s-.16,2.33-.31,5.23Z"/>
    <path class="st5" d="M127.5,194.4c1.05,14.9-7.75,17.21-11,17.43-2.91.2-12.87.52-15.45-14.19s4-19.91,10.65-20.72,14.75,2.58,15.8,17.48h0Z"/>
    <path class="st2" d="M125.79,193.31c-.32.16-.66.3-1,.42-.3.19-.65.27-1,.24-.23-.07-.39-.29-.38-.53.09-.47.43-.85.88-1,.43-.22.93-.28,1.4-.16.3.1.45.43.35.73-.04.13-.13.24-.25.3Z"/>
    <path class="st2" d="M115.48,191.77c.33,0,.67-.05,1-.1.36,0,.71-.1,1-.3.17-.18.19-.45.07-.66-.31-.37-.8-.54-1.27-.45-.48.02-.94.22-1.29.55-.22.23-.21.59.01.81.13.12.3.18.48.15Z"/>
    <path class="st2" d="M117.56,195.48s-.08.05-.08.09c0,1-.07,2.21-1,2.56M116.48,198.19c1.15-.18,1.29-1.75,1.08-2.71l-1.08,2.71Z"/>
    <path class="st2" d="M116.62,194.42c-1.65-.1-1.73,3.21-.2,3.3s1.58-3.22.2-3.3Z"/>
    <path class="st2" d="M116,194.58c-.29.18-.59.51-.94.53s-.7-.32-1-.66h-.06c0,.63.21,1.29.88,1.4s1.08-.45,1.25-1.09c.06-.04-.04-.25-.13-.18Z"/>
    <path class="st2" d="M116.9,203.54c.23.25.45.6.82.66.38,0,.76-.05,1.12-.18h0c-.33.39-.84.57-1.34.47-.43-.14-.73-.54-.74-1,.03.03.11,0,.14.05h0Z"/>
    <path class="st2" d="M121.7,199.72s.19,1.54.19,2.26c-1.39.32-2.84-.14-3.79-1.21-.06-.07,0-.15.11-.1.92.64,2.02.97,3.14.94.05-.2-.42-2.63-.31-2.64.56.06,1.11.19,1.64.39-.31-3.22-1.14-6.37-1.4-9.58.02-.05.07-.08.13-.06.03,0,.05.03.06.06,1.01,3.34,1.68,6.78,2,10.25.01.38-1.47-.19-1.77-.31h0Z"/>
    <path class="st2" d="M120.9,201.9c-.41.5-.94.88-1.54,1.12-.33.1-.67.1-1,0-.74-.22-.74-.9-.59-1.48.09-.31.21-.6.36-.88.77.7,1.74,1.13,2.77,1.24Z"/>
    <path class="st1" d="M119.36,203.02c-.33.1-.67.1-1,0-.74-.22-.74-.9-.59-1.48.81.06,1.47.68,1.59,1.48Z"/>
    <path class="st2" d="M126.6,194.96c-.25-.07-.52-.1-.78-.1s-.53.05-.79.14c-.27.09-.52.23-.73.41-.22.19-.39.44-.5.71l-.2.49.52-.11c.37-.08.74-.13,1.12-.13s.78.08,1.13.26c-.26-.35-.65-.59-1.08-.67-.43-.09-.86-.09-1.29,0l.32.37c.18-.39.5-.71.89-.9.44-.21.91-.37,1.39-.47Z"/>
    <path class="st2" d="M125.32,197.22c-.41-.05-.81-.16-1.19-.31-.08,0-.43-.24-.42-.31.02-.2.07-.4.14-.59-.13.17-.22.38-.26.59.08.22.25.4.47.48.4.15.83.2,1.26.14Z"/>
    <path class="st2" d="M101.5,198.36c1.65-.16,5.79-4.86,5.63-12.85,0,0-.36,7.18-.86,8.25s2.32-2.64,2.28-9.08c2.08,1.38,4.34,2.45,6.72,3.18,3.07.74,4.93.64,5.14.42s-4.31-1.48-5.57-2.83c0,0,8.22,3.46,12,3.61.43,0,.62-8.86-5.28-12.41s-14.88.84-17.24,3.3c0,0-2.87.51-5.84,4.89s1.24,13.69,3.02,13.52h0Z"/>
    <path class="st5" d="M103.52,198.62s-3.18-4.72-5.31-3.59.2,7.93,2.67,8.89c1.26.6,2.77.06,3.37-1.21.01-.03.03-.06.04-.09,0,0-.77-4-.77-4Z"/>
    <path class="st2" d="M98.93,197.03c1.73.73,2.62,2.36,3.24,4.05-.37-.67-1.22-.92-1.89-.55-.07.04-.13.08-.19.13,0,0,0,.11,0,.1.63-.2,1.32.03,1.7.57.32.43.58.9.8,1.39.08.16.36.08.3-.1h0c.11-2.26-1.58-5.39-3.96-5.66v.07h0Z"/>
    <path class="st3" d="M115.34,216.04l-1.83,7.05-9.42-7.4-2,3s9.91,12.44,9.91,11.83l2-6.14,4.51,3.5-1.64-10-1.53-1.84h0Z"/>
    <path class="st2" d="M117.94,222.87c-.32-1.65-.61-3.32-1-5,0-.06-.11-.07-.11,0-.13,1.65,1.15,8,1.34,9.48h0c-.19-.15-4.15-3.06-4.18-3-.48,1-2,5.47-2,5.87-1.57-2-8.13-9.7-9.91-11.53,0-.05-.14,0-.1.07,1.43,2.11,9.94,12.33,10,12.29.81-2.12,1.5-4.29,2.09-6.48,1.49,1.35,3.07,2.6,4.73,3.73-.19-1.82-.48-3.64-.86-5.43Z"/>
    <path class="st5" d="M180.91,266.72c-2.88-1.18-3.12-21.67-.62-23.66.9-.58,1.87-1.05,2.89-1.38h0c3.29-2.97,6.13-6.4,8.43-10.19,2.59-4.61,5.91-11.75,8.44-10.45,3.69,1.88.59,11.42-1.53,16.78,3.1-.43,5.82-.51,7.42,0,5.3,1.78.38,26.46-5,28.42-5.11,1.87-17.14,1.61-20.03.48h0Z"/>
    <rect class="st2" x="109.57" y="231.82" width="96.1" height="1" transform="translate(-17.01 12.5) rotate(-4.31)"/>
    <polygon class="st2" points="107.53 239.66 107.67 239.47 110.34 236.39 101.69 237.04 98.83 240.32 107.53 239.66"/>
    <path class="st2" d="M98.3,233.35l3.32,2.71,8.65-.66c-1.19-.77-2.29-1.66-3.27-2.68l-8.7.63h0Z"/>
    <polygon class="st2" points="203.28 232.21 204.44 228.78 202.77 225.56 210.9 228.29 203.28 232.21"/>
    <polygon class="st2" points="174.5 153.81 158.43 174.42 142.29 194.97 110.02 236.09 110 235.75 148.16 272.59 167.24 291.01 186.27 309.49 167.07 291.19 147.93 272.83 109.66 236.11 109.49 235.96 109.63 235.78 142.03 194.77 158.24 174.27 174.5 153.81"/>
    <path class="st3" d="M182.85,307.39c-.64-4.07,2.22-7.07,3.33-12,1.16-5.14,10.06-34.13,12.58-52.25,1-7.19-3.28-12-3.42-13.9-.12-1.61,3-7.42,1.46-12.8-5-16.9-18.34-44.89-20.38-50.11-1.84-4.71-5.11-7.18-5.1-11.3,0-6.67,6.57-7.83,7.21.58s21.73,52.34,22.34,60.41-2.26,13.22-2.26,13.22c0,0,3.46,2.59,4.07,10.67s-13.42,57.63-12.79,66-6.04,8.08-7.04,1.48h0Z"/>
    <path class="st7" d="M182.85,307.39c-.64-4.07,2.22-7.07,3.33-12,1.16-5.14,10.06-34.13,12.58-52.25,1-7.19-3.28-12-3.42-13.9-.12-1.61,3-7.42,1.46-12.8-5-16.9-18.34-44.89-20.38-50.11-1.84-4.71-5.11-7.18-5.1-11.3,0-6.67,6.57-7.83,7.21.58s21.73,52.34,22.34,60.41-2.26,13.22-2.26,13.22c0,0,3.46,2.59,4.07,10.67s-13.42,57.63-12.79,66-6.04,8.08-7.04,1.48h0Z"/>
    <path class="st5" d="M197.22,236.72c-1.82,2.27,1.9,3.11,1.9,3.11,0,0-5.64.08-6.61,3.14s3.59,3.81,3.92,3.88c-.3,0-5.48.21-6.14,3.39s4,3.39,4.31,3.39c-.28.1-3.95,1.41-3.9,3.94.09,4.34,9.58,1.24,12.65,3,0,0-2.33,5.53-2.36,5.7,0,0,9.09-2.76,11.18-7,.66-1.27.34-2.82-.77-3.72,0,0,3-.57,3.62-3.05.31-1.28-1.47-2.9-1.47-2.9,1.38-.34,2.46-1.42,2.8-2.8.32-1.79-1.51-3.14-1.51-3.14,0,0,2.07-1.6,1.8-3.54-.54-3.99-15.53-8.29-19.42-3.4h0Z"/>
    <path class="st2" d="M214.59,243.24c-4.76-2.73-10.23-3.96-15.7-3.51-.17,0-.22.31,0,.33,5.36.32,10.65,1.42,15.7,3.26v-.08Z"/>
    <path class="st2" d="M213.64,249.5c.05,0,.09-.07,0-.1-5.27-2.97-11.43-3.95-17.37-2.77-.2.05-.34.3-.1.26,4.1-.61,12.76.83,17.47,2.61h0Z"/>
    <path class="st2" d="M194.22,253.84c5.81-1.1,11.39-.22,17,1.5.07,0,.1-.09,0-.12-2.51-1.59-6.19-2.31-9.11-2.64-2.71-.35-5.47,0-8,1.06-.03.08-.02.23.11.2Z"/>
    <path class="st2" d="M199.05,239.72c-.21,0,0,.3-.15.33-.87.12-6.05,1.32-6.19,3.21-.11,1.51,1.85,2.71,2.78,2.87l2.35.42-2.35.42c-1.05.17-2.06.5-3,1-.9.42-1.58,1.21-1.86,2.16-.25.91.16,1.87,1,2.31.93.47,1.96.69,3,.64h2.83l-2.66.93c-.74.24-1.44.58-2.09,1-.63.39-1.13.96-1.44,1.63-.26.63-.13,1.36.32,1.87.57.48,1.26.79,2,.9,1.62.24,3.25.35,4.88.34.83,0,1.66,0,2.48.11.84,0,1.66.2,2.42.56-.78-.27-1.6-.38-2.42-.34-.83,0-1.65.05-2.48.09-1.67.12-3.34.09-5-.09-.9-.09-1.76-.43-2.47-1-.72-.71-.94-1.79-.57-2.73.36-.85.96-1.57,1.73-2.07.71-.5,1.49-.9,2.31-1.2l.18.91c-1.21.07-2.42-.18-3.5-.72-.59-.32-1.05-.83-1.31-1.45-.23-.62-.26-1.29-.1-1.93.35-1.21,1.21-2.21,2.35-2.74,1.03-.54,2.15-.91,3.3-1.09v.84c-1.18-.25-3.52-1.35-3.65-3.72.26-3.03,6.26-3.46,7.31-3.46h0Z"/>
    <path class="st2" d="M199.12,239.8c-.55-.25-1.06-.59-1.51-1-.37-.32-.54-.81-.45-1.29.17-.5.48-.94.9-1.27.44-.39.93-.77,1.44-1.14-.64.08-1.26.29-1.81.62-.64.34-1.12.92-1.33,1.61-.07.39-.03.79.13,1.15.16.33.42.61.73.81.56.37,1.23.55,1.9.51h0Z"/>
    <path class="st5" d="M75.91,236.17c3.18.45,16.24,21.15,11.75,22.62-21.12,6.9-37.93,2.33-41.89.42-5.19-2.49-5.78-9.66-3.69-12.8,3.03-4.54,30.68-10.69,33.83-10.24h0Z"/>
    <path class="st5" d="M108.7,230.02c.83,1.4.69,3.18-.34,4.44,1.22.59,2.21,1.58,2.78,2.81.89,2.21-2.18,4.59-2.18,4.59,1.14.87,2,2.06,2.45,3.42.64,2.2-2.12,5.05-2.12,5.05.61,1.37.7,2.92.26,4.36-1.33,3.8-7.33,5.15-11.13,6.05s-15.43-.12-17.67-.09l-6-24.36s15.91-8.88,20.53-9.3c3.93-.35,11.78.46,13.42,3.03Z"/>
    <path class="st2" d="M108.1,234.11c-4.23-.61-8.41.05-12.62.48-.04.02-.06.06-.05.1,0,.02.03.04.05.05,4.19-.48,8.41-.12,12.61-.42.12,0,.12-.19.01-.21Z"/>
    <path class="st2" d="M108.8,241.56c-.97-.05-1.95.03-2.9.24-1,.15-2,.33-3.06.52-2,.38-4,.8-6.06,1.29-.09,0-.08.16,0,.14,2-.37,4.06-.72,6.1-1l3.07-.4c.97-.06,1.93-.23,2.87-.5.08-.03.12-.11.1-.19-.02-.05-.06-.09-.12-.1Z"/>
    <path class="st2" d="M109.21,250.34c-.88-.03-1.77.09-2.61.36l-2.77.56c-1.84.36-3.69.72-5.55,1-.04.02-.06.06-.05.1,0,.02.03.04.05.05,1.89-.3,3.79-.57,5.68-.88l2.78-.47c.86-.07,1.7-.29,2.48-.65,0,0,.03-.06-.01-.07Z"/>
    <path class="st3" d="M72.75,235.81l5.18,29s-27.35,1.28-34.85-7.38c-5-5.76-1.93-10.24-.64-11.67,1.7-1.81,12.87-6.96,30.31-9.95Z"/>
    <path class="st4" d="M51.8,242.79c.03.66-.49,1.22-1.15,1.25s-1.22-.49-1.25-1.15c-.02-.36.13-.71.41-.95h0l.77-.3c.65,0,1.19.5,1.22,1.15ZM62.74,241.16c-.66.03-1.17.6-1.14,1.26.03.66.6,1.17,1.26,1.14s1.16-.59,1.14-1.25c-.03-.66-.6-1.18-1.26-1.15ZM73.8,241.72v.24c0,.18.06.36.15.52l-.15-.76h0ZM51.27,259.88c-.66.02-1.17.57-1.15,1.23h0c0,.29.12.56.31.77.37.12.74.25,1.13.36h0c.57-.12.96-.63.93-1.21-.02-.65-.57-1.17-1.22-1.15h0ZM63.46,259.4c-.66.03-1.18.59-1.15,1.25s.59,1.18,1.25,1.15c.66-.03,1.17-.59,1.15-1.25-.03-.66-.59-1.18-1.25-1.15h0ZM75.65,258.92c-.66.03-1.18.59-1.15,1.25s.59,1.18,1.25,1.15,1.17-.59,1.15-1.25c-.03-.66-.59-1.18-1.25-1.15h0ZM44.82,251.16c-.66.03-1.18.59-1.15,1.25s.59,1.18,1.25,1.15,1.17-.59,1.15-1.25c-.03-.66-.59-1.18-1.25-1.15h0ZM57,250.72c-.66.03-1.18.59-1.15,1.25s.59,1.18,1.25,1.15,1.17-.59,1.15-1.25c-.03-.66-.59-1.17-1.25-1.15ZM69.19,250.24c-.66.03-1.18.59-1.15,1.25s.59,1.18,1.25,1.15h0c.66-.03,1.18-.59,1.15-1.25s-.59-1.18-1.25-1.15Z"/>
    <path class="st2" d="M48.9,241.98c10.87-4.83,23.62-6.17,23.64-6.18.22-.06.32.24.19.26-8.1,1.33-16.07,3.38-23.81,6.11-.08.03-.09-.16-.02-.19Z"/>
    <path class="st2" d="M70.75,263.72c-.56-2.59-1.94-10.18-2.23-12.22-.6-4.15-1.26-8.33-1.54-12.51,0-.08.13-.12.15,0,1,4,1.57,8.14,2.22,12.22.32,2,1.56,11.43,1.53,12.52,0,.06-.11.1-.13,0h0Z"/>
  </g>
</svg>