<?xml version="1.0" encoding="UTF-8"?>
<svg id="Layer_1" xmlns="http://www.w3.org/2000/svg" version="1.1" viewBox="0 0 1000 1000">
  <!-- Generator: Adobe Illustrator 29.5.0, SVG Export Plug-In . SVG Version: 2.1.0 Build 137)  -->
  <defs>
    <style>
      .st0 {
        fill: #006448;
      }

      .st1 {
        fill: #284842;
      }
    </style>
  </defs>
  <path class="st0" d="M600,85.62c-34.05,9.85-66.28,24.84-96,44.17-29.72-19.33-61.95-34.32-96-44.17-30.69-8.9-62.85-13.62-96-13.62v864c33.15,0,65.31-4.73,96-13.62,34.05-9.86,66.28-24.84,96-44.18,29.72,19.34,61.95,34.32,96,44.18,30.69,8.89,62.85,13.62,96,13.62V72c-33.15,0-65.31,4.72-96,13.62ZM600,809.56c-4.07-1.61-8.07-3.33-12.04-5.14-31.05-14.15-59.4-34.2-83.96-58.95-24.56,24.75-52.89,44.8-83.95,58.95h-.01c-3.97,1.81-7.97,3.53-12.04,5.14V198.43c4.07,1.62,8.07,3.34,12.04,5.15h.01c31.06,14.14,59.39,34.2,83.95,58.95,24.56-24.75,52.91-44.81,83.96-58.95,3.97-1.81,7.97-3.53,12.04-5.15v611.13Z"/>
  <path class="st0" d="M193.69,396.12c-16.33,31.77-25.69,68.65-25.69,108s9.36,76.23,25.69,108c16.86,32.79,41.16,60.13,70.31,79.09v231.29c-34.05-9.86-66.28-24.84-96-44.18v-132.73c-7.97-8-15.53-16.5-22.64-25.47-24.8-31.16-44.32-67.76-56.97-108-10.62-33.78-16.39-70.12-16.39-108s5.77-74.22,16.39-108c12.65-40.24,32.17-76.85,56.97-108,7.11-8.97,14.67-17.48,22.64-25.47v-132.74c29.72-19.33,61.95-34.32,96-44.17v231.28c-29.15,18.96-53.45,46.31-70.31,79.1Z"/>
  <path class="st1" d="M936,503.88c0,37.88-5.77,74.22-16.39,108-12.65,40.24-32.17,76.85-56.97,108-7.11,8.97-14.67,17.48-22.64,25.47v132.74c-29.72,19.33-61.95,34.32-96,44.17v-231.28c29.15-18.96,53.45-46.31,70.31-79.1,16.33-31.77,25.69-68.65,25.69-108s-9.36-76.23-25.69-108c-16.86-32.79-41.16-60.13-70.31-79.09V85.5c34.05,9.86,66.28,24.84,96,44.18v132.73c7.97,8,15.53,16.5,22.64,25.47,24.8,31.16,44.32,67.76,56.97,108,10.62,33.78,16.39,70.13,16.39,108Z"/>
</svg>