<?xml version="1.0" encoding="UTF-8"?>
<svg xmlns="http://www.w3.org/2000/svg" version="1.1" xmlns:xlink="http://www.w3.org/1999/xlink" viewBox="0 0 1500 1500">
  <!-- Generator: Adobe Illustrator 29.5.0, SVG Export Plug-In . SVG Version: 2.1.0 Build 137)  -->
  <defs>
    <style>
      .st0 {
        fill: #fceae7;
      }

      .st1 {
        fill: #a9dde0;
      }

      .st2 {
        fill: #bf6b5e;
      }

      .st3 {
        fill: #77bcbc;
      }

      .st4 {
        fill: #4e6e75;
      }

      .st5 {
        fill: #fbab27;
      }

      .st6 {
        fill: #231f20;
      }

      .st7 {
        fill: #abb556;
      }

      .st8 {
        fill: #006448;
      }

      .st9, .st10 {
        fill: #ffca6e;
      }

      .st10, .st11, .st12 {
        mix-blend-mode: multiply;
        opacity: .4;
      }

      .st13 {
        fill: #e69191;
      }

      .st14 {
        fill: #cc7f57;
      }

      .st15, .st12 {
        fill: #f068a6;
      }

      .st16 {
        fill: #cd5151;
      }

      .st17 {
        stroke: #808234;
      }

      .st17, .st18, .st19 {
        fill: none;
      }

      .st17, .st19 {
        stroke-linecap: round;
        stroke-linejoin: round;
      }

      .st20 {
        clip-path: url(#clippath-1);
      }

      .st21 {
        fill: #f58131;
      }

      .st22 {
        isolation: isolate;
      }

      .st23 {
        fill: #142b3b;
      }

      .st24 {
        fill: #5c3e32;
      }

      .st25 {
        fill: #808234;
      }

      .st26 {
        fill: #edd6d6;
      }

      .st27 {
        fill: #d2a13d;
      }

      .st28, .st11 {
        fill: #467d6b;
      }

      .st29 {
        fill: #004030;
      }

      .st19 {
        stroke: #f16b7d;
      }

      .st30 {
        clip-path: url(#clippath);
      }

      .st31 {
        fill: #e9af90;
      }

      .st32 {
        fill: #ee8181;
      }
    </style>
    <clipPath id="clippath">
      <path class="st18" d="M707.31,459.83c15.68,28.6,3.87,65.23,3.87,65.23,0,0-37.24-9.73-52.92-38.33-15.68-28.6-3.87-65.23-3.87-65.23,0,0,37.24,9.73,52.92,38.33Z"/>
    </clipPath>
    <clipPath id="clippath-1">
      <path class="st18" d="M788.43,444.23c-8.2,42.25-51.08,69.47-51.08,69.47,0,0-29.59-41.28-21.4-83.53,8.2-42.25,51.08-69.47,51.08-69.47,0,0,29.6,41.28,21.4,83.53Z"/>
    </clipPath>
  </defs>
  <g class="st22">
    <g id="Layer_1">
      <g>
        <g>
          <g>
            <path class="st8" d="M894.05,653.08c.28-.02.54-.03.81-.03.46-.01.92,0,1.35.03,3.93.25,7.08,1.8,11.34,1.5,12.24-19.85,25.66-40.76,46.8-50.6,4.91-2.28,10.15-3.93,14.58-7.03,4.44-3.1,8.03-8.15,7.46-13.54-.25-2.35-1.26-4.47-2.78-6.23-.32-.4-.68-.76-1.05-1.12-2.41-2.26-5.65-3.83-8.93-4.37-6.14-1.04-12.36.62-18.34,2.25,9.8-16.66,24.29-29.99,42.34-36.92,5.55-2.13,11.39-3.72,16.33-7.01,4.95-3.29,8.97-8.81,8.46-14.71-.12-1.42-.49-2.76-1.1-4.02-.19-.43-.41-.84-.65-1.24-2.21-3.72-6.25-6.47-10.53-7.59-6.11-1.58-12.58-.48-18.7,1.1,11.57-13.05,26.34-22.25,42.75-28.12,4.75-1.69,9.66-3.06,14.08-5.51,4.41-2.46,8.37-6.18,9.8-11.02,1.31-4.43.15-9.23-2.5-13.06-.27-.38-.55-.75-.85-1.1-1.37-1.71-3.07-3.15-4.96-4.21-6.34-3.54-14.36-3.19-21.02-.32,14.51-11.12,27.69-26.13,42.21-37.24,4.78-3.65,9.67-7.46,12.6-12.7,2.93-5.24,3.38-12.38-.56-16.91-.92-1.06-1.99-1.91-3.17-2.55-.45-.23-.9-.45-1.37-.63-4.92-2.01-11.25-1.16-16.59.45-27.08,8.18-49.64,30.03-58.67,56.84-1.17-6.82-7.45-11.37-14.35-12.04-1.86-.19-3.73-.07-5.55.28-.48.09-.95.19-1.43.32-4.38,1.13-8.47,3.63-11.72,6.81-4.92,4.86-8.14,11.22-10.51,17.73-5.45,15-6.87,31.44-4.07,47.16-1.69-5.67-9.76-8.76-15.67-8.57-1.47.04-2.91.29-4.31.71-.47.13-.91.27-1.35.45-3.67,1.41-6.95,3.95-9.45,7.02-3.75,4.58-5.97,10.2-7.65,15.87-5.63,18.92-5.79,39.42-.48,58.42-3.84-5-12.88-5.42-19.15-2.48-.44.2-.86.43-1.27.68-1.09.62-2.06,1.36-2.86,2.22-5.44,5.78-6.78,14.27-6.86,22.19-.19,23.83,8.73,46.69,17.54,68.85Z"/>
            <path class="st3" d="M894.86,653.05c.46-.01.92,0,1.35.03,3.39-17.28,7.8-34.35,13.13-51.13,5.25-2.75,10.57-5.34,15.98-7.78,15.58-7.02,31.75-12.7,48.29-16.98-.32-.4-.68-.76-1.05-1.12-1.54.4-3.07.81-4.59,1.23-20.08,5.6-39.55,13.28-58.07,22.86.01,0,0-.02.02-.03,7.14-22.12,15.94-43.69,26.22-64.53.14.18.37.27.65.14,5.9-2.73,11.89-5.3,17.93-7.69,10.68-4.22,21.57-7.89,32.62-10.99,7.93-2.21,15.92-4.14,23.98-5.77-.19-.43-.41-.84-.65-1.24-2.9.6-5.78,1.22-8.66,1.88-11.3,2.6-22.45,5.79-33.41,9.55-10.82,3.71-21.43,8-31.82,12.8.37-.76.74-1.52,1.12-2.28,11.03-21.89,23.72-42.94,37.94-62.91.94-1.33,1.92-2.65,2.88-3.97.06,0,.11.02.16,0,5.72-1.16,11.42-2.42,17.09-3.81,16.83-4.12,33.41-9.28,49.61-15.47-.27-.38-.55-.75-.85-1.1-2.37.9-4.76,1.8-7.15,2.65-18.82,6.76-38.12,12.15-57.72,16.16,13.1-17.84,27.42-34.8,42.87-50.65,14.71-15.1,30.45-29.17,47.09-42.1-.45-.23-.9-.45-1.37-.63-18.73,14.59-36.31,30.67-52.57,47.95-15.51,16.5-29.81,34.1-42.82,52.62-.85-4.45-1.48-8.95-1.91-13.47-1.29-13.89-.57-27.92,2.14-41.58-.48.09-.95.19-1.43.32-.34,1.74-.65,3.48-.92,5.22-2.61,16.77-2.28,33.95.98,50.6.02.15.09.24.16.31-.78,1.11-1.56,2.22-2.34,3.34-13.93,20.31-26.3,41.68-36.97,63.89-.23.49-.45.97-.69,1.46-1.28-4.79-2.38-9.62-3.3-14.5-2.87-15.29-3.95-30.93-3.21-46.48-.47.13-.91.27-1.35.45-.1,1.87-.16,3.73-.19,5.6-.34,19.02,2.05,38.08,7.06,56.42.03.13.08.21.16.28-8.94,18.95-16.65,38.45-23.02,58.4-.32.18-.35.48-.23.74-.62,1.99-1.26,3.98-1.87,5.98-1.11,3.66-2.17,7.32-3.19,11.01-2.16-4.86-4.1-9.83-5.85-14.85-4.99-14.46-8.2-29.52-9.6-44.75-.44.2-.86.43-1.27.68.05.63.11,1.26.18,1.89,2.1,20.15,7.41,39.96,15.7,58.44.09.19.23.31.38.37-2.94,10.76-5.49,21.61-7.63,32.54Z"/>
          </g>
          <g>
            <path class="st8" d="M715.6,779.28c-.13-.24-.24-.49-.35-.73-.2-.42-.38-.84-.52-1.25-1.35-3.7-1.2-7.21-3.18-10.98-23.09-3.24-47.64-7.12-65.14-22.53-4.06-3.58-7.68-7.72-12.29-10.52-4.62-2.82-10.69-4.07-15.39-1.4-2.05,1.17-3.59,2.95-4.58,5.05-.24.45-.43.93-.6,1.41-1.11,3.11-1.23,6.72-.42,9.94,1.52,6.04,5.53,11.06,9.43,15.89-19.19-2.28-37.22-10.19-50.82-23.94-4.18-4.23-7.99-8.94-12.98-12.14-5-3.22-11.67-4.67-16.87-1.83-1.25.68-2.33,1.56-3.24,2.62-.32.34-.61.71-.87,1.1-2.51,3.52-3.41,8.32-2.72,12.69,1,6.23,4.62,11.71,8.52,16.68-16.6-5.35-30.96-15.18-42.93-27.85-3.46-3.67-6.69-7.62-10.7-10.68-4.02-3.05-9.02-5.18-14.03-4.55-4.59.58-8.52,3.57-10.96,7.53-.24.4-.47.8-.67,1.22-1.01,1.94-1.65,4.07-1.86,6.24-.7,7.23,2.85,14.43,8.15,19.38-16.01-8.82-35.05-14.86-51.06-23.69-5.26-2.91-10.72-5.86-16.7-6.44s-12.69,1.87-15.26,7.31c-.61,1.27-.95,2.59-1.06,3.92-.03.5-.05,1-.03,1.51.14,5.31,3.46,10.77,7.08,15.02,18.37,21.51,47.45,33.39,75.62,30.89-5.77,3.81-7.42,11.39-5.26,17.98.58,1.78,1.43,3.44,2.48,4.97.27.4.56.8.87,1.18,2.8,3.56,6.72,6.3,10.95,8,6.43,2.56,13.54,2.94,20.45,2.5,15.92-1.04,31.55-6.34,44.82-15.22-4.51,3.83-4.11,12.46-1.56,17.8.63,1.33,1.44,2.55,2.39,3.66.3.38.62.72.95,1.06,2.76,2.8,6.41,4.78,10.22,5.83,5.7,1.59,11.74,1.37,17.61.62,19.58-2.44,38.42-10.54,53.69-23.04-3.03,5.52.21,13.98,5.42,18.54.36.32.74.62,1.13.89,1.01.75,2.08,1.34,3.19,1.73,7.48,2.66,15.79.48,23.08-2.64,21.91-9.4,39.26-26.75,56.01-43.71Z"/>
            <path class="st3" d="M715.25,778.54c-.2-.42-.38-.84-.52-1.25-17.19,3.84-34.59,6.66-52.1,8.52-4.63-3.7-9.14-7.54-13.54-11.51-12.69-11.44-24.39-23.97-34.95-37.4-.24.45-.43.93-.6,1.41.98,1.25,1.97,2.48,2.97,3.71,13.19,16.14,28.05,30.89,44.27,43.99,0,0-.02,0-.04,0-23.12,2.35-46.41,2.96-69.63,1.91.11-.2.1-.45-.14-.65-4.87-4.31-9.63-8.76-14.25-13.33-8.15-8.08-15.89-16.58-23.16-25.46-5.21-6.37-10.19-12.91-14.91-19.65-.32.34-.61.71-.87,1.1,1.71,2.41,3.44,4.81,5.2,7.17,6.92,9.3,14.32,18.23,22.17,26.75,7.75,8.41,15.93,16.41,24.5,23.99-.84-.03-1.69-.07-2.54-.11-24.47-1.31-48.85-4.47-72.85-9.47-1.6-.33-3.19-.69-4.79-1.04-.02-.06-.02-.11-.06-.14-3.36-4.77-6.8-9.49-10.35-14.12-10.53-13.76-21.93-26.86-34.1-39.21-.24.4-.47.8-.67,1.22,1.78,1.81,3.56,3.63,5.29,5.48,13.75,14.52,26.45,30.03,37.99,46.36-21.6-4.82-42.89-11.12-63.6-18.91-19.74-7.41-38.95-16.16-57.47-26.21-.03.5-.05,1-.03,1.51,20.88,11.29,42.67,20.93,65.04,28.88,21.34,7.57,43.21,13.6,65.39,18.07-3.74,2.56-7.6,4.95-11.56,7.16-12.2,6.76-25.33,11.74-38.94,14.75.27.4.56.8.87,1.18,1.73-.39,3.45-.8,5.15-1.26,16.41-4.34,32.01-11.55,45.95-21.23.13-.08.18-.18.22-.27,1.32.27,2.66.54,3.99.8,24.19,4.59,48.73,7.34,73.36,8.19.54.02,1.07.03,1.61.04-3.87,3.1-7.85,6.05-11.95,8.85-12.85,8.78-26.74,16.05-41.28,21.61.3.38.62.72.95,1.06,1.75-.66,3.48-1.35,5.2-2.08,17.55-7.33,34.05-17.18,48.84-29.13.11-.08.16-.16.19-.27,20.94.58,41.9-.2,62.73-2.38.29.22.58.12.77-.08,2.07-.23,4.15-.45,6.22-.69,3.8-.45,7.58-.95,11.36-1.5-3.59,3.93-7.35,7.71-11.25,11.32-11.24,10.38-23.74,19.37-37.13,26.77.36.32.74.62,1.13.89.56-.3,1.11-.61,1.66-.92,17.6-10.02,33.61-22.84,47.21-37.85.14-.16.19-.33.19-.49,11.03-1.64,21.99-3.66,32.86-6.09Z"/>
          </g>
          <g>
            <g>
              <path class="st8" d="M607.54,519.17c-.11-.18-.22-.36-.34-.54-15.19-24.42-13.36-57.89,3.4-81.27.21-.29.42-.57.62-.86.25.31.49.65.73.98,8.52,11.48,13.02,26.26,13.01,40.55-.01,14.17-6.42,30.44-16.33,40.09-.35.37-.72.71-1.1,1.05Z"/>
              <path class="st29" d="M607.54,519.17c-.11-.18-.22-.36-.34-.54,1.34-8.7,2.37-17.45,3.09-26.24,1.49-18.3,1.61-36.71.32-55.03.21-.29.42-.57.62-.86.25.31.49.65.73.98,1.44,20.94,1.09,42.01-1.06,62.9-.61,5.93-1.36,11.85-2.27,17.74-.35.37-.72.71-1.1,1.05Z"/>
            </g>
            <g>
              <path class="st8" d="M596.85,497.4c-.11-.19-.22-.36-.33-.54-14.95-24.57-45.65-38.02-74.08-33.6-.35.06-.7.11-1.05.17.17.36.36.73.54,1.09,6.4,12.78,17.57,23.46,30.33,29.89,12.65,6.38,30.07,7.99,43.15,3.5.48-.15.96-.32,1.43-.51Z"/>
              <path class="st29" d="M596.85,497.4c-.11-.19-.22-.36-.33-.54-8.37-2.72-16.65-5.75-24.81-9.07-17.01-6.92-33.49-15.12-49.27-24.53-.35.06-.7.11-1.05.17.17.36.36.73.54,1.09,18.04,10.73,37,19.91,56.62,27.41,5.57,2.13,11.19,4.13,16.86,5.98.49-.15.96-.32,1.43-.51Z"/>
            </g>
            <path class="st29" d="M634.84,583.71c-3.87-10.71-7.97-21.33-12.32-31.86-4.33-10.48-8.9-20.87-13.71-31.14-4.82-10.32-9.88-20.52-15.17-30.61-5.29-10.09-10.81-20.05-16.55-29.88s-11.71-19.53-17.9-29.09c-.78-1.21-1.56-2.41-2.35-3.61-.47-.72-1.63-.05-1.16.68,6.21,9.48,12.21,19.1,17.99,28.86,5.8,9.8,11.38,19.73,16.73,29.78,5.32,10.01,10.42,20.14,15.28,30.38,4.88,10.28,9.53,20.67,13.94,31.16,4.39,10.45,8.54,21,12.45,31.64.49,1.35.99,2.7,1.47,4.05.29.81,1.59.46,1.29-.35Z"/>
            <g>
              <path class="st21" d="M563.42,440.63c-6.97,3.01-15.26,2.29-22.02-1.17s-12.03-9.46-15.38-16.27c-3.35-6.81-4.88-14.41-5.32-22,11.17,1.3,21.91,6.57,29.73,14.65-2.46-12.48,1-25.81,9.07-35.65,7.08,8.67,13.17,18.4,14.85,29.47,1.68,11.07-.64,26.52-10.92,30.96Z"/>
              <path class="st5" d="M513.86,422.78c4.44,9.84,11.97,18.4,21.56,23.35s21.26,6.07,31.37,2.28c10.11-3.79,18.36-12.65,20.66-23.2,2.94-13.45-3.54-27.02-10.22-39.06-5.82,7.74-9.75,16.72-11.43,26.26-8.04-11.54-18.96-20.91-31.72-26.81-3.81,14.07-2.59,29.34,3.23,42.7-7.07-5.48-14.59-6.78-23.45-5.53Z"/>
            </g>
          </g>
          <g>
            <path class="st1" d="M596.09,650.6c2.59,14.24,10.51,27.12,20.59,37.51,5.81,5.97,12.4,11.29,17.14,18.13,4.76,6.85,7.47,15.85,4.39,23.6-1.28,3.24-3.52,5.93-6.3,7.96-.51.41-1.07.8-1.65,1.13-4.5,2.79-10.12,4.03-15.44,3.45-9.46-1.01-17.86-6.7-24.41-13.6-10.9-11.52-18.31-27.13-32.11-34.77-.43-.22-.86-.46-1.29-.68-.81-.4-1.63-.78-2.47-1.11-9.61-3.99-20.54-4.06-30.75-6.45-21.18-4.97-39.33-20.92-47.43-41.03-.29-.67-.53-1.34-.78-2.01-.66-1.8-1.24-3.63-1.72-5.48-1.69-6.36-2.52-13.16-6.28-18.55-5.37-7.68-15.16-10.52-23.85-14.01-8.71-3.48-17.21-8.31-24.64-14.37-.94-.76-1.86-1.55-2.76-2.36-11.59-10.32-20.05-23.77-21.68-39.67-.46-4.58-.24-9.14.57-13.54.12-.67.26-1.33.39-1.99,3.01-13.22,11.24-25.26,21.85-34.3.52-.43,1.04-.85,1.58-1.3,5.95-4.8,12.6-8.65,19.48-11.26,10.02-3.81,21.65-5.2,33.05-4.07.68.05,1.35.13,2.03.23,21.72,2.71,42.24,14.62,48.74,36.31.65,2.15,1.14,4.38,1.54,6.63,1,5.48,1.54,11.13,2.81,16.45.03,0,0,.02.02.03.91,3.91,2.26,7.63,4.45,11.02,8.76,13.44,27.03,15.76,41.53,22.93.69.32,1.36.68,2.03,1.04,3.81,2.08,7.31,4.56,10.22,7.76,7.69,8.49,9.87,20.62,10.14,32.06.28,11.46-1.06,23.03,1.01,34.3Z"/>
            <path class="st3" d="M566.24,654.1c-.03.11-.07.2-.12.28,13.14,15.76,26.06,31.72,38.69,47.88,9.18,11.74,18.23,23.58,27.11,35.54,5,6.71,9.95,13.46,14.87,20.24.76,1.05-.98,2.05-1.75,1-1.71-2.38-3.44-4.76-5.19-7.12-3.18-4.35-6.36-8.67-9.59-12.99-10.77-14.49-21.76-28.82-32.94-42.98-2.11-2.67-4.24-5.3-6.35-7.94-.11.18-.28.32-.55.41-6.19,1.74-12.48,3.11-18.84,4.08-4.41.69-8.82,1.2-13.27,1.52-.43-.22-.86-.46-1.29-.68-.81-.4-1.63-.78-2.47-1.11,11.9-.6,23.74-2.52,35.24-5.72-12.12-15.14-24.46-30.1-37.02-44.87-2.02-2.35-4.05-4.68-6.08-7.05.04.44-.17.88-.7,1.05-7.03,2.1-14.16,3.86-21.37,5.25-15.89,3.07-32.1,4.36-48.26,3.87-.29-.67-.53-1.34-.78-2.01,23.61.77,47.27-2.28,69.91-9.07.14-.03.28-.04.39-.01-12.9-15.01-26.03-29.81-39.4-44.39-1.34-1.46-2.68-2.9-4.02-4.35-.09.28-.29.51-.68.6-7.54,1.78-15.13,3.21-22.82,4.25-19.84,2.68-39.98,2.87-59.86.57-.94-.76-1.86-1.55-2.76-2.36,1.22.18,2.42.33,3.6.46,27.11,3.06,54.72,1.43,81.29-4.85-14.15-15.29-28.53-30.37-43.15-45.19-1.9-1.95-3.83-3.86-5.74-5.78-.09.05-.17.1-.31.11-5.45.77-10.94,1.39-16.44,1.82-13.43,1.08-26.93,1.15-40.36.21.12-.67.26-1.33.39-1.99,18.33,1.24,36.79.6,54.99-1.88-10.92-10.93-21.95-21.75-33.13-32.42.52-.43,1.04-.85,1.58-1.3,15.9,15.18,31.52,30.61,46.86,46.31,3.02,3.09,6.04,6.21,9.04,9.32-.08-6.63-.22-13.27-.42-19.91-.55-17.05-1.53-34.07-2.95-51.06.68.05,1.35.13,2.03.23,1.99,24.02,3.11,48.07,3.39,72.16,0,.21-.06.38-.16.53,12.6,13.1,25.02,26.38,37.25,39.85,2.9,3.21,5.8,6.44,8.68,9.66.75-8.08,1.34-16.18,1.7-24.3.82-18.3.63-36.67-.57-54.97,1,5.48,1.54,11.13,2.81,16.45.03,0,0,.02.02.03.67,21.11.01,42.28-1.98,63.32-.04.46-.34.75-.7.89,12.37,13.84,24.53,27.84,36.5,42.04,1.32,1.58,2.65,3.17,3.97,4.75,1.72-7.85,3.2-15.72,4.38-23.67,2.21-14.78,3.46-29.69,3.75-44.62.05-2.91.07-5.84.05-8.75.69.32,1.36.68,2.03,1.04.03,11.11-.47,22.23-1.51,33.3-1.39,14.9-3.72,29.72-6.98,44.32Z"/>
          </g>
          <g>
            <path class="st1" d="M883.11,754.53c-14.38-1.64-29,2.23-41.86,8.87-7.4,3.83-14.39,8.61-22.31,11.18-7.94,2.57-17.33,2.57-23.86-2.61-2.73-2.16-4.66-5.08-5.8-8.33-.24-.6-.46-1.26-.6-1.91-1.37-5.12-.93-10.85,1.15-15.78,3.7-8.76,11.58-15.17,20.07-19.44,14.18-7.11,31.26-9.69,42.56-20.7.33-.35.69-.69,1.02-1.04.61-.66,1.22-1.33,1.78-2.04,6.59-8.05,9.82-18.5,15.05-27.57,10.87-18.84,31.39-31.61,52.98-33.56.72-.08,1.44-.12,2.15-.17,1.92-.11,3.83-.14,5.75-.07,6.58.22,13.33,1.39,19.57-.65,8.91-2.92,14.45-11.47,20.3-18.79,5.84-7.34,12.92-14.07,20.88-19.44,1-.69,2.03-1.34,3.06-1.97,13.23-8.11,28.55-12.33,44.24-9.3,4.52.88,8.82,2.41,12.8,4.46.61.31,1.2.63,1.79.95,11.79,6.7,20.94,18.05,26.53,30.83.27.62.51,1.24.79,1.88,2.87,7.08,4.64,14.56,5.16,21.9.75,10.69-1.27,22.23-5.65,32.82-.25.64-.52,1.25-.81,1.88-8.87,20.01-26.19,36.22-48.84,36.18-2.25,0-4.52-.18-6.79-.44-5.53-.62-11.1-1.73-16.56-2.06-.01.02-.02,0-.04,0-4-.25-7.96-.04-11.83,1.08-15.4,4.5-22.9,21.33-33.95,33.13-.51.57-1.05,1.11-1.58,1.65-3.1,3.05-6.47,5.69-10.38,7.54-10.35,4.91-22.59,3.5-33.62.45-11.05-3.05-21.74-7.67-33.12-8.94Z"/>
            <path class="st3" d="M888.38,724.94c-.1-.06-.17-.13-.23-.19-18.88,8.03-37.89,15.79-57.01,23.21-13.89,5.39-27.84,10.64-41.86,15.69-7.87,2.85-15.76,5.64-23.67,8.39-1.22.43-1.68-1.53-.45-1.96,2.78-.95,5.55-1.92,8.31-2.91,5.08-1.79,10.14-3.58,15.21-5.43,16.99-6.13,33.88-12.5,50.67-19.13,3.16-1.25,6.29-2.53,9.43-3.79-.14-.15-.23-.36-.23-.65.13-6.43.63-12.85,1.54-19.21.61-4.42,1.4-8.79,2.38-13.15.33-.35.69-.69,1.02-1.04.61-.66,1.22-1.33,1.78-2.04-2.87,11.57-4.44,23.45-4.7,35.39,17.99-7.23,35.88-14.72,53.65-22.48,2.83-1.25,5.66-2.52,8.5-3.78-.43-.09-.8-.41-.8-.97.02-7.34.39-14.67,1.15-21.97,1.65-16.1,5.09-31.99,10.23-47.32.72-.08,1.44-.12,2.15-.17-7.56,22.38-11.46,45.91-11.5,69.55,0,.15-.04.28-.1.37,18.1-8.02,36.06-16.31,53.88-24.91,1.78-.87,3.55-1.73,5.33-2.59-.25-.17-.41-.42-.38-.82.47-7.73,1.3-15.42,2.52-23.07,3.16-19.77,8.8-39.1,16.75-57.48,1-.69,2.03-1.34,3.06-1.97-.53,1.11-1.02,2.22-1.49,3.32-10.76,25.08-17.17,51.98-18.83,79.23,18.73-9.13,37.32-18.54,55.73-28.26,2.41-1.26,4.8-2.55,7.19-3.83-.02-.1-.05-.2-.01-.33.83-5.44,1.83-10.87,3-16.26,2.85-13.17,6.68-26.12,11.45-38.7.61.31,1.2.63,1.79.95-6.48,17.19-11.2,35.05-14.08,53.19,13.62-7.29,27.17-14.74,40.61-22.36.27.62.51,1.24.79,1.88-19.12,10.83-38.41,21.34-57.87,31.49-3.83,2-7.69,3.98-11.53,5.97,6.37,1.83,12.77,3.62,19.18,5.34,16.48,4.4,33.06,8.38,49.74,11.92-.25.64-.52,1.25-.81,1.88-23.57-5.03-46.92-10.9-70.07-17.6-.2-.06-.35-.17-.46-.31-16.18,8.28-32.48,16.33-48.91,24.15-3.91,1.85-7.84,3.69-11.76,5.52,7.52,3.06,15.11,5.95,22.77,8.65,17.28,6.07,34.92,11.19,52.79,15.33-5.53-.62-11.1-1.73-16.56-2.06-.01.02-.02,0-.04,0-20.4-5.45-40.49-12.2-60.05-20.18-.43-.17-.62-.54-.65-.93-16.82,7.84-33.73,15.45-50.79,22.81-1.9.81-3.8,1.62-5.7,2.43,7.02,3.92,14.13,7.6,21.4,11.03,13.51,6.38,27.42,11.89,41.64,16.48,2.77.89,5.57,1.75,8.36,2.57-.51.57-1.05,1.11-1.58,1.65-10.65-3.18-21.14-6.87-31.45-11.06-13.86-5.64-27.38-12.15-40.41-19.49Z"/>
          </g>
        </g>
        <path class="st4" d="M1053.33,1228.28l-35.65,102.13,21.03-115.09c-20.69-11.24-50.83-7.55-81.1,2.98l-13.74,175.77,1.73-171.25c-10.52,4.25-20.9,9.2-30.75,14.51l10.26,161.04-31.58-148.52c-17.95,11.49-32.47,23.37-40.19,32.72-11.97,14.49-22.95,28.35-29.87,53.2l45.16,69.24-47.18-61.14c-4.19,18.89-6.27,43.64-5.21,78.13h254.64s17.98-144.76-17.56-193.72Z"/>
        <path class="st27" d="M619.03,1313.18l35.12-49.57c-8.89-19.11-22.88-35.43-39.59-48.83l-43.59,94.49,33.03-102.33c-9.13-6.28-18.85-11.76-28.85-16.45l-23.02,133.25,13.26-137.53c-21.91-8.98-44.6-14.16-64.83-15.32l1.79,65.06s-7.97-38.84-13.31-65.29c-9.15.2-17.59,1.34-24.96,3.42l10.59,77.84-26.06-70.79c-12.58,8.73-21.77,24.19-28.29,44.43l54.36,98.17-61.74-67.38c-5.6,32.04-7.14,70.79-6.32,111.64h263.83s-3.04-46.67-7.8-75.55l-43.62,20.73Z"/>
        <g>
          <path class="st1" d="M1045.58,1498.41c15.6-35.26,34.37-69.07,55.96-100.9,2.58-3.81,5.2-7.58,7.86-11.33-.42-.45-.84-.9-1.22-1.37-15.8-18.05-24.8-47.18-23.07-71.86,1.73-24.89,11.28-50.06,27.3-68.98.45-.55.91-1.1,1.37-1.61.32.53.64,1.05.96,1.58,23.75,39.31,24.85,91.84,2.38,131.62,10.98-14.81,22.59-29.14,34.78-42.94,0,0,0,0-.01.01-.27.26-.53.49-.8.75-.47-.74-.92-1.5-1.33-2.28-11.96-20.88-15.08-51.24-8.57-75.08,6.56-24.04,20.83-46.8,40.24-62.11.55-.44,1.1-.89,1.66-1.3.21.58.42,1.16.63,1.74,14.83,41.17,7.27,89.94-19.1,124.26,3.22-3.43,6.47-6.83,9.76-10.19,10.39-10.62,21.15-20.85,32.26-30.7-.35-.71-.69-1.44-.98-2.18-9.7-22.05-9.61-52.58-.63-75.58,9.05-23.2,25.63-44.27,46.53-57.4.59-.38,1.19-.77,1.79-1.12.15.6.3,1.2.45,1.8,10.45,42.67-2.29,90.49-32.31,121.76,13.13-10.93,26.67-21.35,40.63-31.16,3.41-2.39,6.84-4.74,10.29-7.07-.27-.81-.52-1.62-.72-2.45-6.59-23.21-2.32-53.43,9.72-74.93,12.14-21.69,31.44-40.23,53.94-50.28.64-.29,1.28-.59,1.92-.85.07.62.13,1.23.2,1.84,4.49,43.63-14.57,89.08-48.43,115.83,14.51-9.12,29.37-17.66,44.56-25.58,10.37-21.73,33.39-41.4,56.49-49.31,23.26-7.94,49.8-8.69,73.18-.99.7.22,1.37.45,2.04.69-.36.5-.69,1.01-1.06,1.48-28.94,40.75-82.52,62.38-130.66,50.77-14.21,7.42-28.14,15.44-41.76,23.96,11.39-4.93,23.55-8.09,35.69-9.3,24.25-2.41,53.18,5.93,71.38,21.48.69.54,1.34,1.13,1.98,1.73-.3.23-.57.45-.86.68-39.22,30.58-96.8,33.15-139.65,8.05-.41-.24-.83-.49-1.24-.73-19.91,14.25-38.99,29.68-57.12,46.19,16.51-11.58,36.39-18.77,56.21-20.74,24.25-2.41,53.18,5.93,71.38,21.48.69.54,1.34,1.13,1.98,1.73-.3.23-.57.45-.86.68-39.22,30.58-96.8,33.15-139.65,8.05-.21-.13-.42-.25-.64-.38-1.39,1.33-2.8,2.64-4.18,3.98-16.87,16.46-32.82,33.89-47.79,52.15,17.66-14.55,40.27-23.55,62.83-25.79,24.25-2.41,53.18,5.93,71.38,21.48.69.54,1.34,1.13,1.98,1.73-.3.23-.57.45-.86.68-39.22,30.58-96.8,33.15-139.65,8.05-.14-.08-.27-.16-.41-.24-7.62,9.52-15.01,19.24-22.08,29.19-22.17,31.15-41.59,64.35-57.9,99.04-2.04,4.37-4.03,8.74-5.98,13.12-.62,1.38-2.75.53-2.14-.84Z"/>
          <path class="st1" d="M588.16,1461.31c-29.5-24.44-56.8-51.6-81.49-81.02-2.95-3.51-5.86-7.07-8.74-10.65-.53.29-1.07.59-1.62.85-21.27,10.82-51.31,12.09-74.34,4-23.23-8.15-44.7-24.03-58.55-44.65-.4-.59-.81-1.18-1.18-1.76.58-.18,1.17-.36,1.75-.53,43.55-13.1,93.81-.57,125.83,31.77-11.25-14.6-21.86-29.7-31.84-45.23,0,0,0,.01,0,.02.17.33.33.65.5.98-.83.27-1.67.52-2.51.72-22.96,6.32-52.65,1.51-73.65-11.05-21.17-12.66-39.12-32.56-48.67-55.55-.28-.66-.56-1.31-.81-1.96.61-.06,1.21-.11,1.82-.17,43.01-3.87,87.44,16.18,113.26,50.93-2.43-4.04-4.82-8.11-7.17-12.21-7.41-12.94-14.35-26.15-20.84-39.59-.77.16-1.55.3-2.33.4-23.49,3.8-52.51-4.2-72.07-18.97-19.72-14.88-35.48-36.61-42.55-60.5-.21-.68-.42-1.37-.6-2.04.61,0,1.22.02,1.83.03,43.3.81,85.5,25.7,107.46,63.24-7-15.7-13.4-31.68-19.12-47.92-1.39-3.96-2.74-7.94-4.06-11.92-.83.05-1.68.09-2.51.07-23.79.44-51.43-11.57-68.77-28.95-17.49-17.52-30.12-41.26-33.85-65.92-.12-.71-.23-1.41-.31-2.11.6.09,1.2.19,1.81.29,42.67,6.9,80.97,37.37,97.65,77.51-4.92-16.59-9.2-33.38-12.78-50.32-17.98-15.8-30.73-43.47-32.27-68.17-1.52-24.87,4.63-51.09,18.02-72.01.39-.62.79-1.22,1.19-1.82.39.48.78.93,1.14,1.43,31.27,38.94,37.96,97.08,14.45,141.28,3.38,15.86,7.39,31.59,11.97,47.16-1.74-12.45-1.6-25.19.4-37.4,3.99-24.41,19.42-50.61,38.93-64.42.69-.53,1.42-1.03,2.16-1.5.14.35.28.68.42,1.03,18.93,46.39,6.45,103.51-28.53,139.02-.34.34-.68.68-1.02,1.02,8.4,23.21,18.13,45.92,29.14,67.98-6.74-19.19-8.43-40.54-5.16-60.5,3.99-24.41,19.42-50.61,38.93-64.42.69-.53,1.42-1.03,2.15-1.5.14.35.28.67.42,1.02,18.93,46.39,6.45,103.51-28.53,139.02-.18.18-.35.35-.52.53.91,1.71,1.78,3.43,2.71,5.13,11.29,20.81,23.73,40.96,37.23,60.37-9.26-21.08-11.97-45.59-8.25-68.3,3.99-24.41,19.42-50.61,38.93-64.42.69-.53,1.42-1.03,2.15-1.5.14.35.28.68.42,1.03,18.93,46.39,6.45,103.51-28.53,139.02-.11.11-.23.23-.34.34,7.09,9.94,14.42,19.7,22.05,29.21,23.89,29.82,50.44,57.46,79.22,82.44,3.63,3.13,7.27,6.22,10.93,9.27,1.15.95-.21,2.83-1.36,1.87Z"/>
          <path class="st1" d="M376.51,1391.99c-3.06-10.68-8.03-21.63-17.42-27.38-1.39-.86-2.95-1.5-4.64-1.92-.64-.18-1.28-.33-1.95-.43-9.44-1.58-21.32,2.42-24.56,10.63-.04-27.69-7.92-55.32-22.49-78.74-4.35-7.03-9.41-13.77-16.11-18.54-4.47-3.19-9.79-5.39-15.2-5.89-.65-.07-1.29-.1-1.96-.09-2.02-.04-4.03.16-6.01.67-7.94,1.99-17.52,9.23-17.65,17.54-2.15-22.29-10.19-43.96-23.06-62.16-5.59-7.9-12.24-15.26-20.61-19.96-5.52-3.07-11.89-4.88-18.14-4.75-.69,0-1.36.05-2.03.11-2.55.22-5.08.77-7.48,1.73-8.94,3.53-15.59,12.06-14.59,21.71-22.05-32.78-60.24-53.73-99.33-54.5-7.71-.14-16.45,1.11-22.25,5.69-.56.43-1.08.89-1.58,1.37-1.32,1.31-2.43,2.86-3.26,4.65-3.55,7.63-.28,17.09,5.59,23.06,5.86,5.97,13.8,9.25,21.52,12.37,23.47,9.49,46.62,24.77,70.09,34.28-9.94-1.34-20.74,1.22-27.85,8.42-2.12,2.16-3.84,4.75-5.03,7.57-.27.59-.5,1.2-.72,1.81-2.09,6.17-1.83,13.1,1.56,18.59,3.71,6,10.37,9.52,17.16,11.17,6.79,1.63,13.84,1.61,20.79,2.09,24.04,1.7,47.13,8.52,67.41,21.76-8.73.2-17.75,1.16-25.29,5.62-5.27,3.14-9.61,8.39-11.17,14.25-.18.63-.32,1.27-.4,1.92-.33,1.92-.33,3.88.04,5.84,1.53,8.17,8.93,14.1,16.75,16.67,7.8,2.56,16.17,2.49,24.36,3.26,26.62,2.5,50.88,15.01,70.15,33.79-8.57.08-17.47.2-25.25,3.93-4.15,1.98-7.89,5.33-10.25,9.3-.36.62-.71,1.25-.98,1.91-1.36,2.95-1.92,6.2-1.37,9.47,1.27,7.48,7.93,12.94,14.99,15.45,7.04,2.5,14.64,2.74,22.02,3.96,31.81,5.26,57.49,28.42,81.2,50.58,5.77-1.21,9.39-4.5,14.53-6.33.57-.22,1.17-.4,1.79-.56.36-.1.71-.19,1.09-.27,3.43-33.27,6.75-67.54-2.42-99.66Z"/>
          <g>
            <g>
              <path class="st1" d="M993.37,1281.8c.07-.37.13-.72.2-1.09,9.23-49.33,50.53-90.14,98.97-100.35.6-.12,1.19-.25,1.79-.37-.05.7-.13,1.41-.22,2.12-2.59,24.81-14.11,49.12-30.78,67.46-16.52,18.19-43.58,31.5-67.36,32.19-.87.06-1.74.07-2.61.05Z"/>
              <path class="st3" d="M993.37,1281.8c.07-.37.13-.72.2-1.09,11.84-9.59,23.33-19.61,34.47-30.05,23.21-21.74,44.8-45.25,64.51-70.31.6-.12,1.19-.25,1.79-.37-.05.7-.13,1.41-.22,2.12-22.56,28.6-47.55,55.24-74.6,79.53-7.68,6.9-15.52,13.62-23.53,20.11-.87.06-1.75.07-2.61.05Z"/>
            </g>
            <g>
              <path class="st1" d="M1005.19,1241.2c.07-.37.14-.72.22-1.09,9.7-49.23-13.46-102.81-54.57-130.76-.51-.34-1.01-.68-1.52-1.03-.21.66-.4,1.36-.58,2.05-6.78,23.98-5.1,50.91,3.55,74.26,8.58,23.16,28.73,45.82,50.51,55.52.78.39,1.59.73,2.4,1.04Z"/>
              <path class="st3" d="M1005.19,1241.2c.07-.37.14-.72.22-1.09-7.42-13.4-14.36-27.07-20.82-40.99-13.46-29-24.77-59.02-33.76-89.76-.51-.34-1.01-.68-1.52-1.03-.21.66-.4,1.36-.58,2.05,10.32,35.11,23.62,69.34,39.7,102.17,4.57,9.32,9.34,18.54,14.37,27.61.78.38,1.59.73,2.4,1.04Z"/>
            </g>
            <path class="st3" d="M952.73,1396.97c7.59-18.33,14.76-36.83,21.52-55.49,6.73-18.59,13.04-37.33,18.94-56.21,5.92-18.95,11.4-38.04,16.46-57.25,5.06-19.21,9.68-38.53,13.87-57.95,4.19-19.42,7.94-38.94,11.24-58.53.42-2.47.83-4.94,1.23-7.42.24-1.48-2.01-1.99-2.25-.5-3.18,19.52-6.8,38.98-10.86,58.34-4.07,19.45-8.58,38.8-13.53,58.03-4.92,19.15-10.27,38.19-16.05,57.09-5.8,18.98-12.01,37.82-18.66,56.51-6.62,18.61-13.66,37.08-21.11,55.36-.94,2.32-1.9,4.63-2.85,6.94-.57,1.38,1.47,2.47,2.05,1.07Z"/>
            <g>
              <path class="st21" d="M1029.03,1128.76c-12.33-4.37-21.98-15.1-26.5-27.54-4.52-12.44-4.2-26.38-.5-39.1,3.7-12.72,10.61-24.29,18.89-34.54,12.61,14.88,20.07,34.35,20.54,53.97,11.42-18.95,31.33-31.97,53-35.06-1.14,19.52-4.77,39.21-15.54,55.42-10.77,16.21-31.71,33.31-49.89,26.85Z"/>
              <path class="st5" d="M987.12,1047.23c-5.84,17.89-6.3,37.79.08,55.49,6.38,17.7,19.83,32.94,37.03,40.04,17.2,7.1,37.96,5.46,53.15-5.36,19.39-13.81,26.99-38.89,32.56-62.26-16.39,3.06-31.81,9.94-45.05,20.21,3.26-24.34.37-49.27-8.9-71.95-21.21,13.57-37.45,34.61-45.66,58.66-2.56-15.39-10.56-25.97-23.23-34.82Z"/>
            </g>
          </g>
        </g>
        <g>
          <g>
            <path class="st7" d="M393.15,359.53c24.04,5.04,40.35,24.29,40.35,24.29,0,0-22.67,11.08-46.71,6.04-24.04-5.04-40.35-24.28-40.35-24.28,0,0,22.67-11.08,46.7-6.04Z"/>
            <path class="st7" d="M440.19,402.3c33.39-1.3,61.28,18.71,61.28,18.71,0,0-26.25,22.11-59.64,23.41-33.39,1.3-61.27-18.71-61.27-18.71,0,0,26.25-22.11,59.64-23.41Z"/>
            <path class="st7" d="M502.92,357.32c10.08,31.86-1.83,64.05-1.83,64.05,0,0-28.27-19.46-38.35-51.32-10.09-31.85,1.83-64.04,1.83-64.04,0,0,28.27,19.46,38.36,51.32Z"/>
            <path class="st7" d="M489.02,451c33.39-1.3,61.28,18.71,61.28,18.71,0,0-26.25,22.11-59.64,23.4-33.39,1.3-61.27-18.71-61.27-18.71,0,0,26.25-22.11,59.63-23.41Z"/>
            <path class="st7" d="M570.69,407.81c.62,33.41-19.94,60.89-19.94,60.89,0,0-21.58-26.69-22.2-60.1-.63-33.41,19.94-60.89,19.94-60.89,0,0,21.58,26.69,22.21,60.09Z"/>
            <path class="st7" d="M529.1,508.09c39.21,6.52,66.9,36.53,66.9,36.53,0,0-35.9,19.45-75.12,12.93-39.21-6.52-66.89-36.53-66.89-36.53,0,0,35.9-19.45,75.11-12.93Z"/>
            <path class="st7" d="M637,480.38c-9.44,38.61-41.45,63.97-41.45,63.97,0,0-16.7-37.26-7.26-75.88,9.44-38.61,41.44-63.96,41.44-63.96,0,0,16.7,37.26,7.26,75.87Z"/>
            <path class="st25" d="M611.81,584.56c-6.28-20.22-15.71-44.92-29.67-70.3-30.82-56.07-90.56-126.94-200.04-146.16-1.05-.17-2.03.51-2.22,1.55-.18,1.04.51,2.03,1.55,2.22,107.94,18.95,166.86,88.83,197.29,144.12,13.82,25.11,23.16,49.54,29.38,69.54l3.7-.97Z"/>
            <path class="st17" d="M437.48,423.79l55.88-6.95s-1.45-46.72-17.28-75.29"/>
            <path class="st17" d="M548.96,380.64s-7.53,61.39.29,88.9c-42.27-8.69-88.6,5.79-88.6,5.79"/>
            <path class="st17" d="M521.74,534.69s53.57,12.74,72.68,9.27c4.05-36.77,13.03-83.68,24.32-95.55"/>
          </g>
          <g>
            <g>
              <path class="st28" d="M932.9,262.4c-7.69,17.42-20.37,28.69-28.33,25.18-7.96-3.51-8.17-20.48-.49-37.9,7.69-17.43,20.37-28.7,28.33-25.19,7.96,3.51,8.18,20.48.49,37.91Z"/>
              <path class="st11" d="M937.58,231.25c-.84,5.12-2.49,10.73-4.98,16.38-7.69,17.42-20.38,28.7-28.33,25.18-2.47-1.09-4.19-3.47-5.16-6.76-1.73,10.64.1,19.15,5.47,21.52,7.96,3.51,20.65-7.76,28.33-25.18,5.3-12.02,6.84-23.82,4.67-31.14Z"/>
            </g>
            <g>
              <path class="st28" d="M863.79,289.69c17.52,7.46,34.48,7.03,37.9-.97,3.41-8-8.03-20.55-25.55-28.01-17.52-7.47-34.49-7.03-37.89.97-3.41,8,8.02,20.54,25.54,28.01Z"/>
              <path class="st11" d="M839.1,270.15c4.11,3.16,9.14,6.13,14.83,8.56,17.52,7.47,34.48,7.03,37.9-.97,1.05-2.48.68-5.4-.86-8.46,8.53,6.58,13.01,14.05,10.71,19.45-3.42,8-20.38,8.44-37.9.97-12.09-5.15-21.27-12.72-24.69-19.55Z"/>
            </g>
            <g>
              <path class="st28" d="M946.95,317.96c-11.6,17.79-27.59,27.92-35.73,22.62-8.12-5.3-5.31-24.02,6.29-41.81,11.6-17.8,27.59-27.92,35.72-22.62,8.13,5.3,5.32,24.01-6.28,41.81Z"/>
              <path class="st11" d="M957.69,284.52c-1.84,5.49-4.66,11.36-8.43,17.14-11.59,17.79-27.59,27.92-35.72,22.63-2.52-1.64-3.98-4.58-4.46-8.38-3.82,11.4-3.34,21.1,2.14,24.68,8.14,5.3,24.13-4.84,35.73-22.62,7.99-12.28,11.81-24.99,10.74-33.44Z"/>
            </g>
            <g>
              <path class="st28" d="M865.96,335.58c17.94,11.37,36.7,13.94,41.89,5.75,5.19-8.19-5.14-24.06-23.08-35.43-17.94-11.37-36.7-13.94-41.89-5.75-5.2,8.2,5.13,24.05,23.08,35.43Z"/>
              <path class="st11" d="M842.3,309.61c3.96,4.23,8.96,8.4,14.79,12.09,17.93,11.37,36.69,13.95,41.88,5.75,1.61-2.54,1.73-5.82.59-9.47,8.21,8.78,11.8,17.8,8.29,23.33-5.2,8.2-23.95,5.62-41.89-5.75-12.38-7.85-21.13-17.83-23.66-25.96Z"/>
            </g>
            <g>
              <path class="st28" d="M951.69,384.29c-16.45,16.91-36.05,24.53-43.79,17.02-7.72-7.51-.65-27.32,15.8-44.23,16.45-16.92,36.05-24.54,43.78-17.03,7.73,7.52.66,27.32-15.79,44.25Z"/>
              <path class="st11" d="M970.56,350.13c-3.18,5.59-7.51,11.39-12.86,16.88-16.44,16.91-36.05,24.53-43.78,17.02-2.4-2.33-3.36-5.84-3.08-10.09-6.6,11.61-8.15,22.29-2.94,27.36,7.74,7.52,27.34-.11,43.79-17.02,11.35-11.68,18.22-24.72,18.86-34.16Z"/>
            </g>
            <g>
              <path class="st28" d="M859.63,386.16c17.12,16.23,37.02,23.05,44.44,15.23,7.41-7.83-.46-27.33-17.58-43.56-17.13-16.24-37.03-23.05-44.44-15.23-7.42,7.82.45,27.32,17.58,43.56Z"/>
              <path class="st11" d="M839.39,352.81c3.4,5.45,7.98,11.06,13.54,16.34,17.11,16.23,37.01,23.05,44.43,15.23,2.3-2.43,3.13-5.98,2.66-10.2,7.07,11.33,9.05,21.93,4.05,27.22-7.42,7.83-27.32,1-44.44-15.23-11.82-11.2-19.22-23.96-20.24-33.36Z"/>
            </g>
            <g>
              <path class="st28" d="M939.96,460.17c-21.64,14.5-44.54,18.24-51.18,8.36-6.62-9.88,5.55-29.65,27.19-44.15,21.64-14.5,44.54-18.25,51.17-8.37,6.62,9.88-5.54,29.65-27.18,44.16Z"/>
              <path class="st11" d="M968.15,427.6c-4.72,5.31-10.71,10.58-17.75,15.29-21.62,14.5-44.54,18.24-51.16,8.36-2.06-3.07-2.3-7.08-1.01-11.59-9.8,11.02-13.91,22.19-9.44,28.87,6.63,9.88,29.54,6.14,51.18-8.36,14.92-10,25.33-22.52,28.19-32.57Z"/>
            </g>
            <g>
              <path class="st28" d="M840.14,441.12c14.77,21.44,34.7,33.37,44.5,26.61,9.8-6.75,5.76-29.62-9.01-51.06-14.78-21.45-34.71-33.36-44.51-26.62-9.8,6.76-5.76,29.6,9.02,51.06Z"/>
              <path class="st11" d="M825.91,400.47c2.43,6.67,6.08,13.78,10.87,20.74,14.77,21.45,34.69,33.36,44.5,26.61,3.04-2.09,4.74-5.74,5.21-10.4,5.04,13.85,4.76,25.75-1.86,30.32-9.8,6.75-29.73-5.17-44.5-26.61-10.2-14.8-15.27-30.27-14.22-40.65Z"/>
            </g>
            <g>
              <path class="st28" d="M903.97,542.36c-29.3,9.05-56.41,5.53-60.55-7.87-4.13-13.38,16.28-31.57,45.58-40.61,29.31-9.05,56.4-5.53,60.55,7.84,4.13,13.39-16.27,31.58-45.58,40.63Z"/>
              <path class="st11" d="M946.76,515.14c-7.11,4.39-15.66,8.31-25.18,11.25-29.29,9.05-56.4,5.52-60.53-7.86-1.28-4.15-.2-8.76,2.77-13.42-14.77,9.13-23.18,20.34-20.4,29.37,4.14,13.4,31.25,16.91,60.55,7.87,20.21-6.25,36.19-16.84,42.79-27.21Z"/>
            </g>
            <path class="st28" d="M879.85,211.88c-1.87.58-2.74,2.74-2.05,4.57,43.3,113.87,33.71,219.13-26.99,296.4-12.39,15.76-26.61,29.91-42.35,42.38l3.92,5.94c16.36-12.91,31.13-27.58,43.99-43.95,62.29-79.29,72.25-187,28.04-303.28-.7-1.83-2.74-2.74-4.56-2.05Z"/>
            <g>
              <path class="st28" d="M797.79,487.15c9.42,29.18,27.87,49.36,41.21,45.06,13.33-4.31,16.5-31.46,7.09-60.64-9.42-29.2-27.88-49.36-41.21-45.06-13.33,4.31-16.5,31.44-7.08,60.64Z"/>
              <path class="st11" d="M795.49,436.49c.48,8.33,2.2,17.59,5.26,27.07,9.41,29.17,27.86,49.35,41.2,45.05,4.14-1.34,7.29-4.87,9.39-9.98,1,17.33-3.33,30.66-12.34,33.57-13.34,4.3-31.78-15.88-41.21-45.06-6.5-20.13-6.99-39.31-2.31-50.66Z"/>
            </g>
            <g>
              <path class="st28" d="M896.61,217.22c6.99,17.71,6.11,34.66-1.99,37.86-8.09,3.19-20.32-8.57-27.32-26.29-6.99-17.71-6.1-34.66,1.99-37.85,8.09-3.2,20.32,8.57,27.32,26.28Z"/>
              <path class="st11" d="M877.73,192.02c3.06,4.19,5.89,9.3,8.16,15.06,6.99,17.71,6.1,34.66-1.99,37.86-2.51.99-5.41.54-8.44-1.08,6.35,8.71,13.69,13.39,19.16,11.23,8.09-3.2,8.98-20.15,1.99-37.86-4.83-12.22-12.15-21.61-18.88-25.2Z"/>
            </g>
          </g>
          <g>
            <path class="st25" d="M707.31,459.83c15.68,28.6,3.87,65.23,3.87,65.23,0,0-37.24-9.73-52.92-38.33-15.68-28.6-3.87-65.23-3.87-65.23,0,0,37.24,9.73,52.92,38.33Z"/>
            <g class="st30">
              <g>
                <rect class="st7" x="682.91" y="412.54" width="2.07" height="125.7" transform="translate(-144.33 387.42) rotate(-28.74)"/>
                <rect class="st7" x="660.52" y="440.34" width="2.07" height="46.62" transform="translate(-33.95 874.62) rotate(-65.6)"/>
                <rect class="st7" x="673.71" y="465.24" width="52.99" height="2.07" transform="translate(58.82 1010.63) rotate(-73.98)"/>
                <rect class="st7" x="653.77" y="428.11" width="33.65" height="2.07" transform="translate(131.69 1015.19) rotate(-80.02)"/>
                <polygon class="st7" points="701.71 509.12 661.9 502.59 662.23 500.55 702.04 507.07 701.71 509.12"/>
              </g>
            </g>
          </g>
          <g>
            <path class="st25" d="M788.43,444.23c-8.2,42.25-51.08,69.47-51.08,69.47,0,0-29.59-41.28-21.4-83.53,8.2-42.25,51.08-69.47,51.08-69.47,0,0,29.6,41.28,21.4,83.53Z"/>
            <g class="st20">
              <g>
                <rect class="st7" x="668.65" y="438.95" width="165.88" height="2.73" transform="translate(176.18 1094.28) rotate(-79.02)"/>
                <rect class="st7" x="737.39" y="378.75" width="2.73" height="61.53" transform="translate(-104.66 363.64) rotate(-25.89)"/>
                <rect class="st7" x="740.82" y="443.41" width="69.93" height="2.73" transform="translate(-115.8 513.68) rotate(-34.25)"/>
                <rect class="st7" x="754.83" y="380.75" width="44.41" height="2.74" transform="translate(-62.92 592.55) rotate(-40.25)"/>
                <rect class="st7" x="723.39" y="441.92" width="2.74" height="53.24" transform="translate(-129.67 589.99) rotate(-40.97)"/>
              </g>
            </g>
          </g>
          <g>
            <path class="st19" d="M508.45,704.68c-34.72-25.75-85-45.42-147.26-21.11"/>
            <path class="st19" d="M397.13,591.34c1.48,1.68,19.57,61.95,76.19,92.56"/>
            <path class="st19" d="M425.31,599.03s4.51,20.73-4.32,37.1"/>
            <path class="st19" d="M426.33,673.39s-10.23,33.08-46.24,45.94"/>
            <path class="st19" d="M342.05,612.62s24.83,37.1,102.08,50.21"/>
            <g>
              <path class="st15" d="M360.16,617.84c-3.49,8.57-13.26,12.68-21.83,9.19-8.56-3.49-12.68-13.26-9.19-21.82,3.49-8.57,13.26-12.68,21.82-9.2,8.57,3.49,12.68,13.26,9.19,21.83Z"/>
              <path class="st12" d="M350.97,596.01c-1.14-.46-2.3-.77-3.46-.97,4.22,4.62,5.72,11.41,3.2,17.59-3.02,7.43-10.78,11.49-18.37,10.17,1.63,1.78,3.62,3.27,6,4.24,8.57,3.49,18.34-.63,21.83-9.19,3.49-8.57-.63-18.34-9.19-21.83Z"/>
            </g>
            <g>
              <path class="st15" d="M410.74,595.84c-3.49,8.57-13.26,12.68-21.82,9.19-8.56-3.49-12.68-13.26-9.19-21.82,3.49-8.57,13.26-12.68,21.82-9.2,8.57,3.49,12.68,13.26,9.19,21.83Z"/>
              <path class="st12" d="M401.54,574.01c-1.14-.46-2.3-.77-3.46-.98,4.22,4.62,5.71,11.41,3.19,17.59-3.02,7.43-10.77,11.49-18.37,10.17,1.63,1.78,3.62,3.27,6,4.24,8.57,3.49,18.34-.63,21.82-9.19,3.49-8.57-.63-18.34-9.19-21.83Z"/>
            </g>
            <g>
              <path class="st15" d="M376.29,679.4c1.08,7.03-3.74,13.61-10.78,14.7-7.03,1.09-13.61-3.74-14.7-10.77-1.08-7.03,3.74-13.62,10.77-14.7,7.03-1.08,13.62,3.74,14.7,10.77Z"/>
              <path class="st12" d="M361.59,668.63c-.94.14-1.82.4-2.67.72,4.62,1.38,8.28,5.27,9.07,10.35.94,6.1-2.57,11.84-8.1,13.97,1.78.53,3.68.72,5.63.42,7.04-1.08,11.86-7.66,10.78-14.7-1.09-7.03-7.67-11.86-14.7-10.77Z"/>
            </g>
            <g>
              <path class="st15" d="M395.98,714.15c1.08,7.03-3.74,13.61-10.77,14.7-7.03,1.09-13.61-3.74-14.7-10.77-1.08-7.03,3.74-13.62,10.77-14.7s13.62,3.74,14.7,10.77Z"/>
              <path class="st12" d="M381.28,703.38c-.94.14-1.82.4-2.67.72,4.62,1.38,8.28,5.27,9.07,10.35.94,6.1-2.57,11.84-8.1,13.97,1.78.53,3.68.72,5.64.42,7.04-1.08,11.86-7.66,10.77-14.7-1.08-7.03-7.67-11.86-14.7-10.77Z"/>
            </g>
            <g>
              <path class="st15" d="M434.83,597.01c.74,4.82-2.56,9.33-7.38,10.07-4.82.74-9.33-2.56-10.07-7.38-.74-4.82,2.56-9.33,7.38-10.07,4.82-.74,9.33,2.56,10.07,7.38Z"/>
              <path class="st12" d="M424.76,589.64c-.64.1-1.25.27-1.83.5,3.16.95,5.67,3.61,6.21,7.09.64,4.18-1.76,8.12-5.55,9.57,1.22.37,2.52.5,3.86.29,4.82-.74,8.12-5.25,7.38-10.07-.75-4.82-5.25-8.12-10.07-7.38Z"/>
            </g>
          </g>
          <g>
            <path class="st19" d="M931.45,635.92c34.72-25.75,85-45.42,147.26-21.11"/>
            <path class="st19" d="M1042.76,522.57c-1.47,1.68-19.57,61.95-76.19,92.56"/>
            <path class="st19" d="M1014.58,530.27s-4.51,20.73,4.32,37.1"/>
            <path class="st19" d="M1013.56,604.63s10.23,33.08,46.24,45.94"/>
            <path class="st19" d="M1097.84,543.85s-24.83,37.1-102.08,50.21"/>
            <g>
              <path class="st15" d="M1079.73,549.08c3.49,8.57,13.26,12.68,21.83,9.19,8.56-3.49,12.68-13.26,9.19-21.82-3.49-8.57-13.26-12.68-21.82-9.2-8.57,3.49-12.68,13.26-9.19,21.83Z"/>
              <path class="st12" d="M1088.92,527.25c1.14-.46,2.3-.77,3.46-.97-4.22,4.62-5.72,11.41-3.19,17.59,3.02,7.43,10.77,11.49,18.36,10.17-1.63,1.78-3.62,3.27-6,4.24-8.57,3.49-18.34-.63-21.83-9.19-3.49-8.57.63-18.34,9.19-21.83Z"/>
            </g>
            <g>
              <path class="st15" d="M1029.15,527.07c3.49,8.57,13.26,12.68,21.82,9.19,8.57-3.49,12.68-13.26,9.19-21.82-3.49-8.57-13.26-12.68-21.82-9.2-8.57,3.49-12.68,13.26-9.19,21.83Z"/>
              <path class="st12" d="M1038.35,505.24c1.14-.46,2.3-.77,3.46-.98-4.22,4.62-5.71,11.41-3.19,17.59,3.02,7.43,10.77,11.49,18.37,10.17-1.63,1.78-3.62,3.27-6,4.24-8.57,3.49-18.34-.63-21.82-9.19-3.49-8.57.63-18.34,9.19-21.83Z"/>
            </g>
            <g>
              <path class="st15" d="M1063.6,610.64c-1.08,7.03,3.74,13.61,10.77,14.7,7.03,1.09,13.61-3.74,14.7-10.77,1.08-7.03-3.74-13.62-10.77-14.7-7.03-1.08-13.62,3.74-14.7,10.77Z"/>
              <path class="st12" d="M1078.3,599.86c.94.14,1.82.4,2.67.72-4.62,1.38-8.28,5.27-9.07,10.35-.94,6.1,2.57,11.84,8.1,13.97-1.78.53-3.68.72-5.64.42-7.04-1.08-11.86-7.66-10.77-14.7,1.08-7.03,7.67-11.86,14.7-10.77Z"/>
            </g>
            <g>
              <path class="st15" d="M1043.91,645.38c-1.08,7.03,3.74,13.61,10.77,14.7,7.03,1.09,13.61-3.74,14.7-10.77,1.08-7.03-3.74-13.62-10.77-14.7-7.03-1.08-13.62,3.74-14.7,10.77Z"/>
              <path class="st12" d="M1058.61,634.61c.94.14,1.82.4,2.67.72-4.62,1.38-8.28,5.27-9.07,10.35-.94,6.1,2.57,11.84,8.1,13.97-1.78.53-3.68.72-5.64.42-7.04-1.08-11.86-7.66-10.77-14.7,1.09-7.03,7.67-11.86,14.7-10.77Z"/>
            </g>
            <g>
              <path class="st15" d="M1005.06,528.25c-.74,4.82,2.56,9.33,7.38,10.07,4.82.74,9.33-2.56,10.07-7.38.74-4.82-2.56-9.33-7.38-10.07-4.82-.74-9.33,2.56-10.07,7.38Z"/>
              <path class="st12" d="M1015.13,520.87c.64.1,1.25.27,1.83.5-3.16.95-5.67,3.61-6.21,7.09-.64,4.18,1.76,8.12,5.55,9.57-1.22.37-2.52.5-3.86.29-4.82-.74-8.12-5.25-7.38-10.07.75-4.82,5.25-8.12,10.07-7.38Z"/>
            </g>
          </g>
          <g>
            <g>
              <path class="st9" d="M1075.31,360.41c0,15.47-6.11,28-13.66,28s-13.65-12.54-13.65-28,6.11-28,13.65-28,13.66,12.54,13.66,28Z"/>
              <path class="st10" d="M1066.59,334.37c-.4,14.73-6.29,26.46-13.57,26.46-1.75,0-3.4-.74-4.93-1.96-.02.52-.08,1.01-.08,1.54,0,15.47,6.11,28,13.65,28s13.66-12.54,13.66-28c0-11.88-3.62-21.98-8.72-26.04Z"/>
            </g>
            <g>
              <path class="st9" d="M1049.55,359.78c10.93,10.94,15.46,24.13,10.14,29.46-5.33,5.33-18.52.79-29.45-10.15-10.93-10.94-15.48-24.12-10.15-29.45,5.33-5.34,18.52-.79,29.47,10.14Z"/>
              <path class="st10" d="M1024.96,347.53c10.14,10.71,14.26,23.16,9.12,28.32-1.24,1.23-2.93,1.88-4.88,2.09.36.39.65.78,1.03,1.15,10.93,10.94,24.12,15.48,29.45,10.15,5.33-5.33.8-18.52-10.14-29.46-8.41-8.4-18.1-12.97-24.58-12.25Z"/>
            </g>
            <g>
              <path class="st9" d="M1030.87,377.55c15.46,0,27.99,6.13,28.01,13.67,0,7.53-12.54,13.65-28.01,13.65-15.46,0-28-6.12-28-13.65s12.54-13.66,28-13.67Z"/>
              <path class="st10" d="M1004.82,386.27c14.73.4,26.46,6.29,26.48,13.57-.02,1.75-.75,3.4-1.97,4.94.52.01,1.01.09,1.54.08,15.46,0,28.01-6.11,28.01-13.65-.01-7.55-12.54-13.67-28.01-13.67-11.89.01-21.97,3.63-26.04,8.73Z"/>
            </g>
            <g>
              <path class="st9" d="M1030.23,403.31c10.93-10.93,24.12-15.45,29.46-10.13,5.33,5.33.79,18.52-10.15,29.45-10.95,10.93-24.14,15.47-29.47,10.14-5.33-5.33-.78-18.51,10.15-29.46Z"/>
              <path class="st10" d="M1017.99,427.9c10.68-10.14,23.15-14.26,28.3-9.12,1.24,1.24,1.88,2.92,2.1,4.88.37-.36.79-.65,1.15-1.03,10.93-10.94,15.47-24.13,10.15-29.45-5.34-5.32-18.53-.8-29.46,10.13-8.4,8.41-12.97,18.11-12.24,24.59Z"/>
            </g>
            <g>
              <path class="st9" d="M1047.99,422c.01-15.46,6.13-27.98,13.68-28,7.54,0,13.65,12.54,13.65,28-.01,15.47-6.13,28-13.67,28s-13.65-12.54-13.66-28Z"/>
              <path class="st10" d="M1056.73,448.04c.39-14.72,6.27-26.46,13.56-26.47,1.76,0,3.41.74,4.95,1.97,0-.51.1-1.01.08-1.54,0-15.47-6.11-28-13.65-28-7.55.02-13.66,12.54-13.68,28,.01,11.89,3.63,21.97,8.74,26.04Z"/>
            </g>
            <g>
              <path class="st9" d="M1073.76,422.64c-10.92-10.94-15.45-24.12-10.14-29.47,5.33-5.33,18.52-.79,29.46,10.15,10.92,10.95,15.47,24.13,10.14,29.46-5.33,5.33-18.52.78-29.47-10.14Z"/>
              <path class="st10" d="M1098.37,434.88c-10.15-10.69-14.29-23.14-9.14-28.3,1.25-1.25,2.94-1.89,4.9-2.11-.37-.36-.64-.78-1.03-1.14-10.94-10.94-24.14-15.48-29.46-10.15-5.32,5.35-.79,18.53,10.14,29.47,8.41,8.4,18.1,12.96,24.61,12.24Z"/>
            </g>
            <g>
              <path class="st9" d="M1092.44,404.88c-15.45-.02-27.98-6.13-28-13.67,0-7.53,12.54-13.65,28.02-13.66,15.45.02,27.99,6.13,27.99,13.67s-12.54,13.65-28.01,13.66Z"/>
              <path class="st10" d="M1118.5,396.13c-14.73-.39-26.47-6.26-26.47-13.55,0-1.77.74-3.42,1.97-4.96-.52,0-1-.09-1.54-.08-15.48,0-28.02,6.12-28.02,13.66.03,7.54,12.55,13.66,28,13.67,11.89-.01,21.97-3.63,26.06-8.74Z"/>
            </g>
            <g>
              <path class="st9" d="M1093.09,379.11c-10.94,10.91-24.12,15.44-29.46,10.14-5.33-5.33-.79-18.52,10.15-29.47,10.93-10.91,24.12-15.45,29.45-10.12,5.33,5.33.79,18.51-10.14,29.46Z"/>
              <path class="st10" d="M1105.34,354.5c-10.71,10.14-23.17,14.29-28.32,9.14-1.25-1.25-1.88-2.95-2.1-4.9-.38.37-.77.65-1.15,1.03-10.94,10.95-15.48,24.14-10.15,29.47,5.34,5.31,18.52.78,29.46-10.14,8.39-8.41,12.96-18.11,12.25-24.61Z"/>
            </g>
            <path class="st0" d="M1079.77,391.21c0,10-8.11,18.11-18.12,18.11s-18.12-8.11-18.12-18.11,8.11-18.12,18.12-18.12,18.12,8.11,18.12,18.12Z"/>
          </g>
          <g>
            <g>
              <path class="st9" d="M713.42,383.53c0,13.03-5.15,23.59-11.51,23.59s-11.5-10.56-11.5-23.59,5.15-23.59,11.5-23.59,11.51,10.57,11.51,23.59Z"/>
              <path class="st10" d="M706.08,361.6c-.34,12.41-5.3,22.29-11.44,22.29-1.47,0-2.86-.62-4.15-1.65-.02.44-.07.85-.07,1.3,0,13.03,5.15,23.59,11.5,23.59s11.51-10.56,11.51-23.59c0-10.01-3.05-18.51-7.35-21.94Z"/>
            </g>
            <g>
              <path class="st9" d="M691.72,383c9.21,9.22,13.02,20.33,8.54,24.82-4.49,4.49-15.6.66-24.81-8.55-9.21-9.21-13.04-20.32-8.55-24.81,4.49-4.49,15.6-.67,24.82,8.54Z"/>
              <path class="st10" d="M671.01,372.68c8.54,9.02,12.02,19.51,7.68,23.86-1.04,1.04-2.46,1.59-4.11,1.76.31.33.55.66.87.97,9.21,9.22,20.32,13.04,24.81,8.55,4.49-4.49.67-15.6-8.54-24.82-7.08-7.07-15.25-10.93-20.71-10.32Z"/>
            </g>
            <g>
              <path class="st9" d="M675.98,397.97c13.03,0,23.58,5.16,23.59,11.52,0,6.35-10.56,11.5-23.59,11.5-13.02,0-23.59-5.15-23.59-11.5s10.56-11.51,23.59-11.51Z"/>
              <path class="st10" d="M654.05,405.32c12.41.33,22.29,5.3,22.3,11.43-.01,1.48-.63,2.87-1.67,4.16.44,0,.85.08,1.3.07,13.03,0,23.59-5.15,23.59-11.5,0-6.35-10.56-11.52-23.59-11.52-10.01.01-18.5,3.06-21.94,7.35Z"/>
            </g>
            <g>
              <path class="st9" d="M675.45,419.67c9.21-9.21,20.32-13.02,24.82-8.54,4.49,4.49.66,15.6-8.55,24.82-9.22,9.21-20.33,13.03-24.82,8.54-4.49-4.49-.66-15.6,8.55-24.82Z"/>
              <path class="st10" d="M665.14,440.39c9-8.54,19.5-12.01,23.84-7.68,1.05,1.05,1.59,2.46,1.77,4.11.31-.31.66-.55.97-.87,9.21-9.21,13.03-20.33,8.55-24.82-4.5-4.48-15.61-.67-24.82,8.54-7.08,7.08-10.93,15.25-10.31,20.72Z"/>
            </g>
            <g>
              <path class="st9" d="M690.41,435.41c.01-13.03,5.16-23.57,11.52-23.59,6.35,0,11.5,10.56,11.5,23.59-.01,13.03-5.16,23.59-11.51,23.59s-11.5-10.57-11.51-23.59Z"/>
              <path class="st10" d="M697.77,457.35c.33-12.4,5.28-22.28,11.42-22.3,1.48,0,2.87.62,4.17,1.66,0-.43.08-.85.07-1.3,0-13.03-5.15-23.59-11.5-23.59-6.36.02-11.51,10.56-11.52,23.59.01,10.01,3.06,18.5,7.36,21.94Z"/>
            </g>
            <g>
              <path class="st9" d="M712.12,435.95c-9.2-9.22-13.02-20.32-8.54-24.82,4.49-4.49,15.6-.67,24.82,8.55,9.2,9.22,13.03,20.33,8.54,24.82-4.49,4.49-15.6.66-24.82-8.54Z"/>
              <path class="st10" d="M732.85,446.27c-8.55-9.01-12.04-19.5-7.7-23.84,1.06-1.05,2.47-1.59,4.13-1.78-.31-.31-.54-.66-.87-.96-9.22-9.22-20.33-13.04-24.82-8.55-4.48,4.51-.66,15.61,8.54,24.82,7.09,7.08,15.25,10.92,20.73,10.31Z"/>
            </g>
            <g>
              <path class="st9" d="M727.85,420.99c-13.01-.02-23.57-5.16-23.59-11.52,0-6.35,10.56-11.5,23.6-11.5,13.02.01,23.58,5.17,23.58,11.52s-10.56,11.5-23.59,11.51Z"/>
              <path class="st10" d="M749.81,413.62c-12.41-.33-22.3-5.28-22.3-11.41,0-1.49.62-2.88,1.66-4.18-.44,0-.84-.08-1.3-.07-13.04,0-23.6,5.16-23.6,11.5.02,6.36,10.57,11.51,23.59,11.52,10.02-.01,18.51-3.06,21.95-7.36Z"/>
            </g>
            <g>
              <path class="st9" d="M728.4,399.28c-9.22,9.19-20.32,13.01-24.82,8.54-4.49-4.49-.66-15.6,8.55-24.83,9.21-9.19,20.32-13.01,24.81-8.53,4.49,4.49.66,15.6-8.54,24.82Z"/>
              <path class="st10" d="M738.72,378.55c-9.02,8.54-19.52,12.04-23.85,7.7-1.05-1.05-1.58-2.48-1.77-4.13-.32.31-.65.55-.97.87-9.21,9.23-13.04,20.34-8.55,24.83,4.5,4.47,15.6.66,24.82-8.54,7.06-7.08,10.91-15.25,10.32-20.73Z"/>
            </g>
            <path class="st0" d="M717.18,409.48c0,8.43-6.83,15.26-15.26,15.26s-15.26-6.83-15.26-15.26,6.83-15.27,15.26-15.27,15.26,6.84,15.26,15.27Z"/>
          </g>
        </g>
        <g>
          <g>
            <g>
              <path class="st31" d="M1159.71,1500H313.18c73.91-107.97,188-186.02,320.64-213.01v-123.32h205.17v123.32c132.73,26.99,246.82,105.04,320.73,213.01Z"/>
              <path class="st14" d="M838.99,1183.32v85.38c-144.37,20.78-183-51.92-183-51.92l183-33.46Z"/>
            </g>
            <g>
              <path class="st8" d="M1159.71,1500H313.18c54.93-80.2,132.03-143.85,222.5-182.31,11.21-4.83,22.59-9.23,34.24-13.2,17.25,8.88,35.1,16.47,53.47,22.68,97.54,33.03,203.96,25.7,295.72-16.82,11.13,4.23,22.08,8.88,32.77,13.89,84.08,38.89,155.92,99.86,207.84,175.76Z"/>
              <path class="st29" d="M951.88,1324.24c-.52.43-1.21.86-1.81,1.29-129.19,85.46-290.11,79.68-414.38-7.85,11.21-4.83,22.59-9.23,34.24-13.2,17.25,8.88,35.1,16.47,53.47,22.68,97.54,33.03,203.96,25.7,295.72-16.82,11.12,4.23,22.08,8.88,32.77,13.89Z"/>
            </g>
          </g>
          <g>
            <g>
              <g>
                <g>
                  <path class="st32" d="M970.85,737.49h-241.41c-11.11-28.97-10.81-66.94,2.93-94.74-4.96-6.42-8.73-13.74-11.14-21.46-2.17-6.91-3.25-14.17-3.12-21.41.27-15.34,6.29-30.32,16.1-42.14-6.39-14.8-3.17-32.06,5.72-45.58.33-.52.65-1.03,1-1.52,13.96-5.91,30.76-4.53,43.55,3.58,12.22,7.75,20.46,21.38,21.68,35.8.08.68.14,1.36.16,2.03.97-.43,1.98-.87,3.01-1.27,13.09-5.18,30.41-7.42,45.53-1.9,13.74,5.01,23.55,18.81,26.39,33.2.08.41.16.84.24,1.27,2.25-.76,4.55-1.38,6.88-1.84,17.18-3.44,36.61,1.14,50.38,11.76,15.17,11.68,24.12,31.03,23.31,50.16-.03.62-.05,1.22-.11,1.82.89.57,1.79,1.14,2.63,1.76.06,0,.11.03.14.05,4.26,2.98,8.02,6.64,11.3,10.76,7.21,9.08,11.84,20.38,12.98,31.76,1.74,17.61-5.17,35.88-18.16,47.91Z"/>
                  <g>
                    <path class="st16" d="M790.65,579.66c-1.55,4.93-2.47,10.03-2.71,15.2-.08,1.73-2.79,1.73-2.71,0,.84-16.97,8.62-33.25,20.92-44.85.08.68.14,1.36.16,2.03.97-.43,1.98-.87,3.01-1.27-8.64,7.72-15.2,17.78-18.67,28.89Z"/>
                    <path class="st16" d="M862.04,618.35c-.11,1.73-2.82,1.73-2.71,0,.79-11.38,5.75-22.36,14.01-30.27,2.41-2.3,5.07-4.31,7.91-6.02.08.41.16.84.24,1.27,2.25-.76,4.55-1.38,6.88-1.84-4.85,1.98-9.3,4.85-13.12,8.51-7.75,7.4-12.5,17.67-13.23,28.35Z"/>
                    <path class="st16" d="M916.94,643.64c14.66-4.47,30.46-4.5,45.12-.22-.03.62-.05,1.22-.11,1.82.89.57,1.79,1.14,2.63,1.76-15.07-5.12-31.62-5.42-46.94-.76-1.65.51-2.38-2.12-.7-2.6Z"/>
                    <path class="st16" d="M742.35,623.88c1.67-3.07,4.3-5.66,7.58-6.95,4.03-1.59,8.41-.85,12.39.48,4.35,1.45,8.48,3.37,12.97,4.39,4.52,1.03,9.18,1.39,13.81,1.14,8.74-.49,17.23-3.32,24.49-8.21,7.54-5.07,13.54-12.18,17.37-20.41.74-1.58,3.07-.2,2.34,1.37-5.37,11.52-14.99,20.82-26.59,25.84,25.16,6.42,51.38,12.57,77.31,7.41,7.19-1.43,14.18-3.72,20.72-7.02,1.55-.78,2.93,1.55,1.37,2.34-24.67,12.45-53.17,10.45-79.4,4.85-8.14-1.74-16.21-3.8-24.27-5.87-.05-.01-.07-.04-.11-.06-1.15.37-2.3.72-3.48,1.01-8.31,2.05-17.14,2.03-25.44-.06-4.37-1.1-8.41-3.07-12.7-4.4-4.11-1.27-8.54-1.61-12.2,1.03-8.4,6.05-5.93,17.7-1.79,25.46.82,1.54-1.52,2.91-2.34,1.37-3.86-7.22-6.18-16.08-2.04-23.71Z"/>
                  </g>
                </g>
                <g>
                  <path class="st32" d="M758.3,622.31c-2.41,7.34-6.07,14.31-10.81,20.43,13.74,27.8,14.04,65.77,2.93,94.74h-241.41c-5.45-5.07-9.84-11.22-12.95-18-4.31-9.3-6.2-19.7-5.2-29.92,1.65-16.53,10.7-32.93,24.28-42.52.03-.03.08-.05.14-.05.6-.43,1.22-.84,1.84-1.25.24-.19.52-.35.79-.52-.05-.6-.08-1.19-.11-1.82-.81-19.13,8.13-38.48,23.31-50.16,13.77-10.62,33.2-15.2,50.38-11.76,2.33.46,4.63,1.08,6.88,1.84.08-.43.16-.87.24-1.27,2.85-14.39,12.65-28.19,26.39-33.2,15.12-5.53,32.44-3.28,45.53,1.9,1.03.41,2.03.84,3.01,1.27.03-.68.08-1.35.16-2.03,1.22-14.42,9.46-28.05,21.68-35.8,12.79-8.1,29.59-9.49,43.55-3.58.35.49.68,1,1,1.52,8.89,13.52,12.11,30.79,5.72,45.58,9.81,11.82,15.83,26.8,16.1,42.14.14,7.59-1.05,15.21-3.44,22.44Z"/>
                  <g>
                    <path class="st16" d="M689.2,579.66c1.55,4.93,2.47,10.03,2.71,15.2.08,1.73,2.79,1.73,2.71,0-.84-16.97-8.62-33.25-20.92-44.85-.08.68-.14,1.36-.16,2.03-.97-.43-1.98-.87-3.01-1.27,8.65,7.72,15.2,17.78,18.67,28.89Z"/>
                    <path class="st16" d="M617.82,618.35c.11,1.73,2.82,1.73,2.71,0-.79-11.38-5.75-22.36-14.01-30.27-2.41-2.3-5.07-4.31-7.91-6.02-.08.41-.16.84-.24,1.27-2.25-.76-4.55-1.38-6.88-1.84,4.85,1.98,9.3,4.85,13.12,8.51,7.75,7.4,12.49,17.67,13.23,28.35Z"/>
                    <path class="st16" d="M562.91,643.64c-14.66-4.47-30.46-4.5-45.12-.22.03.62.05,1.22.11,1.82-.89.57-1.79,1.14-2.63,1.76,15.07-5.12,31.62-5.42,46.94-.76,1.65.51,2.38-2.12.7-2.6Z"/>
                    <path class="st16" d="M737.51,623.88c-1.67-3.07-4.3-5.66-7.58-6.95-4.03-1.59-8.41-.85-12.39.48-4.35,1.45-8.48,3.37-12.97,4.39-4.52,1.03-9.18,1.39-13.81,1.14-8.74-.49-17.23-3.32-24.49-8.21-7.54-5.07-13.54-12.18-17.37-20.41-.74-1.58-3.07-.2-2.34,1.37,5.37,11.52,14.99,20.82,26.59,25.84-25.16,6.42-51.38,12.57-77.31,7.41-7.19-1.43-14.18-3.72-20.72-7.02-1.55-.78-2.93,1.55-1.37,2.34,24.67,12.45,53.17,10.45,79.4,4.85,8.14-1.74,16.21-3.8,24.27-5.87.05-.01.07-.04.11-.06,1.15.37,2.3.72,3.48,1.01,8.31,2.05,17.14,2.03,25.44-.06,4.37-1.1,8.41-3.07,12.7-4.4,4.11-1.27,8.54-1.61,12.2,1.03,8.4,6.05,5.93,17.7,1.79,25.46-.82,1.54,1.52,2.91,2.34,1.37,3.86-7.22,6.18-16.08,2.04-23.71Z"/>
                  </g>
                  <path class="st16" d="M756.75,574.96c-2.34-6.04-5.44-11.75-9.27-16.97.22-.16.4-.37.5-.69,4.2-14.63,2-30.72-5.99-43.68-.91-1.48-3.26-.12-2.34,1.37,7.62,12.36,9.72,27.63,5.71,41.59-.07.25-.06.48,0,.68-.62.33-.99,1.03-.45,1.75,13.65,18.32,17.73,42.88,11.55,64.79-1.73,6.15-4.28,12.01-7.6,17.47-.91,1.49,1.43,2.86,2.34,1.37,12.21-20.1,14.01-45.83,5.56-67.69Z"/>
                </g>
              </g>
              <path class="st26" d="M970.85,737.49h-311.84c-54.31-5.99-108.64-11.98-162.95-18-4.31-9.3-6.2-19.7-5.2-29.92,1.65-16.53,10.7-32.93,24.28-42.52.03-.03.08-.05.14-.05.6-.43,1.22-.84,1.84-1.25,18.86,5.01,40.57.41,60.27-4.15,47.18-10.89,95.63-19.57,143.85-20.32,12.38-.22,24.74.11,37.07,1.03,12.85,1,25.64,2.66,38.35,5.1,31.65,6.07,62.19,16.86,93.55,24.34,28.08,6.69,57.48,10.7,85.83,6.07,7.21,9.08,11.84,20.38,12.98,31.76,1.74,17.61-5.17,35.88-18.16,47.91Z"/>
            </g>
            <g>
              <path class="st31" d="M495.28,1057.05c-22.01,22.01-61.32,18.39-87.8-8.09-26.48-26.48-30.1-65.79-8.09-87.8,22.01-22.01,61.32-18.39,87.8,8.09,26.48,26.48,30.1,65.79,8.09,87.8Z"/>
              <g>
                <path class="st14" d="M490.35,1025.01c-1.32-8.17-2.98-16.07-7.02-23.41-3.89-7.07-9.56-12.85-16.1-17.48-6.92-4.9-15.09-7.33-23.42-8.3-9.23-1.08-18.14,1.04-26.57,4.66-2.66,1.14-4.98,4.78-5.71,7.43-.82,2.98-.45,6.94,1.25,9.58,4.02,6.23,10.59,7.21,17,4.46-2.67,1.15-.5.26.11.05.75-.25,1.49-.49,2.25-.69.76-.2,1.52-.39,2.29-.54.37-.08.62-.14.81-.19,1.26-.19,2.65-.17,3.85-.17.79,0,1.57.03,2.36.08.39.02.68.03.87.03,1.25.17,2.55.52,3.72.83.76.21,1.51.45,2.25.7.3.1.59.2.89.32.89.34.59.21-.9-.41.96-.02,2.8,1.38,3.64,1.87.97.56,2.01,1.5,3.05,2.03.54.48,1.09.95,1.61,1.45.96.92,1.83,1.89,2.72,2.88-.13-.17-.25-.35-.32-.49.07.16.21.33.32.5.03.03.06.06.09.1.81.91.34.46-.07-.07.34.51.77,1.03,1.07,1.49.67,1.03,1.29,2.09,1.86,3.18.03.07.25.44.46.82.1.26.2.53.3.79.57,1.57,1.03,3.17,1.43,4.79.84,3.41,1.38,6.89,1.94,10.35,1.04,6.44,9.38,10.59,15.29,8.68,6.98-2.26,9.8-8.4,8.68-15.29Z"/>
                <path class="st14" d="M459.31,1010.16s.01.02.02.03c0,0-.01-.02-.02-.03,0,0,0,0,0,0Z"/>
              </g>
            </g>
            <g>
              <path class="st31" d="M972.99,1057.05c22.01,22.01,61.32,18.39,87.8-8.09,26.48-26.48,30.1-65.79,8.09-87.8-22.01-22.01-61.32-18.39-87.8,8.09-26.48,26.48-30.1,65.79-8.09,87.8Z"/>
              <g>
                <path class="st14" d="M986.6,1040.3c5.91,1.91,14.24-2.24,15.29-8.68.56-3.46,1.1-6.94,1.94-10.35.4-1.62.86-3.22,1.43-4.79.09-.27.19-.53.3-.79.21-.38.43-.75.46-.82.57-1.09,1.19-2.15,1.86-3.18.3-.46.72-.98,1.07-1.49-.41.53-.88.97-.07.07.03-.03.06-.06.09-.1.11-.17.25-.34.32-.5-.06.14-.19.32-.32.49.88-.98,1.76-1.96,2.72-2.88.52-.5,1.07-.97,1.61-1.45,1.04-.53,2.08-1.47,3.05-2.03.84-.49,2.69-1.89,3.64-1.87-1.49.62-1.79.75-.9.41.29-.11.59-.22.89-.32.74-.26,1.49-.49,2.25-.7,1.17-.32,2.46-.67,3.72-.83.2,0,.48,0,.87-.03.79-.05,1.57-.08,2.36-.08,1.2,0,2.59-.01,3.85.17.19.05.44.12.81.19.77.16,1.53.34,2.29.54.76.21,1.51.44,2.25.69.61.21,2.78,1.09.11-.05,6.42,2.75,12.99,1.77,17-4.46,1.7-2.64,2.07-6.6,1.25-9.58-.73-2.65-3.05-6.29-5.71-7.43-8.42-3.61-17.34-5.74-26.57-4.66-8.34.98-16.49,3.4-23.42,8.3-6.54,4.63-12.21,10.41-16.1,17.48-4.03,7.34-5.69,15.24-7.02,23.41-1.11,6.9,1.71,13.03,8.68,15.29Z"/>
                <path class="st14" d="M1008.96,1010.16s-.01.02-.02.03c0,0,.01-.02.02-.03,0,0,0,0,0,0Z"/>
              </g>
            </g>
            <g>
              <path class="st31" d="M540.11,711.2c-37.25,42.64-59.69,106.16-59.69,196.93,0,205.21,114.62,327.66,256.01,327.66s256.01-122.46,256.01-327.66c0-84.83-19.6-145.86-52.57-188.28-133.28,5.79-266.63-1.02-399.76-8.64Z"/>
              <g>
                <path class="st24" d="M565.86,904.3c12.32-7.88,26.25-14.1,41.39-16.52,15.1-2.52,30.96-.99,45.68,3.44l.08.02c4.36,1.31,6.84,5.91,5.53,10.28-1.31,4.36-5.91,6.84-10.28,5.52-.31-.09-.65-.22-.94-.34-12.22-5.36-25.42-8.35-38.9-7.8-13.48.46-27,4.48-39.68,10.55-1.47.7-3.24.09-3.94-1.39-.65-1.36-.17-2.97,1.07-3.77Z"/>
                <path class="st24" d="M907,904.3c-12.32-7.88-26.25-14.1-41.39-16.52-15.1-2.52-30.96-.99-45.68,3.44l-.08.02c-4.36,1.31-6.84,5.91-5.53,10.28,1.31,4.36,5.91,6.84,10.28,5.52.31-.09.65-.22.94-.34,12.22-5.36,25.42-8.35,38.9-7.8,13.48.46,27,4.48,39.68,10.55,1.47.7,3.24.09,3.94-1.39.65-1.36.17-2.97-1.07-3.77Z"/>
                <path class="st14" d="M734.29,1014.01c-.44-1.37-1.35-2.98-2.74-3.56-1.91-.81-3.79-1.45-5.91-1.32-2.16.13-3.96.64-5.89,1.6-3.4,1.7-5.79,5.07-6.87,8.64-.99,3.3-.85,7.12.22,10.38,1.18,3.57,3.13,6.51,5.47,9.41.9,1.11,2.85,1.75,4.22,1.75,1.46,0,3.21-.65,4.21-1.75,1.04-1.14,1.82-2.63,1.75-4.22-.07-1.63-.68-2.86-1.68-4.11l.27.35c-.97-1.27-1.77-2.65-2.47-4.08-.25-.68-.46-1.38-.61-2.08-.04-.56-.04-1.11-.01-1.67.08-.35.17-.69.28-1.03.13-.24.27-.47.41-.7.03-.03.06-.06.09-.09.18-.12.37-.23.56-.33.1-.03.2-.06.31-.08.1,0,.19,0,.29,0,.17.05.34.07.51.14-.11-.05-.22-.09-.32-.14.09,0,.18,0,.27,0,1.11.37,2.21.59,3.48.24,1.38-.38,2.88-1.45,3.56-2.74.73-1.39,1.1-3.07.6-4.6Z"/>
                <g>
                  <circle class="st13" cx="852.96" cy="1045.87" r="27.91"/>
                  <circle class="st13" cx="619.89" cy="1045.78" r="27.91" transform="translate(-583.51 1218.28) rotate(-67.5)"/>
                </g>
                <g>
                  <path class="st14" d="M791.12,1080.66c-34.21,17.82-76.55,16.41-109.65-3.27-4.79-2.84-8.99,4.69-4.22,7.52,35.84,21.3,81.44,22.35,118.35,3.12,4.93-2.56.43-9.93-4.48-7.37Z"/>
                  <path class="st14" d="M750.47,1122.18c-.66-2.24-3.12-3.58-5.36-2.92-8.45,2.49-17.77,2.05-25.78-1.46-2.13-.94-4.66-.52-5.87,1.65-1.05,1.88-.49,4.93,1.65,5.87,10.24,4.49,21.67,5.4,32.43,2.21,2.24-.66,3.58-3.12,2.92-5.36Z"/>
                </g>
                <path class="st14" d="M890.83,949.82c-6.82,9.27-18.54,13.96-29.8,14.24-13.54.34-26.37-5.1-37.67-12.13-4.29-2.67-8.22,4.1-3.95,6.76,12.94,8.05,28.08,14.12,43.59,13.11,13.61-.89,26.43-6.94,34.59-18.03,2.99-4.06-3.8-7.97-6.76-3.95Z"/>
                <path class="st14" d="M579.7,949.82c6.82,9.27,18.54,13.96,29.8,14.24,13.54.34,26.37-5.1,37.67-12.13,4.29-2.67,8.22,4.1,3.95,6.76-12.94,8.05-28.08,14.12-43.59,13.11-13.61-.89-26.43-6.94-34.59-18.03-2.99-4.06,3.8-7.97,6.76-3.95Z"/>
              </g>
            </g>
            <path class="st6" d="M564.5,737.49c3.39,116.61-73.91,262.64-73.91,262.64-47.64-146.6-24.18-310.86-24.18-310.86,212.4-72.37,431.35-49.98,543.15,14.33,28.1,151.59-27.93,305.51-27.93,305.51-27.27-73.95-30.13-167.24-30.13-167.24-197.04,0-335.42-47.74-387-104.38Z"/>
          </g>
        </g>
        <g>
          <polygon class="st32" points="1186.51 756.36 1169.06 756.36 1169.06 738.91 1154.51 738.91 1154.51 756.36 1137.06 756.36 1137.06 770.91 1154.51 770.91 1154.51 788.37 1169.06 788.37 1169.06 770.91 1186.51 770.91 1186.51 756.36"/>
          <polygon class="st32" points="298.41 1202.81 283.6 1202.81 283.6 1188 271.26 1188 271.26 1202.81 256.45 1202.81 256.45 1215.15 271.26 1215.15 271.26 1229.96 283.6 1229.96 283.6 1215.15 298.41 1215.15 298.41 1202.81"/>
          <path class="st32" d="M291.33,921.71c0-11.04-8.95-19.98-19.98-19.98-6.23,0-11.79,2.85-15.46,7.32-3.67-4.47-9.23-7.32-15.46-7.32-11.04,0-19.98,8.95-19.98,19.98,0,5.97,2.63,11.31,6.78,14.98h-.03s28.69,25.08,28.69,25.08l28.69-25.07h-.03c4.15-3.66,6.78-9.01,6.78-14.98ZM255.89,934.38h0Z"/>
          <path class="st32" d="M1279.96,1299.79c0-11.71-9.49-21.2-21.2-21.2-6.61,0-12.51,3.02-16.4,7.77-3.89-4.74-9.79-7.77-16.4-7.77-11.71,0-21.2,9.49-21.2,21.2,0,6.34,2.79,12,7.2,15.89h-.03s30.43,26.6,30.43,26.6l30.43-26.6h-.03c4.4-3.89,7.19-9.55,7.19-15.89ZM1242.37,1313.23h0Z"/>
          <path class="st32" d="M1219.45,245.59c0-19.13-15.51-34.63-34.63-34.63-10.79,0-20.43,4.94-26.78,12.68-6.35-7.74-15.99-12.68-26.78-12.68-19.13,0-34.63,15.51-34.63,34.63,0,10.35,4.56,19.61,11.76,25.96h-.05s49.71,43.46,49.71,43.46l49.71-43.45h-.05c7.2-6.35,11.76-15.61,11.76-25.96ZM1102.15,299.58h0Z"/>
        </g>
        <g>
          <g>
            <path class="st27" d="M126.61,635.93c-2.9-4.62-5.16-11.21-1.26-15.01,3.12-3.04,8.26-2.2,12.31-.62,12.92,5.02,23.56,15.61,28.62,28.51-4.72-9-6.23-19.64-4.2-29.6.9-4.39,2.58-8.82,5.91-11.82,3.33-3,8.62-4.14,12.39-1.71,3.14,2.03,4.51,5.88,5.42,9.5,2.92,11.58,3.34,23.79,1.24,35.54,4.1-12.23,13.05-22.76,24.46-28.78,4.32-2.28,9.78-3.87,13.92-1.28,4.89,3.06,5.15,10.13,3.68,15.7-3.38,12.85-13.21,23.83-25.62,28.59,12.1-5.64,25.79-7.81,39.04-6.2,5.6.68,11.87,2.62,14.17,7.77,1.74,3.89.54,8.64-2.12,11.97-2.66,3.33-6.56,5.44-10.54,6.98-13.57,5.24-29.33,4.47-42.32-2.06,10.49,3.06,19.31,11.34,23.06,21.6,2.78,7.63,2.33,17.27-3.83,22.56-7.03,6.04-18.61,3.48-24.93-3.3-6.31-6.78-8.44-16.43-9.28-25.65-1.62,16.04-11.99,30.93-26.47,38.01-6.62,3.24-15.63,4.46-20.54-1.04-4.37-4.89-3.19-12.59-.52-18.59,5.02-11.26,14.49-20.46,25.88-25.17-13.39,6.66-29.35,7.97-43.64,3.58-6.07-1.86-12.65-5.85-13.06-12.18-.41-6.27,5.54-11.09,11.35-13.47,6.24-2.56,12.97-3.66,19.69-3.88,3.35-.11,6.71,0,10.05.23,3.13.22,6.6,1.07,9.68.91-1.72-1.72-4.51-2.83-6.55-4.21-2.54-1.73-5-3.59-7.35-5.57-4.67-3.92-8.96-8.31-12.76-13.08-2.11-2.64-4.07-5.4-5.86-8.26Z"/>
            <circle class="st2" cx="181.7" cy="673.94" r="16.91"/>
          </g>
          <g>
            <path class="st2" d="M1216.52,743.57c-4.14-6.6-7.38-16.02-1.8-21.46,4.45-4.34,11.8-3.14,17.6-.89,18.47,7.17,33.67,22.32,40.92,40.75-6.75-12.86-8.91-28.07-6.01-42.31,1.28-6.28,3.68-12.61,8.44-16.89,4.76-4.28,12.32-5.92,17.71-2.44,4.49,2.9,6.44,8.41,7.74,13.59,4.17,16.56,4.78,34,1.78,50.81,5.86-17.48,18.65-32.54,34.96-41.14,6.18-3.26,13.98-5.53,19.9-1.82,6.98,4.37,7.35,14.47,5.26,22.44-4.83,18.37-18.89,34.06-36.63,40.87,17.29-8.06,36.86-11.17,55.8-8.86,8.01.98,16.97,3.74,20.26,11.11,2.49,5.57.77,12.35-3.03,17.12-3.81,4.76-9.38,7.78-15.07,9.98-19.39,7.49-41.93,6.39-60.5-2.94,14.99,4.38,27.61,16.2,32.96,30.88,3.97,10.91,3.33,24.69-5.47,32.26-10.05,8.63-26.61,4.98-35.63-4.71-9.02-9.69-12.06-23.48-13.27-36.67-2.32,22.93-17.14,44.21-37.85,54.33-9.47,4.63-22.34,6.38-29.37-1.48-6.25-6.99-4.56-18-.74-26.57,7.18-16.09,20.71-29.25,37-35.98-19.14,9.52-41.95,11.39-62.39,5.12-8.67-2.66-18.09-8.36-18.68-17.4-.58-8.96,7.91-15.85,16.22-19.26,8.93-3.66,18.54-5.24,28.15-5.55,4.79-.16,9.59,0,14.37.33,4.47.31,9.43,1.53,13.84,1.3-2.46-2.46-6.45-4.04-9.36-6.02-3.63-2.47-7.15-5.13-10.51-7.96-6.68-5.61-12.81-11.88-18.24-18.7-3.02-3.78-5.82-7.72-8.38-11.81Z"/>
            <circle class="st27" cx="1295.28" cy="797.9" r="24.18"/>
          </g>
          <g>
            <path class="st23" d="M153.55,866.73h0c0,23.46-19.02,42.48-42.48,42.48h0c23.46,0,42.48,19.02,42.48,42.48h0c0-23.46,19.02-42.48,42.48-42.48h0c-23.46,0-42.48-19.02-42.48-42.48Z"/>
            <path class="st23" d="M1080.55,1285.76h0c0,23.46-19.02,42.48-42.48,42.48h0c23.46,0,42.48,19.02,42.48,42.48h0c0-23.46,19.02-42.48,42.48-42.48h0c-23.46,0-42.48-19.02-42.48-42.48Z"/>
            <path class="st23" d="M1245.41,1010.73h0c0,41.77-33.86,75.63-75.63,75.63h0c41.77,0,75.63,33.86,75.63,75.63h0c0-41.77,33.86-75.63,75.63-75.63h0c-41.77,0-75.63-33.86-75.63-75.63Z"/>
            <path class="st23" d="M232.96,1271.73h0c0,39.26-31.82,71.08-71.08,71.08h0c39.26,0,71.08,31.82,71.08,71.08h0c0-39.26,31.82-71.08,71.08-71.08h0c-39.26,0-71.08-31.82-71.08-71.08Z"/>
          </g>
        </g>
      </g>
    </g>
  </g>
</svg>